<svg version="1.1" viewBox="0.0 0.0 600.0 371.0" fill="none" stroke="none" stroke-linecap="square" stroke-miterlimit="10" width="600" height="371" xmlns:xlink="http://www.w3.org/1999/xlink" xmlns="http://www.w3.org/2000/svg"><path fill="#ffffff" d="M0 0L600.0 0L600.0 371.0L0 371.0L0 0Z" fill-rule="nonzero"/><path stroke="#cccccc" stroke-width="1.0" stroke-linecap="butt" d="M117.5 51.5L117.5 332.5" fill-rule="nonzero"/><path stroke="#cccccc" stroke-width="1.0" stroke-linecap="butt" d="M227.5 51.5L227.5 332.5" fill-rule="nonzero"/><path stroke="#cccccc" stroke-width="1.0" stroke-linecap="butt" d="M338.5 51.5L338.5 332.5" fill-rule="nonzero"/><path stroke="#cccccc" stroke-width="1.0" stroke-linecap="butt" d="M448.5 51.5L448.5 332.5" fill-rule="nonzero"/><path stroke="#cccccc" stroke-width="1.0" stroke-linecap="butt" d="M558.5 51.5L558.5 332.5" fill-rule="nonzero"/><path stroke="#cccccc" stroke-width="1.0" stroke-linecap="butt" d="M68.5 295.5L581.5 295.5" fill-rule="nonzero"/><path stroke="#cccccc" stroke-width="1.0" stroke-linecap="butt" d="M68.5 251.5L581.5 251.5" fill-rule="nonzero"/><path stroke="#cccccc" stroke-width="1.0" stroke-linecap="butt" d="M68.5 149.5L581.5 149.5" fill-rule="nonzero"/><path stroke="#cccccc" stroke-width="1.0" stroke-linecap="butt" d="M68.5 105.5L581.5 105.5" fill-rule="nonzero"/><path stroke="#000000" stroke-width="1.0" stroke-linecap="butt" d="M68.5 332.5L68.5 51.5" fill-rule="nonzero"/><clipPath id="id_0"><path d="M68.55 51.916668L581.45 51.916668L581.45 332.45L68.55 332.45L68.55 51.916668Z" clip-rule="nonzero"/></clipPath><path stroke="#4285f4" stroke-width="2.0" stroke-linecap="butt" clip-path="url(#id_0)" d="M68.55 176.76111L73.39908 180.99387L75.51504 180.04668L97.0273 176.3549L111.57453 173.43463L117.040764 189.22305L120.479195 166.91385L139.08202 189.69727L152.35085 165.46854L163.01881 166.94708L190.21773 166.28569L194.89047 167.0136L197.40318 180.41563L239.45789 158.24777L260.30893 157.18451L279.44073 153.5572L367.78207 124.522484L370.64743 131.11775L382.15298 51.916668L477.28302 124.199905L569.72406 125.03518L581.45 117.756546" fill-rule="nonzero"/><path stroke="#ea4335" stroke-width="2.0" stroke-linecap="butt" clip-path="url(#id_0)" d="M68.55 332.45L73.39908 310.96375L75.51504 330.00784L97.0273 321.84512L111.57453 311.9388L117.040764 324.58408L120.479195 312.5973L139.08202 322.61566L152.35085 280.75418L163.01881 302.9459L190.21773 298.95337L194.89047 302.09897L197.40318 310.64203L239.45789 284.35907L260.30893 296.46768L279.44073 294.94653L367.78207 288.40698L370.64743 281.15594L382.15298 304.2379L477.28302 274.19693L569.72406 280.25552L581.45 276.1218" fill-rule="nonzero"/><path fill="#000000" fill-opacity="0.0" clip-path="url(#id_0)" d="M71.55 176.76111C71.55 178.41795 70.206856 179.76111 68.55 179.76111C66.89314 179.76111 65.55 178.41795 65.55 176.76111C65.55 175.10425 66.89314 173.76111 68.55 173.76111C70.206856 173.76111 71.55 175.10425 71.55 176.76111Z" fill-rule="nonzero"/><path fill="#000000" fill-opacity="0.0" clip-path="url(#id_0)" d="M76.39908 180.99387C76.39908 182.65071 75.05593 183.99387 73.39908 183.99387C71.74222 183.99387 70.39908 182.65071 70.39908 180.99387C70.39908 179.337 71.74222 177.99387 73.39908 177.99387C75.05593 177.99387 76.39908 179.337 76.39908 180.99387Z" fill-rule="nonzero"/><path fill="#000000" fill-opacity="0.0" clip-path="url(#id_0)" d="M78.51504 180.04668C78.51504 181.70354 77.17189 183.04668 75.51504 183.04668C73.858185 183.04668 72.51504 181.70354 72.51504 180.04668C72.51504 178.38983 73.858185 177.04668 75.51504 177.04668C77.17189 177.04668 78.51504 178.38983 78.51504 180.04668Z" fill-rule="nonzero"/><path fill="#000000" fill-opacity="0.0" clip-path="url(#id_0)" d="M100.0273 176.3549C100.0273 178.01175 98.68416 179.3549 97.0273 179.3549C95.370445 179.3549 94.0273 178.01175 94.0273 176.3549C94.0273 174.69804 95.370445 173.3549 97.0273 173.3549C98.68416 173.3549 100.0273 174.69804 100.0273 176.3549Z" fill-rule="nonzero"/><path fill="#000000" fill-opacity="0.0" clip-path="url(#id_0)" d="M114.57453 173.43463C114.57453 175.09148 113.231384 176.43463 111.57453 176.43463C109.91768 176.43463 108.57453 175.09148 108.57453 173.43463C108.57453 171.77777 109.91768 170.43463 111.57453 170.43463C113.231384 170.43463 114.57453 171.77777 114.57453 173.43463Z" fill-rule="nonzero"/><path fill="#000000" fill-opacity="0.0" clip-path="url(#id_0)" d="M120.040764 189.22305C120.040764 190.87991 118.69762 192.22305 117.040764 192.22305C115.3839 192.22305 114.040764 190.87991 114.040764 189.22305C114.040764 187.56621 115.3839 186.22305 117.040764 186.22305C118.69762 186.22305 120.040764 187.56621 120.040764 189.22305Z" fill-rule="nonzero"/><path fill="#000000" fill-opacity="0.0" clip-path="url(#id_0)" d="M123.479195 166.91385C123.479195 168.5707 122.13605 169.91385 120.479195 169.91385C118.82234 169.91385 117.479195 168.5707 117.479195 166.91385C117.479195 165.25699 118.82234 163.91385 120.479195 163.91385C122.13605 163.91385 123.479195 165.25699 123.479195 166.91385Z" fill-rule="nonzero"/><path fill="#000000" fill-opacity="0.0" clip-path="url(#id_0)" d="M142.08202 189.69727C142.08202 191.35411 140.73888 192.69727 139.08202 192.69727C137.42516 192.69727 136.08202 191.35411 136.08202 189.69727C136.08202 188.0404 137.42516 186.69727 139.08202 186.69727C140.73888 186.69727 142.08202 188.0404 142.08202 189.69727Z" fill-rule="nonzero"/><path fill="#000000" fill-opacity="0.0" clip-path="url(#id_0)" d="M155.35085 165.46854C155.35085 167.12538 154.0077 168.46854 152.35085 168.46854C150.694 168.46854 149.35085 167.12538 149.35085 165.46854C149.35085 163.81168 150.694 162.46854 152.35085 162.46854C154.0077 162.46854 155.35085 163.81168 155.35085 165.46854Z" fill-rule="nonzero"/><path fill="#000000" fill-opacity="0.0" clip-path="url(#id_0)" d="M166.01881 166.94708C166.01881 168.60393 164.67567 169.94708 163.01881 169.94708C161.36197 169.94708 160.01881 168.60393 160.01881 166.94708C160.01881 165.29022 161.36197 163.94708 163.01881 163.94708C164.67567 163.94708 166.01881 165.29022 166.01881 166.94708Z" fill-rule="nonzero"/><path fill="#000000" fill-opacity="0.0" clip-path="url(#id_0)" d="M193.21773 166.28569C193.21773 167.94254 191.87459 169.28569 190.21773 169.28569C188.56087 169.28569 187.21773 167.94254 187.21773 166.28569C187.21773 164.62883 188.56087 163.28569 190.21773 163.28569C191.87459 163.28569 193.21773 164.62883 193.21773 166.28569Z" fill-rule="nonzero"/><path fill="#000000" fill-opacity="0.0" clip-path="url(#id_0)" d="M197.89047 167.0136C197.89047 168.67046 196.54733 170.0136 194.89047 170.0136C193.23361 170.0136 191.89047 168.67046 191.89047 167.0136C191.89047 165.35675 193.23361 164.0136 194.89047 164.0136C196.54733 164.0136 197.89047 165.35675 197.89047 167.0136Z" fill-rule="nonzero"/><path fill="#000000" fill-opacity="0.0" clip-path="url(#id_0)" d="M200.40318 180.41563C200.40318 182.0725 199.06003 183.41563 197.40318 183.41563C195.74632 183.41563 194.40318 182.0725 194.40318 180.41563C194.40318 178.75877 195.74632 177.41563 197.40318 177.41563C199.06003 177.41563 200.40318 178.75877 200.40318 180.41563Z" fill-rule="nonzero"/><path fill="#000000" fill-opacity="0.0" clip-path="url(#id_0)" d="M242.45789 158.24777C242.45789 159.90463 241.11475 161.24777 239.45789 161.24777C237.80104 161.24777 236.45789 159.90463 236.45789 158.24777C236.45789 156.59093 237.80104 155.24777 239.45789 155.24777C241.11475 155.24777 242.45789 156.59093 242.45789 158.24777Z" fill-rule="nonzero"/><path fill="#000000" fill-opacity="0.0" clip-path="url(#id_0)" d="M263.30893 157.18451C263.30893 158.84137 261.96576 160.18451 260.30893 160.18451C258.65207 160.18451 257.30893 158.84137 257.30893 157.18451C257.30893 155.52766 258.65207 154.18451 260.30893 154.18451C261.96576 154.18451 263.30893 155.52766 263.30893 157.18451Z" fill-rule="nonzero"/><path fill="#000000" fill-opacity="0.0" clip-path="url(#id_0)" d="M282.44073 153.5572C282.44073 155.21407 281.0976 156.5572 279.44073 156.5572C277.78387 156.5572 276.44073 155.21407 276.44073 153.5572C276.44073 151.90034 277.78387 150.5572 279.44073 150.5572C281.0976 150.5572 282.44073 151.90034 282.44073 153.5572Z" fill-rule="nonzero"/><path fill="#000000" fill-opacity="0.0" clip-path="url(#id_0)" d="M370.78207 124.522484C370.78207 126.17934 369.43893 127.522484 367.78207 127.522484C366.1252 127.522484 364.78207 126.17934 364.78207 124.522484C364.78207 122.86563 366.1252 121.522484 367.78207 121.522484C369.43893 121.522484 370.78207 122.86563 370.78207 124.522484Z" fill-rule="nonzero"/><path fill="#000000" fill-opacity="0.0" clip-path="url(#id_0)" d="M373.64743 131.11775C373.64743 132.77461 372.3043 134.11775 370.64743 134.11775C368.99057 134.11775 367.64743 132.77461 367.64743 131.11775C367.64743 129.4609 368.99057 128.11775 370.64743 128.11775C372.3043 128.11775 373.64743 129.4609 373.64743 131.11775Z" fill-rule="nonzero"/><path fill="#000000" fill-opacity="0.0" clip-path="url(#id_0)" d="M385.15298 51.916668C385.15298 53.57352 383.8098 54.916668 382.15298 54.916668C380.49612 54.916668 379.15298 53.57352 379.15298 51.916668C379.15298 50.25981 380.49612 48.916668 382.15298 48.916668C383.8098 48.916668 385.15298 50.25981 385.15298 51.916668Z" fill-rule="nonzero"/><path fill="#000000" fill-opacity="0.0" clip-path="url(#id_0)" d="M480.28302 124.199905C480.28302 125.85676 478.93988 127.199905 477.28302 127.199905C475.6262 127.199905 474.28302 125.85676 474.28302 124.199905C474.28302 122.54305 475.6262 121.199905 477.28302 121.199905C478.93988 121.199905 480.28302 122.54305 480.28302 124.199905Z" fill-rule="nonzero"/><path fill="#000000" fill-opacity="0.0" clip-path="url(#id_0)" d="M572.72406 125.03518C572.72406 126.69203 571.3809 128.03519 569.72406 128.03519C568.0672 128.03519 566.72406 126.69203 566.72406 125.03518C566.72406 123.37833 568.0672 122.03518 569.72406 122.03518C571.3809 122.03518 572.72406 123.37833 572.72406 125.03518Z" fill-rule="nonzero"/><path fill="#000000" fill-opacity="0.0" clip-path="url(#id_0)" d="M584.45 117.756546C584.45 119.4134 583.1069 120.756546 581.45 120.756546C579.79315 120.756546 578.45 119.4134 578.45 117.756546C578.45 116.09969 579.79315 114.756546 581.45 114.756546C583.1069 114.756546 584.45 116.09969 584.45 117.756546Z" fill-rule="nonzero"/><path fill="#000000" fill-opacity="0.0" clip-path="url(#id_0)" d="M71.55 332.45C71.55 334.10684 70.206856 335.45 68.55 335.45C66.89314 335.45 65.55 334.10684 65.55 332.45C65.55 330.79315 66.89314 329.45 68.55 329.45C70.206856 329.45 71.55 330.79315 71.55 332.45Z" fill-rule="nonzero"/><path fill="#000000" fill-opacity="0.0" clip-path="url(#id_0)" d="M76.39908 310.96375C76.39908 312.6206 75.05593 313.96375 73.39908 313.96375C71.74222 313.96375 70.39908 312.6206 70.39908 310.96375C70.39908 309.3069 71.74222 307.96375 73.39908 307.96375C75.05593 307.96375 76.39908 309.3069 76.39908 310.96375Z" fill-rule="nonzero"/><path fill="#000000" fill-opacity="0.0" clip-path="url(#id_0)" d="M78.51504 330.00784C78.51504 331.66467 77.17189 333.00784 75.51504 333.00784C73.858185 333.00784 72.51504 331.66467 72.51504 330.00784C72.51504 328.35098 73.858185 327.00784 75.51504 327.00784C77.17189 327.00784 78.51504 328.35098 78.51504 330.00784Z" fill-rule="nonzero"/><path fill="#000000" fill-opacity="0.0" clip-path="url(#id_0)" d="M100.0273 321.84512C100.0273 323.50198 98.68416 324.84512 97.0273 324.84512C95.370445 324.84512 94.0273 323.50198 94.0273 321.84512C94.0273 320.18826 95.370445 318.84512 97.0273 318.84512C98.68416 318.84512 100.0273 320.18826 100.0273 321.84512Z" fill-rule="nonzero"/><path fill="#000000" fill-opacity="0.0" clip-path="url(#id_0)" d="M114.57453 311.9388C114.57453 313.59567 113.231384 314.9388 111.57453 314.9388C109.91768 314.9388 108.57453 313.59567 108.57453 311.9388C108.57453 310.28195 109.91768 308.9388 111.57453 308.9388C113.231384 308.9388 114.57453 310.28195 114.57453 311.9388Z" fill-rule="nonzero"/><path fill="#000000" fill-opacity="0.0" clip-path="url(#id_0)" d="M120.040764 324.58408C120.040764 326.24094 118.69762 327.58408 117.040764 327.58408C115.3839 327.58408 114.040764 326.24094 114.040764 324.58408C114.040764 322.92722 115.3839 321.58408 117.040764 321.58408C118.69762 321.58408 120.040764 322.92722 120.040764 324.58408Z" fill-rule="nonzero"/><path fill="#000000" fill-opacity="0.0" clip-path="url(#id_0)" d="M123.479195 312.5973C123.479195 314.25415 122.13605 315.5973 120.479195 315.5973C118.82234 315.5973 117.479195 314.25415 117.479195 312.5973C117.479195 310.94043 118.82234 309.5973 120.479195 309.5973C122.13605 309.5973 123.479195 310.94043 123.479195 312.5973Z" fill-rule="nonzero"/><path fill="#000000" fill-opacity="0.0" clip-path="url(#id_0)" d="M142.08202 322.61566C142.08202 324.27252 140.73888 325.61566 139.08202 325.61566C137.42516 325.61566 136.08202 324.27252 136.08202 322.61566C136.08202 320.95883 137.42516 319.61566 139.08202 319.61566C140.73888 319.61566 142.08202 320.95883 142.08202 322.61566Z" fill-rule="nonzero"/><path fill="#000000" fill-opacity="0.0" clip-path="url(#id_0)" d="M155.35085 280.75418C155.35085 282.411 154.0077 283.75418 152.35085 283.75418C150.694 283.75418 149.35085 282.411 149.35085 280.75418C149.35085 279.09732 150.694 277.75418 152.35085 277.75418C154.0077 277.75418 155.35085 279.09732 155.35085 280.75418Z" fill-rule="nonzero"/><path fill="#000000" fill-opacity="0.0" clip-path="url(#id_0)" d="M166.01881 302.9459C166.01881 304.60275 164.67567 305.9459 163.01881 305.9459C161.36197 305.9459 160.01881 304.60275 160.01881 302.9459C160.01881 301.28906 161.36197 299.9459 163.01881 299.9459C164.67567 299.9459 166.01881 301.28906 166.01881 302.9459Z" fill-rule="nonzero"/><path fill="#000000" fill-opacity="0.0" clip-path="url(#id_0)" d="M193.21773 298.95337C193.21773 300.61023 191.87459 301.95337 190.21773 301.95337C188.56087 301.95337 187.21773 300.61023 187.21773 298.95337C187.21773 297.29654 188.56087 295.95337 190.21773 295.95337C191.87459 295.95337 193.21773 297.29654 193.21773 298.95337Z" fill-rule="nonzero"/><path fill="#000000" fill-opacity="0.0" clip-path="url(#id_0)" d="M197.89047 302.09897C197.89047 303.75583 196.54733 305.09897 194.89047 305.09897C193.23361 305.09897 191.89047 303.75583 191.89047 302.09897C191.89047 300.4421 193.23361 299.09897 194.89047 299.09897C196.54733 299.09897 197.89047 300.4421 197.89047 302.09897Z" fill-rule="nonzero"/><path fill="#000000" fill-opacity="0.0" clip-path="url(#id_0)" d="M200.40318 310.64203C200.40318 312.2989 199.06003 313.64203 197.40318 313.64203C195.74632 313.64203 194.40318 312.2989 194.40318 310.64203C194.40318 308.98517 195.74632 307.64203 197.40318 307.64203C199.06003 307.64203 200.40318 308.98517 200.40318 310.64203Z" fill-rule="nonzero"/><path fill="#000000" fill-opacity="0.0" clip-path="url(#id_0)" d="M242.45789 284.35907C242.45789 286.01593 241.11475 287.35907 239.45789 287.35907C237.80104 287.35907 236.45789 286.01593 236.45789 284.35907C236.45789 282.7022 237.80104 281.35907 239.45789 281.35907C241.11475 281.35907 242.45789 282.7022 242.45789 284.35907Z" fill-rule="nonzero"/><path fill="#000000" fill-opacity="0.0" clip-path="url(#id_0)" d="M263.30893 296.46768C263.30893 298.1245 261.96576 299.46768 260.30893 299.46768C258.65207 299.46768 257.30893 298.1245 257.30893 296.46768C257.30893 294.81082 258.65207 293.46768 260.30893 293.46768C261.96576 293.46768 263.30893 294.81082 263.30893 296.46768Z" fill-rule="nonzero"/><path fill="#000000" fill-opacity="0.0" clip-path="url(#id_0)" d="M282.44073 294.94653C282.44073 296.6034 281.0976 297.94653 279.44073 297.94653C277.78387 297.94653 276.44073 296.6034 276.44073 294.94653C276.44073 293.28967 277.78387 291.94653 279.44073 291.94653C281.0976 291.94653 282.44073 293.28967 282.44073 294.94653Z" fill-rule="nonzero"/><path fill="#000000" fill-opacity="0.0" clip-path="url(#id_0)" d="M370.78207 288.40698C370.78207 290.06384 369.43893 291.40698 367.78207 291.40698C366.1252 291.40698 364.78207 290.06384 364.78207 288.40698C364.78207 286.75012 366.1252 285.40698 367.78207 285.40698C369.43893 285.40698 370.78207 286.75012 370.78207 288.40698Z" fill-rule="nonzero"/><path fill="#000000" fill-opacity="0.0" clip-path="url(#id_0)" d="M373.64743 281.15594C373.64743 282.81277 372.3043 284.15594 370.64743 284.15594C368.99057 284.15594 367.64743 282.81277 367.64743 281.15594C367.64743 279.49908 368.99057 278.15594 370.64743 278.15594C372.3043 278.15594 373.64743 279.49908 373.64743 281.15594Z" fill-rule="nonzero"/><path fill="#000000" fill-opacity="0.0" clip-path="url(#id_0)" d="M385.15298 304.2379C385.15298 305.89474 383.8098 307.2379 382.15298 307.2379C380.49612 307.2379 379.15298 305.89474 379.15298 304.2379C379.15298 302.58105 380.49612 301.2379 382.15298 301.2379C383.8098 301.2379 385.15298 302.58105 385.15298 304.2379Z" fill-rule="nonzero"/><path fill="#000000" fill-opacity="0.0" clip-path="url(#id_0)" d="M480.28302 274.19693C480.28302 275.8538 478.93988 277.19693 477.28302 277.19693C475.6262 277.19693 474.28302 275.8538 474.28302 274.19693C474.28302 272.5401 475.6262 271.19693 477.28302 271.19693C478.93988 271.19693 480.28302 272.5401 480.28302 274.19693Z" fill-rule="nonzero"/><path fill="#000000" fill-opacity="0.0" clip-path="url(#id_0)" d="M572.72406 280.25552C572.72406 281.91238 571.3809 283.25552 569.72406 283.25552C568.0672 283.25552 566.72406 281.91238 566.72406 280.25552C566.72406 278.59866 568.0672 277.25552 569.72406 277.25552C571.3809 277.25552 572.72406 278.59866 572.72406 280.25552Z" fill-rule="nonzero"/><path fill="#000000" fill-opacity="0.0" clip-path="url(#id_0)" d="M584.45 276.1218C584.45 277.77866 583.1069 279.1218 581.45 279.1218C579.79315 279.1218 578.45 277.77866 578.45 276.1218C578.45 274.46494 579.79315 273.1218 581.45 273.1218C583.1069 273.1218 584.45 274.46494 584.45 276.1218Z" fill-rule="nonzero"/><path stroke="#000000" stroke-width="1.0" stroke-linecap="butt" d="M62.5 295.5L74.5 295.5" fill-rule="nonzero"/><path stroke="#000000" stroke-width="1.0" stroke-linecap="butt" d="M62.5 251.5L74.5 251.5" fill-rule="nonzero"/><path stroke="#000000" stroke-width="1.0" stroke-linecap="butt" d="M62.5 149.5L74.5 149.5" fill-rule="nonzero"/><path stroke="#000000" stroke-width="1.0" stroke-linecap="butt" d="M62.5 105.5L74.5 105.5" fill-rule="nonzero"/><path fill="#000000" d="M36.05 297.45255L37.159374 297.3588Q37.284374 298.1713 37.721874 298.57755Q38.175 298.9838 38.815624 298.9838Q39.565624 298.9838 40.096874 298.40567Q40.628124 297.82755 40.628124 296.89005Q40.628124 295.9838 40.1125 295.46817Q39.6125 294.93692 38.784374 294.93692Q38.284374 294.93692 37.8625 295.1713Q37.45625 295.40567 37.221874 295.76505L36.2375 295.64005L37.065624 291.2338L41.346874 291.2338L41.346874 292.2338L37.909374 292.2338L37.45625 294.5463Q38.221874 293.99942 39.065624 293.99942Q40.190624 293.99942 40.95625 294.78067Q41.7375 295.56192 41.7375 296.7963Q41.7375 297.95255 41.065624 298.81192Q40.2375 299.84317 38.815624 299.84317Q37.64375 299.84317 36.89375 299.18692Q36.159374 298.53067 36.05 297.45255ZM43.05 295.46817Q43.05 293.93692 43.3625 293.01505Q43.675 292.07755 44.284374 291.57755Q44.909374 291.07755 45.846874 291.07755Q46.534374 291.07755 47.05 291.3588Q47.58125 291.64005 47.925 292.1713Q48.26875 292.68692 48.45625 293.43692Q48.64375 294.18692 48.64375 295.46817Q48.64375 296.9838 48.33125 297.90567Q48.034374 298.82755 47.409374 299.34317Q46.8 299.84317 45.846874 299.84317Q44.6125 299.84317 43.89375 298.95255Q43.05 297.89005 43.05 295.46817ZM44.128124 295.46817Q44.128124 297.57755 44.628124 298.28067Q45.128124 298.9838 45.846874 298.9838Q46.58125 298.9838 47.065624 298.28067Q47.565624 297.57755 47.565624 295.46817Q47.565624 293.34317 47.065624 292.65567Q46.58125 291.95255 45.83125 291.95255Q45.1125 291.95255 44.675 292.56192Q44.128124 293.34317 44.128124 295.46817ZM50.05 295.46817Q50.05 293.93692 50.3625 293.01505Q50.675 292.07755 51.284374 291.57755Q51.909374 291.07755 52.846874 291.07755Q53.534374 291.07755 54.05 291.3588Q54.58125 291.64005 54.925 292.1713Q55.26875 292.68692 55.45625 293.43692Q55.64375 294.18692 55.64375 295.46817Q55.64375 296.9838 55.33125 297.90567Q55.034374 298.82755 54.409374 299.34317Q53.8 299.84317 52.846874 299.84317Q51.6125 299.84317 50.89375 298.95255Q50.05 297.89005 50.05 295.46817ZM51.128124 295.46817Q51.128124 297.57755 51.628124 298.28067Q52.128124 298.9838 52.846874 298.9838Q53.58125 298.9838 54.065624 298.28067Q54.565624 297.57755 54.565624 295.46817Q54.565624 293.34317 54.065624 292.65567Q53.58125 291.95255 52.83125 291.95255Q52.1125 291.95255 51.675 292.56192Q51.128124 293.34317 51.128124 295.46817Z" fill-rule="nonzero"/><path fill="#000000" d="M30.01875 255.77258L28.971874 255.77258L28.971874 249.05383Q28.58125 249.41321 27.95625 249.78821Q27.346874 250.14758 26.8625 250.31946L26.8625 249.30383Q27.7375 248.88196 28.39375 248.30383Q29.065624 247.71008 29.346874 247.14758L30.01875 247.14758L30.01875 255.77258ZM33.64375 255.77258L33.64375 254.56946L34.846874 254.56946L34.846874 255.77258L33.64375 255.77258ZM36.05 251.53821Q36.05 250.00696 36.3625 249.08508Q36.675 248.14758 37.284374 247.64758Q37.909374 247.14758 38.846874 247.14758Q39.534374 247.14758 40.05 247.42883Q40.58125 247.71008 40.925 248.24133Q41.26875 248.75696 41.45625 249.50696Q41.64375 250.25696 41.64375 251.53821Q41.64375 253.05383 41.33125 253.97571Q41.034374 254.89758 40.409374 255.41321Q39.8 255.91321 38.846874 255.91321Q37.6125 255.91321 36.89375 255.02258Q36.05 253.96008 36.05 251.53821ZM37.128124 251.53821Q37.128124 253.64758 37.628124 254.35071Q38.128124 255.05383 38.846874 255.05383Q39.58125 255.05383 40.065624 254.35071Q40.565624 253.64758 40.565624 251.53821Q40.565624 249.41321 40.065624 248.72571Q39.58125 248.02258 38.83125 248.02258Q38.1125 248.02258 37.675 248.63196Q37.128124 249.41321 37.128124 251.53821ZM43.05 251.53821Q43.05 250.00696 43.3625 249.08508Q43.675 248.14758 44.284374 247.64758Q44.909374 247.14758 45.846874 247.14758Q46.534374 247.14758 47.05 247.42883Q47.58125 247.71008 47.925 248.24133Q48.26875 248.75696 48.45625 249.50696Q48.64375 250.25696 48.64375 251.53821Q48.64375 253.05383 48.33125 253.97571Q48.034374 254.89758 47.409374 255.41321Q46.8 255.91321 45.846874 255.91321Q44.6125 255.91321 43.89375 255.02258Q43.05 253.96008 43.05 251.53821ZM44.128124 251.53821Q44.128124 253.64758 44.628124 254.35071Q45.128124 255.05383 45.846874 255.05383Q46.58125 255.05383 47.065624 254.35071Q47.565624 253.64758 47.565624 251.53821Q47.565624 249.41321 47.065624 248.72571Q46.58125 248.02258 45.83125 248.02258Q45.1125 248.02258 44.675 248.63196Q44.128124 249.41321 44.128124 251.53821ZM50.05 251.53821Q50.05 250.00696 50.3625 249.08508Q50.675 248.14758 51.284374 247.64758Q51.909374 247.14758 52.846874 247.14758Q53.534374 247.14758 54.05 247.42883Q54.58125 247.71008 54.925 248.24133Q55.26875 248.75696 55.45625 249.50696Q55.64375 250.25696 55.64375 251.53821Q55.64375 253.05383 55.33125 253.97571Q55.034374 254.89758 54.409374 255.41321Q53.8 255.91321 52.846874 255.91321Q51.6125 255.91321 50.89375 255.02258Q50.05 253.96008 50.05 251.53821ZM51.128124 251.53821Q51.128124 253.64758 51.628124 254.35071Q52.128124 255.05383 52.846874 255.05383Q53.58125 255.05383 54.065624 254.35071Q54.565624 253.64758 54.565624 251.53821Q54.565624 249.41321 54.065624 248.72571Q53.58125 248.02258 52.83125 248.02258Q52.1125 248.02258 51.675 248.63196Q51.128124 249.41321 51.128124 251.53821Z" fill-rule="nonzero"/><path fill="#000000" d="M26.05 151.5204L27.159374 151.42665Q27.284374 152.23915 27.721874 152.6454Q28.175 153.05165 28.815624 153.05165Q29.565624 153.05165 30.096874 152.47353Q30.628124 151.8954 30.628124 150.9579Q30.628124 150.05165 30.1125 149.53603Q29.6125 149.00478 28.784374 149.00478Q28.284374 149.00478 27.8625 149.23915Q27.45625 149.47353 27.221874 149.8329L26.2375 149.7079L27.065624 145.30165L31.346874 145.30165L31.346874 146.30165L27.909374 146.30165L27.45625 148.61415Q28.221874 148.06728 29.065624 148.06728Q30.190624 148.06728 30.95625 148.84853Q31.7375 149.62978 31.7375 150.86415Q31.7375 152.0204 31.065624 152.87978Q30.2375 153.91103 28.815624 153.91103Q27.64375 153.91103 26.89375 153.25478Q26.159374 152.59853 26.05 151.5204ZM33.64375 153.7704L33.64375 152.56728L34.846874 152.56728L34.846874 153.7704L33.64375 153.7704ZM36.05 149.53603Q36.05 148.00478 36.3625 147.0829Q36.675 146.1454 37.284374 145.6454Q37.909374 145.1454 38.846874 145.1454Q39.534374 145.1454 40.05 145.42665Q40.58125 145.7079 40.925 146.23915Q41.26875 146.75478 41.45625 147.50478Q41.64375 148.25478 41.64375 149.53603Q41.64375 151.05165 41.33125 151.97353Q41.034374 152.8954 40.409374 153.41103Q39.8 153.91103 38.846874 153.91103Q37.6125 153.91103 36.89375 153.0204Q36.05 151.9579 36.05 149.53603ZM37.128124 149.53603Q37.128124 151.6454 37.628124 152.34853Q38.128124 153.05165 38.846874 153.05165Q39.58125 153.05165 40.065624 152.34853Q40.565624 151.6454 40.565624 149.53603Q40.565624 147.41103 40.065624 146.72353Q39.58125 146.0204 38.83125 146.0204Q38.1125 146.0204 37.675 146.62978Q37.128124 147.41103 37.128124 149.53603ZM43.05 149.53603Q43.05 148.00478 43.3625 147.0829Q43.675 146.1454 44.284374 145.6454Q44.909374 145.1454 45.846874 145.1454Q46.534374 145.1454 47.05 145.42665Q47.58125 145.7079 47.925 146.23915Q48.26875 146.75478 48.45625 147.50478Q48.64375 148.25478 48.64375 149.53603Q48.64375 151.05165 48.33125 151.97353Q48.034374 152.8954 47.409374 153.41103Q46.8 153.91103 45.846874 153.91103Q44.6125 153.91103 43.89375 153.0204Q43.05 151.9579 43.05 149.53603ZM44.128124 149.53603Q44.128124 151.6454 44.628124 152.34853Q45.128124 153.05165 45.846874 153.05165Q46.58125 153.05165 47.065624 152.34853Q47.565624 151.6454 47.565624 149.53603Q47.565624 147.41103 47.065624 146.72353Q46.58125 146.0204 45.83125 146.0204Q45.1125 146.0204 44.675 146.62978Q44.128124 147.41103 44.128124 149.53603ZM50.05 149.53603Q50.05 148.00478 50.3625 147.0829Q50.675 146.1454 51.284374 145.6454Q51.909374 145.1454 52.846874 145.1454Q53.534374 145.1454 54.05 145.42665Q54.58125 145.7079 54.925 146.23915Q55.26875 146.75478 55.45625 147.50478Q55.64375 148.25478 55.64375 149.53603Q55.64375 151.05165 55.33125 151.97353Q55.034374 152.8954 54.409374 153.41103Q53.8 153.91103 52.846874 153.91103Q51.6125 153.91103 50.89375 153.0204Q50.05 151.9579 50.05 149.53603ZM51.128124 149.53603Q51.128124 151.6454 51.628124 152.34853Q52.128124 153.05165 52.846874 153.05165Q53.58125 153.05165 54.065624 152.34853Q54.565624 151.6454 54.565624 149.53603Q54.565624 147.41103 54.065624 146.72353Q53.58125 146.0204 52.83125 146.0204Q52.1125 146.0204 51.675 146.62978Q51.128124 147.41103 51.128124 149.53603Z" fill-rule="nonzero"/><path fill="#000000" d="M23.01875 109.84045L21.971874 109.84045L21.971874 103.1217Q21.58125 103.48107 20.95625 103.85607Q20.346874 104.21545 19.8625 104.38732L19.8625 103.3717Q20.7375 102.94982 21.39375 102.3717Q22.065624 101.77795 22.346874 101.21545L23.01875 101.21545L23.01875 109.84045ZM26.05 105.60607Q26.05 104.07482 26.3625 103.15295Q26.675 102.21545 27.284374 101.71545Q27.909374 101.21545 28.846874 101.21545Q29.534374 101.21545 30.05 101.4967Q30.58125 101.77795 30.925 102.3092Q31.26875 102.82482 31.45625 103.57482Q31.64375 104.32482 31.64375 105.60607Q31.64375 107.1217 31.33125 108.04357Q31.034374 108.96545 30.409374 109.48107Q29.8 109.98107 28.846874 109.98107Q27.6125 109.98107 26.89375 109.09045Q26.05 108.02795 26.05 105.60607ZM27.128124 105.60607Q27.128124 107.71545 27.628124 108.41857Q28.128124 109.1217 28.846874 109.1217Q29.58125 109.1217 30.065624 108.41857Q30.565624 107.71545 30.565624 105.60607Q30.565624 103.48107 30.065624 102.79357Q29.58125 102.09045 28.83125 102.09045Q28.1125 102.09045 27.675 102.69982Q27.128124 103.48107 27.128124 105.60607ZM33.64375 109.84045L33.64375 108.63732L34.846874 108.63732L34.846874 109.84045L33.64375 109.84045ZM36.05 105.60607Q36.05 104.07482 36.3625 103.15295Q36.675 102.21545 37.284374 101.71545Q37.909374 101.21545 38.846874 101.21545Q39.534374 101.21545 40.05 101.4967Q40.58125 101.77795 40.925 102.3092Q41.26875 102.82482 41.45625 103.57482Q41.64375 104.32482 41.64375 105.60607Q41.64375 107.1217 41.33125 108.04357Q41.034374 108.96545 40.409374 109.48107Q39.8 109.98107 38.846874 109.98107Q37.6125 109.98107 36.89375 109.09045Q36.05 108.02795 36.05 105.60607ZM37.128124 105.60607Q37.128124 107.71545 37.628124 108.41857Q38.128124 109.1217 38.846874 109.1217Q39.58125 109.1217 40.065624 108.41857Q40.565624 107.71545 40.565624 105.60607Q40.565624 103.48107 40.065624 102.79357Q39.58125 102.09045 38.83125 102.09045Q38.1125 102.09045 37.675 102.69982Q37.128124 103.48107 37.128124 105.60607ZM43.05 105.60607Q43.05 104.07482 43.3625 103.15295Q43.675 102.21545 44.284374 101.71545Q44.909374 101.21545 45.846874 101.21545Q46.534374 101.21545 47.05 101.4967Q47.58125 101.77795 47.925 102.3092Q48.26875 102.82482 48.45625 103.57482Q48.64375 104.32482 48.64375 105.60607Q48.64375 107.1217 48.33125 108.04357Q48.034374 108.96545 47.409374 109.48107Q46.8 109.98107 45.846874 109.98107Q44.6125 109.98107 43.89375 109.09045Q43.05 108.02795 43.05 105.60607ZM44.128124 105.60607Q44.128124 107.71545 44.628124 108.41857Q45.128124 109.1217 45.846874 109.1217Q46.58125 109.1217 47.065624 108.41857Q47.565624 107.71545 47.565624 105.60607Q47.565624 103.48107 47.065624 102.79357Q46.58125 102.09045 45.83125 102.09045Q45.1125 102.09045 44.675 102.69982Q44.128124 103.48107 44.128124 105.60607ZM50.05 105.60607Q50.05 104.07482 50.3625 103.15295Q50.675 102.21545 51.284374 101.71545Q51.909374 101.21545 52.846874 101.21545Q53.534374 101.21545 54.05 101.4967Q54.58125 101.77795 54.925 102.3092Q55.26875 102.82482 55.45625 103.57482Q55.64375 104.32482 55.64375 105.60607Q55.64375 107.1217 55.33125 108.04357Q55.034374 108.96545 54.409374 109.48107Q53.8 109.98107 52.846874 109.98107Q51.6125 109.98107 50.89375 109.09045Q50.05 108.02795 50.05 105.60607ZM51.128124 105.60607Q51.128124 107.71545 51.628124 108.41857Q52.128124 109.1217 52.846874 109.1217Q53.58125 109.1217 54.065624 108.41857Q54.565624 107.71545 54.565624 105.60607Q54.565624 103.48107 54.065624 102.79357Q53.58125 102.09045 52.83125 102.09045Q52.1125 102.09045 51.675 102.69982Q51.128124 103.48107 51.128124 105.60607Z" fill-rule="nonzero"/><path fill="#000000" d="M102.764496 341.98126L102.764496 340.96564L108.326996 340.96564L108.326996 341.79376Q107.514496 342.66876 106.701996 344.1219Q105.90512 345.5594 105.46762 347.09064Q105.139496 348.16876 105.06137 349.45L103.96762 349.45Q103.983246 348.4344 104.358246 346.9969Q104.74887 345.5594 105.451996 344.23126Q106.170746 342.90314 106.983246 341.98126L102.764496 341.98126ZM110.295746 349.45L110.295746 348.2469L111.49887 348.2469L111.49887 349.45L110.295746 349.45ZM112.701996 347.2L113.81137 347.10626Q113.93637 347.91876 114.37387 348.325Q114.826996 348.73126 115.46762 348.73126Q116.21762 348.73126 116.74887 348.15314Q117.28012 347.575 117.28012 346.6375Q117.28012 345.73126 116.764496 345.21564Q116.264496 344.6844 115.43637 344.6844Q114.93637 344.6844 114.514496 344.91876Q114.108246 345.15314 113.87387 345.5125L112.889496 345.3875L113.71762 340.98126L117.99887 340.98126L117.99887 341.98126L114.56137 341.98126L114.108246 344.29376Q114.87387 343.7469 115.71762 343.7469Q116.84262 343.7469 117.608246 344.52814Q118.389496 345.3094 118.389496 346.54376Q118.389496 347.7 117.71762 348.5594Q116.889496 349.59064 115.46762 349.59064Q114.295746 349.59064 113.545746 348.9344Q112.81137 348.27814 112.701996 347.2ZM119.701996 345.21564Q119.701996 343.6844 120.014496 342.7625Q120.326996 341.825 120.93637 341.325Q121.56137 340.825 122.49887 340.825Q123.18637 340.825 123.701996 341.10626Q124.233246 341.3875 124.576996 341.91876Q124.920746 342.4344 125.108246 343.1844Q125.295746 343.9344 125.295746 345.21564Q125.295746 346.73126 124.983246 347.65314Q124.68637 348.575 124.06137 349.09064Q123.451996 349.59064 122.49887 349.59064Q121.264496 349.59064 120.545746 348.7Q119.701996 347.6375 119.701996 345.21564ZM120.78012 345.21564Q120.78012 347.325 121.28012 348.02814Q121.78012 348.73126 122.49887 348.73126Q123.233246 348.73126 123.71762 348.02814Q124.21762 347.325 124.21762 345.21564Q124.21762 343.09064 123.71762 342.40314Q123.233246 341.7 122.483246 341.7Q121.764496 341.7 121.326996 342.3094Q120.78012 343.09064 120.78012 345.21564ZM126.701996 345.21564Q126.701996 343.6844 127.014496 342.7625Q127.326996 341.825 127.93637 341.325Q128.56137 340.825 129.49887 340.825Q130.18637 340.825 130.702 341.10626Q131.23325 341.3875 131.577 341.91876Q131.92075 342.4344 132.10825 343.1844Q132.29575 343.9344 132.29575 345.21564Q132.29575 346.73126 131.98325 347.65314Q131.68637 348.575 131.06137 349.09064Q130.452 349.59064 129.49887 349.59064Q128.2645 349.59064 127.545746 348.7Q126.701996 347.6375 126.701996 345.21564ZM127.78012 345.21564Q127.78012 347.325 128.28012 348.02814Q128.78012 348.73126 129.49887 348.73126Q130.23325 348.73126 130.71762 348.02814Q131.21762 347.325 131.21762 345.21564Q131.21762 343.09064 130.71762 342.40314Q130.23325 341.7 129.48325 341.7Q128.7645 341.7 128.327 342.3094Q127.78012 343.09064 127.78012 345.21564Z" fill-rule="nonzero"/><path fill="#000000" d="M213.37703 349.45L212.33015 349.45L212.33015 342.73126Q211.93953 343.09064 211.31453 343.46564Q210.70515 343.825 210.22078 343.9969L210.22078 342.98126Q211.09578 342.5594 211.75203 341.98126Q212.4239 341.3875 212.70515 340.825L213.37703 340.825L213.37703 349.45ZM216.40828 345.21564Q216.40828 343.6844 216.72078 342.7625Q217.03328 341.825 217.64265 341.325Q218.26765 340.825 219.20515 340.825Q219.89265 340.825 220.40828 341.10626Q220.93953 341.3875 221.28328 341.91876Q221.62703 342.4344 221.81453 343.1844Q222.00203 343.9344 222.00203 345.21564Q222.00203 346.73126 221.68953 347.65314Q221.39265 348.575 220.76765 349.09064Q220.15828 349.59064 219.20515 349.59064Q217.97078 349.59064 217.25203 348.7Q216.40828 347.6375 216.40828 345.21564ZM217.4864 345.21564Q217.4864 347.325 217.9864 348.02814Q218.4864 348.73126 219.20515 348.73126Q219.93953 348.73126 220.4239 348.02814Q220.9239 347.325 220.9239 345.21564Q220.9239 343.09064 220.4239 342.40314Q219.93953 341.7 219.18953 341.7Q218.47078 341.7 218.03328 342.3094Q217.4864 343.09064 217.4864 345.21564ZM224.00203 349.45L224.00203 348.2469L225.20515 348.2469L225.20515 349.45L224.00203 349.45ZM226.40828 345.21564Q226.40828 343.6844 226.72078 342.7625Q227.03328 341.825 227.64265 341.325Q228.26765 340.825 229.20515 340.825Q229.89265 340.825 230.40828 341.10626Q230.93953 341.3875 231.28328 341.91876Q231.62703 342.4344 231.81453 343.1844Q232.00203 343.9344 232.00203 345.21564Q232.00203 346.73126 231.68953 347.65314Q231.39265 348.575 230.76765 349.09064Q230.15828 349.59064 229.20515 349.59064Q227.97078 349.59064 227.25203 348.7Q226.40828 347.6375 226.40828 345.21564ZM227.4864 345.21564Q227.4864 347.325 227.9864 348.02814Q228.4864 348.73126 229.20515 348.73126Q229.93953 348.73126 230.4239 348.02814Q230.9239 347.325 230.9239 345.21564Q230.9239 343.09064 230.4239 342.40314Q229.93953 341.7 229.18953 341.7Q228.47078 341.7 228.03328 342.3094Q227.4864 343.09064 227.4864 345.21564ZM233.40828 345.21564Q233.40828 343.6844 233.72078 342.7625Q234.03328 341.825 234.64265 341.325Q235.26765 340.825 236.20515 340.825Q236.89265 340.825 237.40828 341.10626Q237.93953 341.3875 238.28328 341.91876Q238.62703 342.4344 238.81453 343.1844Q239.00203 343.9344 239.00203 345.21564Q239.00203 346.73126 238.68953 347.65314Q238.39265 348.575 237.76765 349.09064Q237.15828 349.59064 236.20515 349.59064Q234.97078 349.59064 234.25203 348.7Q233.40828 347.6375 233.40828 345.21564ZM234.4864 345.21564Q234.4864 347.325 234.9864 348.02814Q235.4864 348.73126 236.20515 348.73126Q236.93953 348.73126 237.4239 348.02814Q237.9239 347.325 237.9239 345.21564Q237.9239 343.09064 237.4239 342.40314Q236.93953 341.7 236.18953 341.7Q235.47078 341.7 235.03328 342.3094Q234.4864 343.09064 234.4864 345.21564ZM240.40828 345.21564Q240.40828 343.6844 240.72078 342.7625Q241.03328 341.825 241.64265 341.325Q242.26765 340.825 243.20515 340.825Q243.89265 340.825 244.40828 341.10626Q244.93953 341.3875 245.28328 341.91876Q245.62703 342.4344 245.81453 343.1844Q246.00203 343.9344 246.00203 345.21564Q246.00203 346.73126 245.68953 347.65314Q245.39265 348.575 244.76765 349.09064Q244.15828 349.59064 243.20515 349.59064Q241.97078 349.59064 241.25203 348.7Q240.40828 347.6375 240.40828 345.21564ZM241.4864 345.21564Q241.4864 347.325 241.9864 348.02814Q242.4864 348.73126 243.20515 348.73126Q243.93953 348.73126 244.4239 348.02814Q244.9239 347.325 244.9239 345.21564Q244.9239 343.09064 244.4239 342.40314Q243.93953 341.7 243.18953 341.7Q242.47078 341.7 242.03328 342.3094Q241.4864 343.09064 241.4864 345.21564Z" fill-rule="nonzero"/><path fill="#000000" d="M323.58328 349.45L322.5364 349.45L322.5364 342.73126Q322.14578 343.09064 321.52078 343.46564Q320.9114 343.825 320.42703 343.9969L320.42703 342.98126Q321.30203 342.5594 321.95828 341.98126Q322.63016 341.3875 322.9114 340.825L323.58328 340.825L323.58328 349.45ZM332.1614 348.4344L332.1614 349.45L326.4739 349.45Q326.4739 349.075 326.5989 348.71564Q326.81766 348.1375 327.2864 347.575Q327.77078 347.0125 328.67703 346.27814Q330.08328 345.1219 330.56766 344.45Q331.06766 343.77814 331.06766 343.1844Q331.06766 342.5594 330.61453 342.1375Q330.1614 341.7 329.44266 341.7Q328.67703 341.7 328.2239 342.15314Q327.77078 342.60626 327.75516 343.41876L326.67703 343.3094Q326.7864 342.09064 327.50516 341.46564Q328.23953 340.825 329.4739 340.825Q330.70828 340.825 331.42703 341.5125Q332.14578 342.2 332.14578 343.21564Q332.14578 343.73126 331.92703 344.23126Q331.7239 344.71564 331.2239 345.27814Q330.73953 345.825 329.61453 346.77814Q328.6614 347.575 328.38016 347.8719Q328.11453 348.15314 327.94266 348.4344L332.1614 348.4344ZM334.20828 349.45L334.20828 348.2469L335.4114 348.2469L335.4114 349.45L334.20828 349.45ZM336.61453 347.2L337.7239 347.10626Q337.8489 347.91876 338.2864 348.325Q338.73953 348.73126 339.38016 348.73126Q340.13016 348.73126 340.6614 348.15314Q341.19266 347.575 341.19266 346.6375Q341.19266 345.73126 340.67703 345.21564Q340.17703 344.6844 339.3489 344.6844Q338.8489 344.6844 338.42703 344.91876Q338.02078 345.15314 337.7864 345.5125L336.80203 345.3875L337.63016 340.98126L341.9114 340.98126L341.9114 341.98126L338.4739 341.98126L338.02078 344.29376Q338.7864 343.7469 339.63016 343.7469Q340.75516 343.7469 341.52078 344.52814Q342.30203 345.3094 342.30203 346.54376Q342.30203 347.7 341.63016 348.5594Q340.80203 349.59064 339.38016 349.59064Q338.20828 349.59064 337.45828 348.9344Q336.7239 348.27814 336.61453 347.2ZM343.61453 345.21564Q343.61453 343.6844 343.92703 342.7625Q344.23953 341.825 344.8489 341.325Q345.4739 340.825 346.4114 340.825Q347.0989 340.825 347.61453 341.10626Q348.14578 341.3875 348.48953 341.91876Q348.83328 342.4344 349.02078 343.1844Q349.20828 343.9344 349.20828 345.21564Q349.20828 346.73126 348.89578 347.65314Q348.5989 348.575 347.9739 349.09064Q347.36453 349.59064 346.4114 349.59064Q345.17703 349.59064 344.45828 348.7Q343.61453 347.6375 343.61453 345.21564ZM344.69266 345.21564Q344.69266 347.325 345.19266 348.02814Q345.69266 348.73126 346.4114 348.73126Q347.14578 348.73126 347.63016 348.02814Q348.13016 347.325 348.13016 345.21564Q348.13016 343.09064 347.63016 342.40314Q347.14578 341.7 346.39578 341.7Q345.67703 341.7 345.23953 342.3094Q344.69266 343.09064 344.69266 345.21564ZM350.61453 345.21564Q350.61453 343.6844 350.92703 342.7625Q351.23953 341.825 351.8489 341.325Q352.4739 340.825 353.4114 340.825Q354.0989 340.825 354.61453 341.10626Q355.14578 341.3875 355.48953 341.91876Q355.83328 342.4344 356.02078 343.1844Q356.20828 343.9344 356.20828 345.21564Q356.20828 346.73126 355.89578 347.65314Q355.5989 348.575 354.9739 349.09064Q354.36453 349.59064 353.4114 349.59064Q352.17703 349.59064 351.45828 348.7Q350.61453 347.6375 350.61453 345.21564ZM351.69266 345.21564Q351.69266 347.325 352.19266 348.02814Q352.69266 348.73126 353.4114 348.73126Q354.14578 348.73126 354.63016 348.02814Q355.13016 347.325 355.13016 345.21564Q355.13016 343.09064 354.63016 342.40314Q354.14578 341.7 353.39578 341.7Q352.67703 341.7 352.23953 342.3094Q351.69266 343.09064 351.69266 345.21564Z" fill-rule="nonzero"/><path fill="#000000" d="M433.78958 349.45L432.7427 349.45L432.7427 342.73126Q432.35208 343.09064 431.72708 343.46564Q431.1177 343.825 430.63333 343.9969L430.63333 342.98126Q431.50833 342.5594 432.16458 341.98126Q432.83646 341.3875 433.1177 340.825L433.78958 340.825L433.78958 349.45ZM436.82083 347.2L437.9302 347.10626Q438.0552 347.91876 438.4927 348.325Q438.94583 348.73126 439.58646 348.73126Q440.33646 348.73126 440.8677 348.15314Q441.39896 347.575 441.39896 346.6375Q441.39896 345.73126 440.88333 345.21564Q440.38333 344.6844 439.5552 344.6844Q439.0552 344.6844 438.63333 344.91876Q438.22708 345.15314 437.9927 345.5125L437.00833 345.3875L437.83646 340.98126L442.1177 340.98126L442.1177 341.98126L438.6802 341.98126L438.22708 344.29376Q438.9927 343.7469 439.83646 343.7469Q440.96146 343.7469 441.72708 344.52814Q442.50833 345.3094 442.50833 346.54376Q442.50833 347.7 441.83646 348.5594Q441.00833 349.59064 439.58646 349.59064Q438.41458 349.59064 437.66458 348.9344Q436.9302 348.27814 436.82083 347.2ZM444.41458 349.45L444.41458 348.2469L445.6177 348.2469L445.6177 349.45L444.41458 349.45ZM446.82083 345.21564Q446.82083 343.6844 447.13333 342.7625Q447.44583 341.825 448.0552 341.325Q448.6802 340.825 449.6177 340.825Q450.3052 340.825 450.82083 341.10626Q451.35208 341.3875 451.69583 341.91876Q452.03958 342.4344 452.22708 343.1844Q452.41458 343.9344 452.41458 345.21564Q452.41458 346.73126 452.10208 347.65314Q451.8052 348.575 451.1802 349.09064Q450.57083 349.59064 449.6177 349.59064Q448.38333 349.59064 447.66458 348.7Q446.82083 347.6375 446.82083 345.21564ZM447.89896 345.21564Q447.89896 347.325 448.39896 348.02814Q448.89896 348.73126 449.6177 348.73126Q450.35208 348.73126 450.83646 348.02814Q451.33646 347.325 451.33646 345.21564Q451.33646 343.09064 450.83646 342.40314Q450.35208 341.7 449.60208 341.7Q448.88333 341.7 448.44583 342.3094Q447.89896 343.09064 447.89896 345.21564ZM453.82083 345.21564Q453.82083 343.6844 454.13333 342.7625Q454.44583 341.825 455.0552 341.325Q455.6802 340.825 456.6177 340.825Q457.3052 340.825 457.82083 341.10626Q458.35208 341.3875 458.69583 341.91876Q459.03958 342.4344 459.22708 343.1844Q459.41458 343.9344 459.41458 345.21564Q459.41458 346.73126 459.10208 347.65314Q458.8052 348.575 458.1802 349.09064Q457.57083 349.59064 456.6177 349.59064Q455.38333 349.59064 454.66458 348.7Q453.82083 347.6375 453.82083 345.21564ZM454.89896 345.21564Q454.89896 347.325 455.39896 348.02814Q455.89896 348.73126 456.6177 348.73126Q457.35208 348.73126 457.83646 348.02814Q458.33646 347.325 458.33646 345.21564Q458.33646 343.09064 457.83646 342.40314Q457.35208 341.7 456.60208 341.7Q455.88333 341.7 455.44583 342.3094Q454.89896 343.09064 454.89896 345.21564ZM460.82083 345.21564Q460.82083 343.6844 461.13333 342.7625Q461.44583 341.825 462.0552 341.325Q462.6802 340.825 463.6177 340.825Q464.3052 340.825 464.82083 341.10626Q465.35208 341.3875 465.69583 341.91876Q466.03958 342.4344 466.22708 343.1844Q466.41458 343.9344 466.41458 345.21564Q466.41458 346.73126 466.10208 347.65314Q465.8052 348.575 465.1802 349.09064Q464.57083 349.59064 463.6177 349.59064Q462.38333 349.59064 461.66458 348.7Q460.82083 347.6375 460.82083 345.21564ZM461.89896 345.21564Q461.89896 347.325 462.39896 348.02814Q462.89896 348.73126 463.6177 348.73126Q464.35208 348.73126 464.83646 348.02814Q465.33646 347.325 465.33646 345.21564Q465.33646 343.09064 464.83646 342.40314Q464.35208 341.7 463.60208 341.7Q462.88333 341.7 462.44583 342.3094Q461.89896 343.09064 461.89896 345.21564Z" fill-rule="nonzero"/><path fill="#000000" d="M543.99585 349.45L542.949 349.45L542.949 342.73126Q542.55835 343.09064 541.93335 343.46564Q541.324 343.825 540.8396 343.9969L540.8396 342.98126Q541.7146 342.5594 542.37085 341.98126Q543.0427 341.3875 543.324 340.825L543.99585 340.825L543.99585 349.45ZM547.0896 341.98126L547.0896 340.96564L552.6521 340.96564L552.6521 341.79376Q551.8396 342.66876 551.0271 344.1219Q550.2302 345.5594 549.7927 347.09064Q549.4646 348.16876 549.3865 349.45L548.2927 349.45Q548.30835 348.4344 548.68335 346.9969Q549.074 345.5594 549.7771 344.23126Q550.49585 342.90314 551.30835 341.98126L547.0896 341.98126ZM554.62085 349.45L554.62085 348.2469L555.824 348.2469L555.824 349.45L554.62085 349.45ZM557.0271 347.2L558.1365 347.10626Q558.2615 347.91876 558.699 348.325Q559.1521 348.73126 559.7927 348.73126Q560.5427 348.73126 561.074 348.15314Q561.6052 347.575 561.6052 346.6375Q561.6052 345.73126 561.0896 345.21564Q560.5896 344.6844 559.7615 344.6844Q559.2615 344.6844 558.8396 344.91876Q558.43335 345.15314 558.199 345.5125L557.2146 345.3875L558.0427 340.98126L562.324 340.98126L562.324 341.98126L558.8865 341.98126L558.43335 344.29376Q559.199 343.7469 560.0427 343.7469Q561.1677 343.7469 561.93335 344.52814Q562.7146 345.3094 562.7146 346.54376Q562.7146 347.7 562.0427 348.5594Q561.2146 349.59064 559.7927 349.59064Q558.62085 349.59064 557.87085 348.9344Q557.1365 348.27814 557.0271 347.2ZM564.0271 345.21564Q564.0271 343.6844 564.3396 342.7625Q564.6521 341.825 565.2615 341.325Q565.8865 340.825 566.824 340.825Q567.5115 340.825 568.0271 341.10626Q568.55835 341.3875 568.9021 341.91876Q569.24585 342.4344 569.43335 343.1844Q569.62085 343.9344 569.62085 345.21564Q569.62085 346.73126 569.30835 347.65314Q569.0115 348.575 568.3865 349.09064Q567.7771 349.59064 566.824 349.59064Q565.5896 349.59064 564.87085 348.7Q564.0271 347.6375 564.0271 345.21564ZM565.1052 345.21564Q565.1052 347.325 565.6052 348.02814Q566.1052 348.73126 566.824 348.73126Q567.55835 348.73126 568.0427 348.02814Q568.5427 347.325 568.5427 345.21564Q568.5427 343.09064 568.0427 342.40314Q567.55835 341.7 566.80835 341.7Q566.0896 341.7 565.6521 342.3094Q565.1052 343.09064 565.1052 345.21564ZM571.0271 345.21564Q571.0271 343.6844 571.3396 342.7625Q571.6521 341.825 572.2615 341.325Q572.8865 340.825 573.824 340.825Q574.5115 340.825 575.0271 341.10626Q575.55835 341.3875 575.9021 341.91876Q576.24585 342.4344 576.43335 343.1844Q576.62085 343.9344 576.62085 345.21564Q576.62085 346.73126 576.30835 347.65314Q576.0115 348.575 575.3865 349.09064Q574.7771 349.59064 573.824 349.59064Q572.5896 349.59064 571.87085 348.7Q571.0271 347.6375 571.0271 345.21564ZM572.1052 345.21564Q572.1052 347.325 572.6052 348.02814Q573.1052 348.73126 573.824 348.73126Q574.55835 348.73126 575.0427 348.02814Q575.5427 347.325 575.5427 345.21564Q575.5427 343.09064 575.0427 342.40314Q574.55835 341.7 573.80835 341.7Q573.0896 341.7 572.6521 342.3094Q572.1052 343.09064 572.1052 345.21564Z" fill-rule="nonzero"/><path stroke="#4285f4" stroke-width="4.0" stroke-linecap="butt" d="M240.5 25.55L252.5 25.55" fill-rule="nonzero"/><path fill="#1a1a1a" d="M261.42188 29.55L261.42188 20.95625L264.39062 20.95625Q265.39062 20.95625 265.92188 21.08125Q266.65625 21.253124 267.17188 21.690624Q267.85938 22.26875 268.1875 23.175Q268.53125 24.065624 268.53125 25.20625Q268.53125 26.190624 268.29688 26.940624Q268.07812 27.690624 267.71875 28.190624Q267.35938 28.690624 266.92188 28.971874Q266.5 29.253124 265.90625 29.409374Q265.3125 29.55 264.53125 29.55L261.42188 29.55ZM262.5625 28.534374L264.39062 28.534374Q265.25 28.534374 265.73438 28.378124Q266.21875 28.221874 266.5 27.925Q266.90625 27.534374 267.125 26.846874Q267.35938 26.159374 267.35938 25.190624Q267.35938 23.846874 266.90625 23.128124Q266.46875 22.39375 265.84375 22.14375Q265.375 21.971874 264.375 21.971874L262.5625 21.971874L262.5625 28.534374ZM270.29688 22.175L270.29688 20.95625L271.35938 20.95625L271.35938 22.175L270.29688 22.175ZM270.29688 29.55L270.29688 23.33125L271.35938 23.33125L271.35938 29.55L270.29688 29.55ZM273.28125 29.55L273.28125 23.33125L274.23438 23.33125L274.23438 24.26875Q274.59375 23.6125 274.89062 23.409374Q275.20312 23.190624 275.57812 23.190624Q276.10938 23.190624 276.65625 23.51875L276.29688 24.503124Q275.90625 24.26875 275.53125 24.26875Q275.17188 24.26875 274.89062 24.4875Q274.625 24.690624 274.51562 25.065624Q274.32812 25.628124 274.32812 26.284374L274.32812 29.55L273.28125 29.55ZM281.54688 27.55L282.64062 27.675Q282.39062 28.628124 281.6875 29.159374Q280.98438 29.690624 279.90625 29.690624Q278.54688 29.690624 277.73438 28.846874Q276.9375 28.003124 276.9375 26.4875Q276.9375 24.925 277.75 24.065624Q278.5625 23.190624 279.84375 23.190624Q281.09375 23.190624 281.875 24.034374Q282.67188 24.878124 282.67188 26.425Q282.67188 26.51875 282.67188 26.70625L278.03125 26.70625Q278.09375 27.7375 278.60938 28.284374Q279.125 28.815624 279.90625 28.815624Q280.48438 28.815624 280.89062 28.51875Q281.3125 28.20625 281.54688 27.55ZM278.09375 25.846874L281.5625 25.846874Q281.5 25.05 281.17188 24.659374Q280.65625 24.05 279.85938 24.05Q279.125 24.05 278.625 24.534374Q278.14062 25.01875 278.09375 25.846874ZM288.35938 27.26875L289.39062 27.409374Q289.21875 28.471874 288.51562 29.08125Q287.8125 29.690624 286.79688 29.690624Q285.51562 29.690624 284.73438 28.8625Q283.96875 28.01875 283.96875 26.45625Q283.96875 25.45625 284.29688 24.70625Q284.64062 23.940624 285.3125 23.565624Q286.0 23.190624 286.8125 23.190624Q287.8125 23.190624 288.45312 23.70625Q289.10938 24.20625 289.29688 25.159374L288.26562 25.315624Q288.125 24.690624 287.75 24.378124Q287.375 24.05 286.84375 24.05Q286.04688 24.05 285.54688 24.628124Q285.04688 25.190624 285.04688 26.425Q285.04688 27.690624 285.53125 28.253124Q286.01562 28.815624 286.78125 28.815624Q287.40625 28.815624 287.8125 28.440624Q288.23438 28.065624 288.35938 27.26875ZM292.59375 28.6125L292.75 29.534374Q292.29688 29.628124 291.95312 29.628124Q291.375 29.628124 291.0625 29.45625Q290.75 29.26875 290.60938 28.971874Q290.48438 28.675 290.48438 27.721874L290.48438 24.14375L289.71875 24.14375L289.71875 23.33125L290.48438 23.33125L290.48438 21.784374L291.53125 21.159374L291.53125 23.33125L292.59375 23.33125L292.59375 24.14375L291.53125 24.14375L291.53125 27.784374Q291.53125 28.2375 291.57812 28.3625Q291.64062 28.4875 291.76562 28.565624Q291.89062 28.64375 292.125 28.64375Q292.3125 28.64375 292.59375 28.6125Z" fill-rule="nonzero"/><path stroke="#ea4335" stroke-width="4.0" stroke-linecap="butt" d="M308.5 25.55L320.5 25.55" fill-rule="nonzero"/><path fill="#1a1a1a" d="M329.07812 25.3625Q329.07812 23.221874 330.21875 22.01875Q331.375 20.8 333.1875 20.8Q334.39062 20.8 335.34375 21.378124Q336.29688 21.940624 336.79688 22.95625Q337.29688 23.971874 337.29688 25.26875Q337.29688 26.565624 336.76562 27.596874Q336.23438 28.628124 335.26562 29.159374Q334.3125 29.690624 333.1875 29.690624Q331.96875 29.690624 331.01562 29.1125Q330.0625 28.51875 329.5625 27.51875Q329.07812 26.503124 329.07812 25.3625ZM330.25 25.378124Q330.25 26.940624 331.07812 27.83125Q331.92188 28.721874 333.1875 28.721874Q334.46875 28.721874 335.29688 27.83125Q336.125 26.925 336.125 25.253124Q336.125 24.20625 335.76562 23.425Q335.42188 22.64375 334.73438 22.221874Q334.04688 21.784374 333.20312 21.784374Q332.0 21.784374 331.125 22.6125Q330.25 23.440624 330.25 25.378124ZM338.28125 29.55L338.28125 23.33125L339.23438 23.33125L339.23438 24.26875Q339.59375 23.6125 339.89062 23.409374Q340.20312 23.190624 340.57812 23.190624Q341.10938 23.190624 341.65625 23.51875L341.29688 24.503124Q340.90625 24.26875 340.53125 24.26875Q340.17188 24.26875 339.89062 24.4875Q339.625 24.690624 339.51562 25.065624Q339.32812 25.628124 339.32812 26.284374L339.32812 29.55L338.28125 29.55ZM346.32812 29.55L346.32812 28.76875Q345.73438 29.690624 344.59375 29.690624Q343.84375 29.690624 343.21875 29.284374Q342.59375 28.8625 342.25 28.128124Q341.90625 27.39375 341.90625 26.440624Q341.90625 25.51875 342.21875 24.753124Q342.53125 23.9875 343.15625 23.596874Q343.78125 23.190624 344.54688 23.190624Q345.10938 23.190624 345.54688 23.425Q345.98438 23.659374 346.26562 24.034374L346.26562 20.95625L347.3125 20.95625L347.3125 29.55L346.32812 29.55ZM343.0 26.440624Q343.0 27.64375 343.5 28.2375Q344.0 28.815624 344.6875 28.815624Q345.375 28.815624 345.85938 28.253124Q346.34375 27.690624 346.34375 26.534374Q346.34375 25.253124 345.84375 24.659374Q345.35938 24.065624 344.64062 24.065624Q343.9375 24.065624 343.46875 24.64375Q343.0 25.20625 343.0 26.440624ZM353.54688 27.55L354.64062 27.675Q354.39062 28.628124 353.6875 29.159374Q352.98438 29.690624 351.90625 29.690624Q350.54688 29.690624 349.73438 28.846874Q348.9375 28.003124 348.9375 26.4875Q348.9375 24.925 349.75 24.065624Q350.5625 23.190624 351.84375 23.190624Q353.09375 23.190624 353.875 24.034374Q354.67188 24.878124 354.67188 26.425Q354.67188 26.51875 354.67188 26.70625L350.03125 26.70625Q350.09375 27.7375 350.60938 28.284374Q351.125 28.815624 351.90625 28.815624Q352.48438 28.815624 352.89062 28.51875Q353.3125 28.20625 353.54688 27.55ZM350.09375 25.846874L353.5625 25.846874Q353.5 25.05 353.17188 24.659374Q352.65625 24.05 351.85938 24.05Q351.125 24.05 350.625 24.534374Q350.14062 25.01875 350.09375 25.846874ZM356.28125 29.55L356.28125 23.33125L357.23438 23.33125L357.23438 24.26875Q357.59375 23.6125 357.89062 23.409374Q358.20312 23.190624 358.57812 23.190624Q359.10938 23.190624 359.65625 23.51875L359.29688 24.503124Q358.90625 24.26875 358.53125 24.26875Q358.17188 24.26875 357.89062 24.4875Q357.625 24.690624 357.51562 25.065624Q357.32812 25.628124 357.32812 26.284374L357.32812 29.55L356.28125 29.55Z" fill-rule="nonzero"/></svg>