<svg version="1.1" viewBox="0.0 0.0 600.0 371.0" fill="none" stroke="none" stroke-linecap="square" stroke-miterlimit="10" width="600" height="371" xmlns:xlink="http://www.w3.org/1999/xlink" xmlns="http://www.w3.org/2000/svg"><path fill="#ffffff" d="M0 0L600.0 0L600.0 371.0L0 371.0L0 0Z" fill-rule="nonzero"/><path stroke="#cccccc" stroke-width="1.0" stroke-linecap="butt" d="M139.5 51.5L139.5 332.5" fill-rule="nonzero"/><path stroke="#cccccc" stroke-width="1.0" stroke-linecap="butt" d="M244.5 51.5L244.5 332.5" fill-rule="nonzero"/><path stroke="#cccccc" stroke-width="1.0" stroke-linecap="butt" d="M349.5 51.5L349.5 332.5" fill-rule="nonzero"/><path stroke="#cccccc" stroke-width="1.0" stroke-linecap="butt" d="M454.5 51.5L454.5 332.5" fill-rule="nonzero"/><path stroke="#cccccc" stroke-width="1.0" stroke-linecap="butt" d="M559.5 51.5L559.5 332.5" fill-rule="nonzero"/><path stroke="#cccccc" stroke-width="1.0" stroke-linecap="butt" d="M92.5 311.5L581.5 311.5" fill-rule="nonzero"/><path stroke="#cccccc" stroke-width="1.0" stroke-linecap="butt" d="M92.5 199.5L581.5 199.5" fill-rule="nonzero"/><path stroke="#cccccc" stroke-width="1.0" stroke-linecap="butt" d="M92.5 151.5L581.5 151.5" fill-rule="nonzero"/><path stroke="#000000" stroke-width="1.0" stroke-linecap="butt" d="M92.5 332.5L92.5 51.5" fill-rule="nonzero"/><clipPath id="id_0"><path d="M92.55 51.916668L581.45 51.916668L581.45 332.45L92.55 332.45L92.55 51.916668Z" clip-rule="nonzero"/></clipPath><path stroke="#4285f4" stroke-width="2.0" stroke-linecap="butt" clip-path="url(#id_0)" d="M92.55 109.16044L97.17217 109.16044L99.189125 109.12577L119.69477 99.97114L133.5613 100.43103L138.77174 132.11424L142.04929 99.659164L159.78163 129.84024L172.42958 86.98824L182.59836 91.05179L208.52457 94.7605L212.97865 95.74119L215.37378 121.18717L255.46065 88.83884L275.336 87.25106L293.57257 78.37722L377.78018 58.009506L380.51147 71.17846L391.47864 105.0535L482.1573 53.471073L570.27277 51.916668L581.45 51.916668" fill-rule="nonzero"/><path stroke="#ea4335" stroke-width="2.0" stroke-linecap="butt" clip-path="url(#id_0)" d="M92.55 325.46658L97.17217 324.91718L99.189125 324.66635L119.69477 317.46222L133.5613 316.315L138.77174 332.45L142.04929 315.0076L159.78163 328.85767L172.42958 305.2523L182.59836 306.4436L208.52457 306.06857L212.97865 306.14615L215.37378 319.00388L255.46065 299.08636L275.336 296.69815L293.57257 290.94754L377.78018 274.83582L380.51147 281.4094L391.47864 296.84616L482.1573 266.73718L570.27277 261.62512L581.45 261.09613" fill-rule="nonzero"/><path fill="#000000" fill-opacity="0.0" clip-path="url(#id_0)" d="M95.55 109.16044C95.55 110.81729 94.206856 112.16044 92.55 112.16044C90.89314 112.16044 89.55 110.81729 89.55 109.16044C89.55 107.503586 90.89314 106.16044 92.55 106.16044C94.206856 106.16044 95.55 107.503586 95.55 109.16044Z" fill-rule="nonzero"/><path fill="#000000" fill-opacity="0.0" clip-path="url(#id_0)" d="M100.17217 109.16044C100.17217 110.81729 98.829025 112.16044 97.17217 112.16044C95.51532 112.16044 94.17217 110.81729 94.17217 109.16044C94.17217 107.503586 95.51532 106.16044 97.17217 106.16044C98.829025 106.16044 100.17217 107.503586 100.17217 109.16044Z" fill-rule="nonzero"/><path fill="#000000" fill-opacity="0.0" clip-path="url(#id_0)" d="M102.189125 109.12577C102.189125 110.78263 100.84598 112.12577 99.189125 112.12577C97.53227 112.12577 96.189125 110.78263 96.189125 109.12577C96.189125 107.46892 97.53227 106.12577 99.189125 106.12577C100.84598 106.12577 102.189125 107.46892 102.189125 109.12577Z" fill-rule="nonzero"/><path fill="#000000" fill-opacity="0.0" clip-path="url(#id_0)" d="M122.69477 99.97114C122.69477 101.628 121.35162 102.97114 119.69477 102.97114C118.03792 102.97114 116.69477 101.628 116.69477 99.97114C116.69477 98.314285 118.03792 96.97114 119.69477 96.97114C121.35162 96.97114 122.69477 98.314285 122.69477 99.97114Z" fill-rule="nonzero"/><path fill="#000000" fill-opacity="0.0" clip-path="url(#id_0)" d="M136.5613 100.43103C136.5613 102.08788 135.21815 103.43103 133.5613 103.43103C131.90443 103.43103 130.5613 102.08788 130.5613 100.43103C130.5613 98.77418 131.90443 97.43103 133.5613 97.43103C135.21815 97.43103 136.5613 98.77418 136.5613 100.43103Z" fill-rule="nonzero"/><path fill="#000000" fill-opacity="0.0" clip-path="url(#id_0)" d="M141.77174 132.11424C141.77174 133.77109 140.4286 135.11424 138.77174 135.11424C137.11488 135.11424 135.77174 133.77109 135.77174 132.11424C135.77174 130.45738 137.11488 129.11424 138.77174 129.11424C140.4286 129.11424 141.77174 130.45738 141.77174 132.11424Z" fill-rule="nonzero"/><path fill="#000000" fill-opacity="0.0" clip-path="url(#id_0)" d="M145.04929 99.659164C145.04929 101.316025 143.70615 102.659164 142.04929 102.659164C140.39243 102.659164 139.04929 101.316025 139.04929 99.659164C139.04929 98.00231 140.39243 96.659164 142.04929 96.659164C143.70615 96.659164 145.04929 98.00231 145.04929 99.659164Z" fill-rule="nonzero"/><path fill="#000000" fill-opacity="0.0" clip-path="url(#id_0)" d="M162.78163 129.84024C162.78163 131.49709 161.43848 132.84024 159.78163 132.84024C158.12477 132.84024 156.78163 131.49709 156.78163 129.84024C156.78163 128.18338 158.12477 126.84023 159.78163 126.84023C161.43848 126.84023 162.78163 128.18338 162.78163 129.84024Z" fill-rule="nonzero"/><path fill="#000000" fill-opacity="0.0" clip-path="url(#id_0)" d="M175.42958 86.98824C175.42958 88.645096 174.08643 89.98824 172.42958 89.98824C170.77272 89.98824 169.42958 88.645096 169.42958 86.98824C169.42958 85.33139 170.77272 83.98824 172.42958 83.98824C174.08643 83.98824 175.42958 85.33139 175.42958 86.98824Z" fill-rule="nonzero"/><path fill="#000000" fill-opacity="0.0" clip-path="url(#id_0)" d="M185.59836 91.05179C185.59836 92.70864 184.25522 94.05179 182.59836 94.05179C180.94151 94.05179 179.59836 92.70864 179.59836 91.05179C179.59836 89.394936 180.94151 88.05179 182.59836 88.05179C184.25522 88.05179 185.59836 89.394936 185.59836 91.05179Z" fill-rule="nonzero"/><path fill="#000000" fill-opacity="0.0" clip-path="url(#id_0)" d="M211.52457 94.7605C211.52457 96.41735 210.18141 97.7605 208.52457 97.7605C206.8677 97.7605 205.52457 96.41735 205.52457 94.7605C205.52457 93.103645 206.8677 91.7605 208.52457 91.7605C210.18141 91.7605 211.52457 93.103645 211.52457 94.7605Z" fill-rule="nonzero"/><path fill="#000000" fill-opacity="0.0" clip-path="url(#id_0)" d="M215.97865 95.74119C215.97865 97.39804 214.63551 98.74119 212.97865 98.74119C211.32181 98.74119 209.97865 97.39804 209.97865 95.74119C209.97865 94.084335 211.32181 92.74119 212.97865 92.74119C214.63551 92.74119 215.97865 94.084335 215.97865 95.74119Z" fill-rule="nonzero"/><path fill="#000000" fill-opacity="0.0" clip-path="url(#id_0)" d="M218.37378 121.18717C218.37378 122.844025 217.03064 124.18717 215.37378 124.18717C213.71693 124.18717 212.37378 122.844025 212.37378 121.18717C212.37378 119.53032 213.71693 118.18717 215.37378 118.18717C217.03064 118.18717 218.37378 119.53032 218.37378 121.18717Z" fill-rule="nonzero"/><path fill="#000000" fill-opacity="0.0" clip-path="url(#id_0)" d="M258.46063 88.83884C258.46063 90.4957 257.1175 91.83884 255.46065 91.83884C253.80379 91.83884 252.46065 90.4957 252.46065 88.83884C252.46065 87.181984 253.80379 85.83884 255.46065 85.83884C257.1175 85.83884 258.46063 87.181984 258.46063 88.83884Z" fill-rule="nonzero"/><path fill="#000000" fill-opacity="0.0" clip-path="url(#id_0)" d="M278.336 87.25106C278.336 88.90791 276.99286 90.25106 275.336 90.25106C273.67914 90.25106 272.336 88.90791 272.336 87.25106C272.336 85.59421 273.67914 84.25106 275.336 84.25106C276.99286 84.25106 278.336 85.59421 278.336 87.25106Z" fill-rule="nonzero"/><path fill="#000000" fill-opacity="0.0" clip-path="url(#id_0)" d="M296.57257 78.37722C296.57257 80.03407 295.22943 81.37722 293.57257 81.37722C291.9157 81.37722 290.57257 80.03407 290.57257 78.37722C290.57257 76.72037 291.9157 75.37722 293.57257 75.37722C295.22943 75.37722 296.57257 76.72037 296.57257 78.37722Z" fill-rule="nonzero"/><path fill="#000000" fill-opacity="0.0" clip-path="url(#id_0)" d="M380.78018 58.009506C380.78018 59.666363 379.43704 61.009506 377.78018 61.009506C376.12332 61.009506 374.78018 59.666363 374.78018 58.009506C374.78018 56.352654 376.12332 55.009506 377.78018 55.009506C379.43704 55.009506 380.78018 56.352654 380.78018 58.009506Z" fill-rule="nonzero"/><path fill="#000000" fill-opacity="0.0" clip-path="url(#id_0)" d="M383.51147 71.17846C383.51147 72.83531 382.16833 74.17846 380.51147 74.17846C378.8546 74.17846 377.51147 72.83531 377.51147 71.17846C377.51147 69.52161 378.8546 68.17846 380.51147 68.17846C382.16833 68.17846 383.51147 69.52161 383.51147 71.17846Z" fill-rule="nonzero"/><path fill="#000000" fill-opacity="0.0" clip-path="url(#id_0)" d="M394.47864 105.0535C394.47864 106.71036 393.1355 108.0535 391.47864 108.0535C389.82178 108.0535 388.47864 106.71036 388.47864 105.0535C388.47864 103.396645 389.82178 102.0535 391.47864 102.0535C393.1355 102.0535 394.47864 103.396645 394.47864 105.0535Z" fill-rule="nonzero"/><path fill="#000000" fill-opacity="0.0" clip-path="url(#id_0)" d="M485.1573 53.471073C485.1573 55.127926 483.81415 56.471073 482.1573 56.471073C480.50043 56.471073 479.1573 55.127926 479.1573 53.471073C479.1573 51.814217 480.50043 50.471073 482.1573 50.471073C483.81415 50.471073 485.1573 51.814217 485.1573 53.471073Z" fill-rule="nonzero"/><path fill="#000000" fill-opacity="0.0" clip-path="url(#id_0)" d="M573.27277 51.916668C573.27277 53.57352 571.9296 54.916668 570.27277 54.916668C568.6159 54.916668 567.27277 53.57352 567.27277 51.916668C567.27277 50.25981 568.6159 48.916668 570.27277 48.916668C571.9296 48.916668 573.27277 50.25981 573.27277 51.916668Z" fill-rule="nonzero"/><path fill="#000000" fill-opacity="0.0" clip-path="url(#id_0)" d="M584.45 51.916668C584.45 53.57352 583.1069 54.916668 581.45 54.916668C579.79315 54.916668 578.45 53.57352 578.45 51.916668C578.45 50.25981 579.79315 48.916668 581.45 48.916668C583.1069 48.916668 584.45 50.25981 584.45 51.916668Z" fill-rule="nonzero"/><path fill="#000000" fill-opacity="0.0" clip-path="url(#id_0)" d="M95.55 325.46658C95.55 327.1234 94.206856 328.46658 92.55 328.46658C90.89314 328.46658 89.55 327.1234 89.55 325.46658C89.55 323.80972 90.89314 322.46658 92.55 322.46658C94.206856 322.46658 95.55 323.80972 95.55 325.46658Z" fill-rule="nonzero"/><path fill="#000000" fill-opacity="0.0" clip-path="url(#id_0)" d="M100.17217 324.91718C100.17217 326.57404 98.829025 327.91718 97.17217 327.91718C95.51532 327.91718 94.17217 326.57404 94.17217 324.91718C94.17217 323.2603 95.51532 321.91718 97.17217 321.91718C98.829025 321.91718 100.17217 323.2603 100.17217 324.91718Z" fill-rule="nonzero"/><path fill="#000000" fill-opacity="0.0" clip-path="url(#id_0)" d="M102.189125 324.66635C102.189125 326.3232 100.84598 327.66635 99.189125 327.66635C97.53227 327.66635 96.189125 326.3232 96.189125 324.66635C96.189125 323.0095 97.53227 321.66635 99.189125 321.66635C100.84598 321.66635 102.189125 323.0095 102.189125 324.66635Z" fill-rule="nonzero"/><path fill="#000000" fill-opacity="0.0" clip-path="url(#id_0)" d="M122.69477 317.46222C122.69477 319.11908 121.35162 320.46222 119.69477 320.46222C118.03792 320.46222 116.69477 319.11908 116.69477 317.46222C116.69477 315.8054 118.03792 314.46222 119.69477 314.46222C121.35162 314.46222 122.69477 315.8054 122.69477 317.46222Z" fill-rule="nonzero"/><path fill="#000000" fill-opacity="0.0" clip-path="url(#id_0)" d="M136.5613 316.315C136.5613 317.97186 135.21815 319.315 133.5613 319.315C131.90443 319.315 130.5613 317.97186 130.5613 316.315C130.5613 314.65814 131.90443 313.315 133.5613 313.315C135.21815 313.315 136.5613 314.65814 136.5613 316.315Z" fill-rule="nonzero"/><path fill="#000000" fill-opacity="0.0" clip-path="url(#id_0)" d="M141.77174 332.45C141.77174 334.10684 140.4286 335.45 138.77174 335.45C137.11488 335.45 135.77174 334.10684 135.77174 332.45C135.77174 330.79315 137.11488 329.45 138.77174 329.45C140.4286 329.45 141.77174 330.79315 141.77174 332.45Z" fill-rule="nonzero"/><path fill="#000000" fill-opacity="0.0" clip-path="url(#id_0)" d="M145.04929 315.0076C145.04929 316.66443 143.70615 318.0076 142.04929 318.0076C140.39243 318.0076 139.04929 316.66443 139.04929 315.0076C139.04929 313.35074 140.39243 312.0076 142.04929 312.0076C143.70615 312.0076 145.04929 313.35074 145.04929 315.0076Z" fill-rule="nonzero"/><path fill="#000000" fill-opacity="0.0" clip-path="url(#id_0)" d="M162.78163 328.85767C162.78163 330.51453 161.43848 331.85767 159.78163 331.85767C158.12477 331.85767 156.78163 330.51453 156.78163 328.85767C156.78163 327.2008 158.12477 325.85767 159.78163 325.85767C161.43848 325.85767 162.78163 327.2008 162.78163 328.85767Z" fill-rule="nonzero"/><path fill="#000000" fill-opacity="0.0" clip-path="url(#id_0)" d="M175.42958 305.2523C175.42958 306.90915 174.08643 308.2523 172.42958 308.2523C170.77272 308.2523 169.42958 306.90915 169.42958 305.2523C169.42958 303.59546 170.77272 302.2523 172.42958 302.2523C174.08643 302.2523 175.42958 303.59546 175.42958 305.2523Z" fill-rule="nonzero"/><path fill="#000000" fill-opacity="0.0" clip-path="url(#id_0)" d="M185.59836 306.4436C185.59836 308.10046 184.25522 309.4436 182.59836 309.4436C180.94151 309.4436 179.59836 308.10046 179.59836 306.4436C179.59836 304.78674 180.94151 303.4436 182.59836 303.4436C184.25522 303.4436 185.59836 304.78674 185.59836 306.4436Z" fill-rule="nonzero"/><path fill="#000000" fill-opacity="0.0" clip-path="url(#id_0)" d="M211.52457 306.06857C211.52457 307.72543 210.18141 309.06857 208.52457 309.06857C206.8677 309.06857 205.52457 307.72543 205.52457 306.06857C205.52457 304.4117 206.8677 303.06857 208.52457 303.06857C210.18141 303.06857 211.52457 304.4117 211.52457 306.06857Z" fill-rule="nonzero"/><path fill="#000000" fill-opacity="0.0" clip-path="url(#id_0)" d="M215.97865 306.14615C215.97865 307.803 214.63551 309.14615 212.97865 309.14615C211.32181 309.14615 209.97865 307.803 209.97865 306.14615C209.97865 304.4893 211.32181 303.14615 212.97865 303.14615C214.63551 303.14615 215.97865 304.4893 215.97865 306.14615Z" fill-rule="nonzero"/><path fill="#000000" fill-opacity="0.0" clip-path="url(#id_0)" d="M218.37378 319.00388C218.37378 320.66074 217.03064 322.00388 215.37378 322.00388C213.71693 322.00388 212.37378 320.66074 212.37378 319.00388C212.37378 317.34702 213.71693 316.00388 215.37378 316.00388C217.03064 316.00388 218.37378 317.34702 218.37378 319.00388Z" fill-rule="nonzero"/><path fill="#000000" fill-opacity="0.0" clip-path="url(#id_0)" d="M258.46063 299.08636C258.46063 300.74323 257.1175 302.08636 255.46065 302.08636C253.80379 302.08636 252.46065 300.74323 252.46065 299.08636C252.46065 297.4295 253.80379 296.08636 255.46065 296.08636C257.1175 296.08636 258.46063 297.4295 258.46063 299.08636Z" fill-rule="nonzero"/><path fill="#000000" fill-opacity="0.0" clip-path="url(#id_0)" d="M278.336 296.69815C278.336 298.35498 276.99286 299.69815 275.336 299.69815C273.67914 299.69815 272.336 298.35498 272.336 296.69815C272.336 295.0413 273.67914 293.69815 275.336 293.69815C276.99286 293.69815 278.336 295.0413 278.336 296.69815Z" fill-rule="nonzero"/><path fill="#000000" fill-opacity="0.0" clip-path="url(#id_0)" d="M296.57257 290.94754C296.57257 292.6044 295.22943 293.94754 293.57257 293.94754C291.9157 293.94754 290.57257 292.6044 290.57257 290.94754C290.57257 289.29068 291.9157 287.94754 293.57257 287.94754C295.22943 287.94754 296.57257 289.29068 296.57257 290.94754Z" fill-rule="nonzero"/><path fill="#000000" fill-opacity="0.0" clip-path="url(#id_0)" d="M380.78018 274.83582C380.78018 276.49265 379.43704 277.83582 377.78018 277.83582C376.12332 277.83582 374.78018 276.49265 374.78018 274.83582C374.78018 273.17896 376.12332 271.83582 377.78018 271.83582C379.43704 271.83582 380.78018 273.17896 380.78018 274.83582Z" fill-rule="nonzero"/><path fill="#000000" fill-opacity="0.0" clip-path="url(#id_0)" d="M383.51147 281.4094C383.51147 283.06625 382.16833 284.4094 380.51147 284.4094C378.8546 284.4094 377.51147 283.06625 377.51147 281.4094C377.51147 279.75256 378.8546 278.4094 380.51147 278.4094C382.16833 278.4094 383.51147 279.75256 383.51147 281.4094Z" fill-rule="nonzero"/><path fill="#000000" fill-opacity="0.0" clip-path="url(#id_0)" d="M394.47864 296.84616C394.47864 298.50302 393.1355 299.84616 391.47864 299.84616C389.82178 299.84616 388.47864 298.50302 388.47864 296.84616C388.47864 295.18933 389.82178 293.84616 391.47864 293.84616C393.1355 293.84616 394.47864 295.18933 394.47864 296.84616Z" fill-rule="nonzero"/><path fill="#000000" fill-opacity="0.0" clip-path="url(#id_0)" d="M485.1573 266.73718C485.1573 268.394 483.81415 269.73718 482.1573 269.73718C480.50043 269.73718 479.1573 268.394 479.1573 266.73718C479.1573 265.08032 480.50043 263.73718 482.1573 263.73718C483.81415 263.73718 485.1573 265.08032 485.1573 266.73718Z" fill-rule="nonzero"/><path fill="#000000" fill-opacity="0.0" clip-path="url(#id_0)" d="M573.27277 261.62512C573.27277 263.28198 571.9296 264.62512 570.27277 264.62512C568.6159 264.62512 567.27277 263.28198 567.27277 261.62512C567.27277 259.9683 568.6159 258.62512 570.27277 258.62512C571.9296 258.62512 573.27277 259.9683 573.27277 261.62512Z" fill-rule="nonzero"/><path fill="#000000" fill-opacity="0.0" clip-path="url(#id_0)" d="M584.45 261.09613C584.45 262.753 583.1069 264.09613 581.45 264.09613C579.79315 264.09613 578.45 262.753 578.45 261.09613C578.45 259.4393 579.79315 258.09613 581.45 258.09613C583.1069 258.09613 584.45 259.4393 584.45 261.09613Z" fill-rule="nonzero"/><path stroke="#000000" stroke-width="1.0" stroke-linecap="butt" d="M86.5 311.5L98.5 311.5" fill-rule="nonzero"/><path stroke="#000000" stroke-width="1.0" stroke-linecap="butt" d="M86.5 199.5L98.5 199.5" fill-rule="nonzero"/><path stroke="#000000" stroke-width="1.0" stroke-linecap="butt" d="M86.5 151.5L98.5 151.5" fill-rule="nonzero"/><path fill="#000000" d="M30.01875 315.33725L28.971874 315.33725L28.971874 308.6185Q28.58125 308.97787 27.95625 309.35287Q27.346874 309.71225 26.8625 309.88412L26.8625 308.8685Q27.7375 308.44662 28.39375 307.8685Q29.065624 307.27475 29.346874 306.71225L30.01875 306.71225L30.01875 315.33725ZM33.64375 315.33725L33.64375 314.13412L34.846874 314.13412L34.846874 315.33725L33.64375 315.33725ZM36.05 311.10287Q36.05 309.57162 36.3625 308.64975Q36.675 307.71225 37.284374 307.21225Q37.909374 306.71225 38.846874 306.71225Q39.534374 306.71225 40.05 306.9935Q40.58125 307.27475 40.925 307.806Q41.26875 308.32162 41.45625 309.07162Q41.64375 309.82162 41.64375 311.10287Q41.64375 312.6185 41.33125 313.54037Q41.034374 314.46225 40.409374 314.97787Q39.8 315.47787 38.846874 315.47787Q37.6125 315.47787 36.89375 314.58725Q36.05 313.52475 36.05 311.10287ZM37.128124 311.10287Q37.128124 313.21225 37.628124 313.91537Q38.128124 314.6185 38.846874 314.6185Q39.58125 314.6185 40.065624 313.91537Q40.565624 313.21225 40.565624 311.10287Q40.565624 308.97787 40.065624 308.29037Q39.58125 307.58725 38.83125 307.58725Q38.1125 307.58725 37.675 308.19662Q37.128124 308.97787 37.128124 311.10287ZM43.05 311.10287Q43.05 309.57162 43.3625 308.64975Q43.675 307.71225 44.284374 307.21225Q44.909374 306.71225 45.846874 306.71225Q46.534374 306.71225 47.05 306.9935Q47.58125 307.27475 47.925 307.806Q48.26875 308.32162 48.45625 309.07162Q48.64375 309.82162 48.64375 311.10287Q48.64375 312.6185 48.33125 313.54037Q48.034374 314.46225 47.409374 314.97787Q46.8 315.47787 45.846874 315.47787Q44.6125 315.47787 43.89375 314.58725Q43.05 313.52475 43.05 311.10287ZM44.128124 311.10287Q44.128124 313.21225 44.628124 313.91537Q45.128124 314.6185 45.846874 314.6185Q46.58125 314.6185 47.065624 313.91537Q47.565624 313.21225 47.565624 311.10287Q47.565624 308.97787 47.065624 308.29037Q46.58125 307.58725 45.83125 307.58725Q45.1125 307.58725 44.675 308.19662Q44.128124 308.97787 44.128124 311.10287ZM50.05 311.10287Q50.05 309.57162 50.3625 308.64975Q50.675 307.71225 51.284374 307.21225Q51.909374 306.71225 52.846874 306.71225Q53.534374 306.71225 54.05 306.9935Q54.58125 307.27475 54.925 307.806Q55.26875 308.32162 55.45625 309.07162Q55.64375 309.82162 55.64375 311.10287Q55.64375 312.6185 55.33125 313.54037Q55.034374 314.46225 54.409374 314.97787Q53.8 315.47787 52.846874 315.47787Q51.6125 315.47787 50.89375 314.58725Q50.05 313.52475 50.05 311.10287ZM51.128124 311.10287Q51.128124 313.21225 51.628124 313.91537Q52.128124 314.6185 52.846874 314.6185Q53.58125 314.6185 54.065624 313.91537Q54.565624 313.21225 54.565624 311.10287Q54.565624 308.97787 54.065624 308.29037Q53.58125 307.58725 52.83125 307.58725Q52.1125 307.58725 51.675 308.19662Q51.128124 308.97787 51.128124 311.10287ZM57.64375 315.33725L57.64375 314.13412L58.846874 314.13412L58.846874 315.33725L57.64375 315.33725ZM60.05 311.10287Q60.05 309.57162 60.3625 308.64975Q60.675 307.71225 61.284374 307.21225Q61.909374 306.71225 62.846874 306.71225Q63.534374 306.71225 64.05 306.9935Q64.58125 307.27475 64.925 307.806Q65.26875 308.32162 65.45625 309.07162Q65.64375 309.82162 65.64375 311.10287Q65.64375 312.6185 65.33125 313.54037Q65.03438 314.46225 64.40938 314.97787Q63.8 315.47787 62.846874 315.47787Q61.6125 315.47787 60.89375 314.58725Q60.05 313.52475 60.05 311.10287ZM61.128124 311.10287Q61.128124 313.21225 61.628124 313.91537Q62.128124 314.6185 62.846874 314.6185Q63.58125 314.6185 64.06563 313.91537Q64.56563 313.21225 64.56563 311.10287Q64.56563 308.97787 64.06563 308.29037Q63.58125 307.58725 62.83125 307.58725Q62.1125 307.58725 61.675 308.19662Q61.128124 308.97787 61.128124 311.10287ZM67.05 311.10287Q67.05 309.57162 67.3625 308.64975Q67.675 307.71225 68.28438 307.21225Q68.90938 306.71225 69.84688 306.71225Q70.53438 306.71225 71.05 306.9935Q71.58125 307.27475 71.925 307.806Q72.26875 308.32162 72.45625 309.07162Q72.64375 309.82162 72.64375 311.10287Q72.64375 312.6185 72.33125 313.54037Q72.03438 314.46225 71.40938 314.97787Q70.8 315.47787 69.84688 315.47787Q68.6125 315.47787 67.89375 314.58725Q67.05 313.52475 67.05 311.10287ZM68.12813 311.10287Q68.12813 313.21225 68.62813 313.91537Q69.12813 314.6185 69.84688 314.6185Q70.58125 314.6185 71.06563 313.91537Q71.56563 313.21225 71.56563 311.10287Q71.56563 308.97787 71.06563 308.29037Q70.58125 307.58725 69.83125 307.58725Q69.1125 307.58725 68.675 308.19662Q68.12813 308.97787 68.12813 311.10287ZM74.05 311.10287Q74.05 309.57162 74.3625 308.64975Q74.675 307.71225 75.28438 307.21225Q75.90938 306.71225 76.84688 306.71225Q77.53438 306.71225 78.05 306.9935Q78.58125 307.27475 78.925 307.806Q79.26875 308.32162 79.45625 309.07162Q79.64375 309.82162 79.64375 311.10287Q79.64375 312.6185 79.33125 313.54037Q79.03438 314.46225 78.40938 314.97787Q77.8 315.47787 76.84688 315.47787Q75.6125 315.47787 74.89375 314.58725Q74.05 313.52475 74.05 311.10287ZM75.12813 311.10287Q75.12813 313.21225 75.62813 313.91537Q76.12813 314.6185 76.84688 314.6185Q77.58125 314.6185 78.06563 313.91537Q78.56563 313.21225 78.56563 311.10287Q78.56563 308.97787 78.06563 308.29037Q77.58125 307.58725 76.83125 307.58725Q76.1125 307.58725 75.675 308.19662Q75.12813 308.97787 75.12813 311.10287Z" fill-rule="nonzero"/><path fill="#000000" d="M26.05 201.52634L27.159374 201.43259Q27.284374 202.24509 27.721874 202.65134Q28.175 203.05759 28.815624 203.05759Q29.565624 203.05759 30.096874 202.47946Q30.628124 201.90134 30.628124 200.96384Q30.628124 200.05759 30.1125 199.54196Q29.6125 199.01071 28.784374 199.01071Q28.284374 199.01071 27.8625 199.24509Q27.45625 199.47946 27.221874 199.83884L26.2375 199.71384L27.065624 195.30759L31.346874 195.30759L31.346874 196.30759L27.909374 196.30759L27.45625 198.62009Q28.221874 198.07321 29.065624 198.07321Q30.190624 198.07321 30.95625 198.85446Q31.7375 199.63571 31.7375 200.87009Q31.7375 202.02634 31.065624 202.88571Q30.2375 203.91696 28.815624 203.91696Q27.64375 203.91696 26.89375 203.26071Q26.159374 202.60446 26.05 201.52634ZM33.64375 203.77634L33.64375 202.57321L34.846874 202.57321L34.846874 203.77634L33.64375 203.77634ZM36.05 199.54196Q36.05 198.01071 36.3625 197.08884Q36.675 196.15134 37.284374 195.65134Q37.909374 195.15134 38.846874 195.15134Q39.534374 195.15134 40.05 195.43259Q40.58125 195.71384 40.925 196.24509Q41.26875 196.76071 41.45625 197.51071Q41.64375 198.26071 41.64375 199.54196Q41.64375 201.05759 41.33125 201.97946Q41.034374 202.90134 40.409374 203.41696Q39.8 203.91696 38.846874 203.91696Q37.6125 203.91696 36.89375 203.02634Q36.05 201.96384 36.05 199.54196ZM37.128124 199.54196Q37.128124 201.65134 37.628124 202.35446Q38.128124 203.05759 38.846874 203.05759Q39.58125 203.05759 40.065624 202.35446Q40.565624 201.65134 40.565624 199.54196Q40.565624 197.41696 40.065624 196.72946Q39.58125 196.02634 38.83125 196.02634Q38.1125 196.02634 37.675 196.63571Q37.128124 197.41696 37.128124 199.54196ZM43.05 199.54196Q43.05 198.01071 43.3625 197.08884Q43.675 196.15134 44.284374 195.65134Q44.909374 195.15134 45.846874 195.15134Q46.534374 195.15134 47.05 195.43259Q47.58125 195.71384 47.925 196.24509Q48.26875 196.76071 48.45625 197.51071Q48.64375 198.26071 48.64375 199.54196Q48.64375 201.05759 48.33125 201.97946Q48.034374 202.90134 47.409374 203.41696Q46.8 203.91696 45.846874 203.91696Q44.6125 203.91696 43.89375 203.02634Q43.05 201.96384 43.05 199.54196ZM44.128124 199.54196Q44.128124 201.65134 44.628124 202.35446Q45.128124 203.05759 45.846874 203.05759Q46.58125 203.05759 47.065624 202.35446Q47.565624 201.65134 47.565624 199.54196Q47.565624 197.41696 47.065624 196.72946Q46.58125 196.02634 45.83125 196.02634Q45.1125 196.02634 44.675 196.63571Q44.128124 197.41696 44.128124 199.54196ZM50.05 199.54196Q50.05 198.01071 50.3625 197.08884Q50.675 196.15134 51.284374 195.65134Q51.909374 195.15134 52.846874 195.15134Q53.534374 195.15134 54.05 195.43259Q54.58125 195.71384 54.925 196.24509Q55.26875 196.76071 55.45625 197.51071Q55.64375 198.26071 55.64375 199.54196Q55.64375 201.05759 55.33125 201.97946Q55.034374 202.90134 54.409374 203.41696Q53.8 203.91696 52.846874 203.91696Q51.6125 203.91696 50.89375 203.02634Q50.05 201.96384 50.05 199.54196ZM51.128124 199.54196Q51.128124 201.65134 51.628124 202.35446Q52.128124 203.05759 52.846874 203.05759Q53.58125 203.05759 54.065624 202.35446Q54.565624 201.65134 54.565624 199.54196Q54.565624 197.41696 54.065624 196.72946Q53.58125 196.02634 52.83125 196.02634Q52.1125 196.02634 51.675 196.63571Q51.128124 197.41696 51.128124 199.54196ZM57.64375 203.77634L57.64375 202.57321L58.846874 202.57321L58.846874 203.77634L57.64375 203.77634ZM60.05 199.54196Q60.05 198.01071 60.3625 197.08884Q60.675 196.15134 61.284374 195.65134Q61.909374 195.15134 62.846874 195.15134Q63.534374 195.15134 64.05 195.43259Q64.58125 195.71384 64.925 196.24509Q65.26875 196.76071 65.45625 197.51071Q65.64375 198.26071 65.64375 199.54196Q65.64375 201.05759 65.33125 201.97946Q65.03438 202.90134 64.40938 203.41696Q63.8 203.91696 62.846874 203.91696Q61.6125 203.91696 60.89375 203.02634Q60.05 201.96384 60.05 199.54196ZM61.128124 199.54196Q61.128124 201.65134 61.628124 202.35446Q62.128124 203.05759 62.846874 203.05759Q63.58125 203.05759 64.06563 202.35446Q64.56563 201.65134 64.56563 199.54196Q64.56563 197.41696 64.06563 196.72946Q63.58125 196.02634 62.83125 196.02634Q62.1125 196.02634 61.675 196.63571Q61.128124 197.41696 61.128124 199.54196ZM67.05 199.54196Q67.05 198.01071 67.3625 197.08884Q67.675 196.15134 68.28438 195.65134Q68.90938 195.15134 69.84688 195.15134Q70.53438 195.15134 71.05 195.43259Q71.58125 195.71384 71.925 196.24509Q72.26875 196.76071 72.45625 197.51071Q72.64375 198.26071 72.64375 199.54196Q72.64375 201.05759 72.33125 201.97946Q72.03438 202.90134 71.40938 203.41696Q70.8 203.91696 69.84688 203.91696Q68.6125 203.91696 67.89375 203.02634Q67.05 201.96384 67.05 199.54196ZM68.12813 199.54196Q68.12813 201.65134 68.62813 202.35446Q69.12813 203.05759 69.84688 203.05759Q70.58125 203.05759 71.06563 202.35446Q71.56563 201.65134 71.56563 199.54196Q71.56563 197.41696 71.06563 196.72946Q70.58125 196.02634 69.83125 196.02634Q69.1125 196.02634 68.675 196.63571Q68.12813 197.41696 68.12813 199.54196ZM74.05 199.54196Q74.05 198.01071 74.3625 197.08884Q74.675 196.15134 75.28438 195.65134Q75.90938 195.15134 76.84688 195.15134Q77.53438 195.15134 78.05 195.43259Q78.58125 195.71384 78.925 196.24509Q79.26875 196.76071 79.45625 197.51071Q79.64375 198.26071 79.64375 199.54196Q79.64375 201.05759 79.33125 201.97946Q79.03438 202.90134 78.40938 203.41696Q77.8 203.91696 76.84688 203.91696Q75.6125 203.91696 74.89375 203.02634Q74.05 201.96384 74.05 199.54196ZM75.12813 199.54196Q75.12813 201.65134 75.62813 202.35446Q76.12813 203.05759 76.84688 203.05759Q77.58125 203.05759 78.06563 202.35446Q78.56563 201.65134 78.56563 199.54196Q78.56563 197.41696 78.06563 196.72946Q77.58125 196.02634 76.83125 196.02634Q76.1125 196.02634 75.675 196.63571Q75.12813 197.41696 75.12813 199.54196Z" fill-rule="nonzero"/><path fill="#000000" d="M23.01875 155.72968L21.971874 155.72968L21.971874 149.01093Q21.58125 149.3703 20.95625 149.7453Q20.346874 150.10468 19.8625 150.27655L19.8625 149.26093Q20.7375 148.83905 21.39375 148.26093Q22.065624 147.66718 22.346874 147.10468L23.01875 147.10468L23.01875 155.72968ZM26.05 151.4953Q26.05 149.96405 26.3625 149.04218Q26.675 148.10468 27.284374 147.60468Q27.909374 147.10468 28.846874 147.10468Q29.534374 147.10468 30.05 147.38593Q30.58125 147.66718 30.925 148.19843Q31.26875 148.71405 31.45625 149.46405Q31.64375 150.21405 31.64375 151.4953Q31.64375 153.01093 31.33125 153.9328Q31.034374 154.85468 30.409374 155.3703Q29.8 155.8703 28.846874 155.8703Q27.6125 155.8703 26.89375 154.97968Q26.05 153.91718 26.05 151.4953ZM27.128124 151.4953Q27.128124 153.60468 27.628124 154.3078Q28.128124 155.01093 28.846874 155.01093Q29.58125 155.01093 30.065624 154.3078Q30.565624 153.60468 30.565624 151.4953Q30.565624 149.3703 30.065624 148.6828Q29.58125 147.97968 28.83125 147.97968Q28.1125 147.97968 27.675 148.58905Q27.128124 149.3703 27.128124 151.4953ZM33.64375 155.72968L33.64375 154.52655L34.846874 154.52655L34.846874 155.72968L33.64375 155.72968ZM36.05 151.4953Q36.05 149.96405 36.3625 149.04218Q36.675 148.10468 37.284374 147.60468Q37.909374 147.10468 38.846874 147.10468Q39.534374 147.10468 40.05 147.38593Q40.58125 147.66718 40.925 148.19843Q41.26875 148.71405 41.45625 149.46405Q41.64375 150.21405 41.64375 151.4953Q41.64375 153.01093 41.33125 153.9328Q41.034374 154.85468 40.409374 155.3703Q39.8 155.8703 38.846874 155.8703Q37.6125 155.8703 36.89375 154.97968Q36.05 153.91718 36.05 151.4953ZM37.128124 151.4953Q37.128124 153.60468 37.628124 154.3078Q38.128124 155.01093 38.846874 155.01093Q39.58125 155.01093 40.065624 154.3078Q40.565624 153.60468 40.565624 151.4953Q40.565624 149.3703 40.065624 148.6828Q39.58125 147.97968 38.83125 147.97968Q38.1125 147.97968 37.675 148.58905Q37.128124 149.3703 37.128124 151.4953ZM43.05 151.4953Q43.05 149.96405 43.3625 149.04218Q43.675 148.10468 44.284374 147.60468Q44.909374 147.10468 45.846874 147.10468Q46.534374 147.10468 47.05 147.38593Q47.58125 147.66718 47.925 148.19843Q48.26875 148.71405 48.45625 149.46405Q48.64375 150.21405 48.64375 151.4953Q48.64375 153.01093 48.33125 153.9328Q48.034374 154.85468 47.409374 155.3703Q46.8 155.8703 45.846874 155.8703Q44.6125 155.8703 43.89375 154.97968Q43.05 153.91718 43.05 151.4953ZM44.128124 151.4953Q44.128124 153.60468 44.628124 154.3078Q45.128124 155.01093 45.846874 155.01093Q46.58125 155.01093 47.065624 154.3078Q47.565624 153.60468 47.565624 151.4953Q47.565624 149.3703 47.065624 148.6828Q46.58125 147.97968 45.83125 147.97968Q45.1125 147.97968 44.675 148.58905Q44.128124 149.3703 44.128124 151.4953ZM50.05 151.4953Q50.05 149.96405 50.3625 149.04218Q50.675 148.10468 51.284374 147.60468Q51.909374 147.10468 52.846874 147.10468Q53.534374 147.10468 54.05 147.38593Q54.58125 147.66718 54.925 148.19843Q55.26875 148.71405 55.45625 149.46405Q55.64375 150.21405 55.64375 151.4953Q55.64375 153.01093 55.33125 153.9328Q55.034374 154.85468 54.409374 155.3703Q53.8 155.8703 52.846874 155.8703Q51.6125 155.8703 50.89375 154.97968Q50.05 153.91718 50.05 151.4953ZM51.128124 151.4953Q51.128124 153.60468 51.628124 154.3078Q52.128124 155.01093 52.846874 155.01093Q53.58125 155.01093 54.065624 154.3078Q54.565624 153.60468 54.565624 151.4953Q54.565624 149.3703 54.065624 148.6828Q53.58125 147.97968 52.83125 147.97968Q52.1125 147.97968 51.675 148.58905Q51.128124 149.3703 51.128124 151.4953ZM57.64375 155.72968L57.64375 154.52655L58.846874 154.52655L58.846874 155.72968L57.64375 155.72968ZM60.05 151.4953Q60.05 149.96405 60.3625 149.04218Q60.675 148.10468 61.284374 147.60468Q61.909374 147.10468 62.846874 147.10468Q63.534374 147.10468 64.05 147.38593Q64.58125 147.66718 64.925 148.19843Q65.26875 148.71405 65.45625 149.46405Q65.64375 150.21405 65.64375 151.4953Q65.64375 153.01093 65.33125 153.9328Q65.03438 154.85468 64.40938 155.3703Q63.8 155.8703 62.846874 155.8703Q61.6125 155.8703 60.89375 154.97968Q60.05 153.91718 60.05 151.4953ZM61.128124 151.4953Q61.128124 153.60468 61.628124 154.3078Q62.128124 155.01093 62.846874 155.01093Q63.58125 155.01093 64.06563 154.3078Q64.56563 153.60468 64.56563 151.4953Q64.56563 149.3703 64.06563 148.6828Q63.58125 147.97968 62.83125 147.97968Q62.1125 147.97968 61.675 148.58905Q61.128124 149.3703 61.128124 151.4953ZM67.05 151.4953Q67.05 149.96405 67.3625 149.04218Q67.675 148.10468 68.28438 147.60468Q68.90938 147.10468 69.84688 147.10468Q70.53438 147.10468 71.05 147.38593Q71.58125 147.66718 71.925 148.19843Q72.26875 148.71405 72.45625 149.46405Q72.64375 150.21405 72.64375 151.4953Q72.64375 153.01093 72.33125 153.9328Q72.03438 154.85468 71.40938 155.3703Q70.8 155.8703 69.84688 155.8703Q68.6125 155.8703 67.89375 154.97968Q67.05 153.91718 67.05 151.4953ZM68.12813 151.4953Q68.12813 153.60468 68.62813 154.3078Q69.12813 155.01093 69.84688 155.01093Q70.58125 155.01093 71.06563 154.3078Q71.56563 153.60468 71.56563 151.4953Q71.56563 149.3703 71.06563 148.6828Q70.58125 147.97968 69.83125 147.97968Q69.1125 147.97968 68.675 148.58905Q68.12813 149.3703 68.12813 151.4953ZM74.05 151.4953Q74.05 149.96405 74.3625 149.04218Q74.675 148.10468 75.28438 147.60468Q75.90938 147.10468 76.84688 147.10468Q77.53438 147.10468 78.05 147.38593Q78.58125 147.66718 78.925 148.19843Q79.26875 148.71405 79.45625 149.46405Q79.64375 150.21405 79.64375 151.4953Q79.64375 153.01093 79.33125 153.9328Q79.03438 154.85468 78.40938 155.3703Q77.8 155.8703 76.84688 155.8703Q75.6125 155.8703 74.89375 154.97968Q74.05 153.91718 74.05 151.4953ZM75.12813 151.4953Q75.12813 153.60468 75.62813 154.3078Q76.12813 155.01093 76.84688 155.01093Q77.58125 155.01093 78.06563 154.3078Q78.56563 153.60468 78.56563 151.4953Q78.56563 149.3703 78.06563 148.6828Q77.58125 147.97968 76.83125 147.97968Q76.1125 147.97968 75.675 148.58905Q75.12813 149.3703 75.12813 151.4953Z" fill-rule="nonzero"/><path fill="#000000" d="M124.46454 341.98126L124.46454 340.96564L130.02704 340.96564L130.02704 341.79376Q129.21454 342.66876 128.40204 344.1219Q127.60516 345.5594 127.16766 347.09064Q126.83954 348.16876 126.76141 349.45L125.66766 349.45Q125.68329 348.4344 126.05829 346.9969Q126.44891 345.5594 127.15204 344.23126Q127.87079 342.90314 128.68329 341.98126L124.46454 341.98126ZM131.99579 349.45L131.99579 348.2469L133.19891 348.2469L133.19891 349.45L131.99579 349.45ZM134.40204 347.2L135.51141 347.10626Q135.63641 347.91876 136.07391 348.325Q136.52704 348.73126 137.16766 348.73126Q137.91766 348.73126 138.44891 348.15314Q138.98016 347.575 138.98016 346.6375Q138.98016 345.73126 138.46454 345.21564Q137.96454 344.6844 137.13641 344.6844Q136.63641 344.6844 136.21454 344.91876Q135.80829 345.15314 135.57391 345.5125L134.58954 345.3875L135.41766 340.98126L139.69891 340.98126L139.69891 341.98126L136.26141 341.98126L135.80829 344.29376Q136.57391 343.7469 137.41766 343.7469Q138.54266 343.7469 139.30829 344.52814Q140.08954 345.3094 140.08954 346.54376Q140.08954 347.7 139.41766 348.5594Q138.58954 349.59064 137.16766 349.59064Q135.99579 349.59064 135.24579 348.9344Q134.51141 348.27814 134.40204 347.2ZM141.40204 345.21564Q141.40204 343.6844 141.71454 342.7625Q142.02704 341.825 142.63641 341.325Q143.26141 340.825 144.19891 340.825Q144.88641 340.825 145.40204 341.10626Q145.93329 341.3875 146.27704 341.91876Q146.62079 342.4344 146.80829 343.1844Q146.99579 343.9344 146.99579 345.21564Q146.99579 346.73126 146.68329 347.65314Q146.38641 348.575 145.76141 349.09064Q145.15204 349.59064 144.19891 349.59064Q142.96454 349.59064 142.24579 348.7Q141.40204 347.6375 141.40204 345.21564ZM142.48016 345.21564Q142.48016 347.325 142.98016 348.02814Q143.48016 348.73126 144.19891 348.73126Q144.93329 348.73126 145.41766 348.02814Q145.91766 347.325 145.91766 345.21564Q145.91766 343.09064 145.41766 342.40314Q144.93329 341.7 144.18329 341.7Q143.46454 341.7 143.02704 342.3094Q142.48016 343.09064 142.48016 345.21564ZM148.40204 345.21564Q148.40204 343.6844 148.71454 342.7625Q149.02704 341.825 149.63641 341.325Q150.26141 340.825 151.19891 340.825Q151.88641 340.825 152.40204 341.10626Q152.93329 341.3875 153.27704 341.91876Q153.62079 342.4344 153.80829 343.1844Q153.99579 343.9344 153.99579 345.21564Q153.99579 346.73126 153.68329 347.65314Q153.38641 348.575 152.76141 349.09064Q152.15204 349.59064 151.19891 349.59064Q149.96454 349.59064 149.24579 348.7Q148.40204 347.6375 148.40204 345.21564ZM149.48016 345.21564Q149.48016 347.325 149.98016 348.02814Q150.48016 348.73126 151.19891 348.73126Q151.93329 348.73126 152.41766 348.02814Q152.91766 347.325 152.91766 345.21564Q152.91766 343.09064 152.41766 342.40314Q151.93329 341.7 151.18329 341.7Q150.46454 341.7 150.02704 342.3094Q149.48016 343.09064 149.48016 345.21564Z" fill-rule="nonzero"/><path fill="#000000" d="M229.92021 349.45L228.87334 349.45L228.87334 342.73126Q228.48271 343.09064 227.85771 343.46564Q227.24834 343.825 226.76396 343.9969L226.76396 342.98126Q227.63896 342.5594 228.29521 341.98126Q228.96709 341.3875 229.24834 340.825L229.92021 340.825L229.92021 349.45ZM232.95146 345.21564Q232.95146 343.6844 233.26396 342.7625Q233.57646 341.825 234.18584 341.325Q234.81084 340.825 235.74834 340.825Q236.43584 340.825 236.95146 341.10626Q237.48271 341.3875 237.82646 341.91876Q238.17021 342.4344 238.35771 343.1844Q238.54521 343.9344 238.54521 345.21564Q238.54521 346.73126 238.23271 347.65314Q237.93584 348.575 237.31084 349.09064Q236.70146 349.59064 235.74834 349.59064Q234.51396 349.59064 233.79521 348.7Q232.95146 347.6375 232.95146 345.21564ZM234.02959 345.21564Q234.02959 347.325 234.52959 348.02814Q235.02959 348.73126 235.74834 348.73126Q236.48271 348.73126 236.96709 348.02814Q237.46709 347.325 237.46709 345.21564Q237.46709 343.09064 236.96709 342.40314Q236.48271 341.7 235.73271 341.7Q235.01396 341.7 234.57646 342.3094Q234.02959 343.09064 234.02959 345.21564ZM240.54521 349.45L240.54521 348.2469L241.74834 348.2469L241.74834 349.45L240.54521 349.45ZM242.95146 345.21564Q242.95146 343.6844 243.26396 342.7625Q243.57646 341.825 244.18584 341.325Q244.81084 340.825 245.74834 340.825Q246.43584 340.825 246.95146 341.10626Q247.48271 341.3875 247.82646 341.91876Q248.17021 342.4344 248.35771 343.1844Q248.54521 343.9344 248.54521 345.21564Q248.54521 346.73126 248.23271 347.65314Q247.93584 348.575 247.31084 349.09064Q246.70146 349.59064 245.74834 349.59064Q244.51396 349.59064 243.79521 348.7Q242.95146 347.6375 242.95146 345.21564ZM244.02959 345.21564Q244.02959 347.325 244.52959 348.02814Q245.02959 348.73126 245.74834 348.73126Q246.48271 348.73126 246.96709 348.02814Q247.46709 347.325 247.46709 345.21564Q247.46709 343.09064 246.96709 342.40314Q246.48271 341.7 245.73271 341.7Q245.01396 341.7 244.57646 342.3094Q244.02959 343.09064 244.02959 345.21564ZM249.95146 345.21564Q249.95146 343.6844 250.26396 342.7625Q250.57646 341.825 251.18584 341.325Q251.81084 340.825 252.74834 340.825Q253.43584 340.825 253.95146 341.10626Q254.48271 341.3875 254.82646 341.91876Q255.17021 342.4344 255.35771 343.1844Q255.54521 343.9344 255.54521 345.21564Q255.54521 346.73126 255.23271 347.65314Q254.93584 348.575 254.31084 349.09064Q253.70146 349.59064 252.74834 349.59064Q251.51396 349.59064 250.79521 348.7Q249.95146 347.6375 249.95146 345.21564ZM251.02959 345.21564Q251.02959 347.325 251.52959 348.02814Q252.02959 348.73126 252.74834 348.73126Q253.48271 348.73126 253.96709 348.02814Q254.46709 347.325 254.46709 345.21564Q254.46709 343.09064 253.96709 342.40314Q253.48271 341.7 252.73271 341.7Q252.01396 341.7 251.57646 342.3094Q251.02959 343.09064 251.02959 345.21564ZM256.95148 345.21564Q256.95148 343.6844 257.26398 342.7625Q257.57648 341.825 258.18585 341.325Q258.81085 340.825 259.74835 340.825Q260.43585 340.825 260.95148 341.10626Q261.48273 341.3875 261.82648 341.91876Q262.17023 342.4344 262.35773 343.1844Q262.54523 343.9344 262.54523 345.21564Q262.54523 346.73126 262.23273 347.65314Q261.93585 348.575 261.31085 349.09064Q260.70148 349.59064 259.74835 349.59064Q258.51398 349.59064 257.79523 348.7Q256.95148 347.6375 256.95148 345.21564ZM258.0296 345.21564Q258.0296 347.325 258.5296 348.02814Q259.0296 348.73126 259.74835 348.73126Q260.48273 348.73126 260.9671 348.02814Q261.4671 347.325 261.4671 345.21564Q261.4671 343.09064 260.9671 342.40314Q260.48273 341.7 259.73273 341.7Q259.01398 341.7 258.57648 342.3094Q258.0296 343.09064 258.0296 345.21564Z" fill-rule="nonzero"/><path fill="#000000" d="M334.96964 349.45L333.92276 349.45L333.92276 342.73126Q333.53214 343.09064 332.90714 343.46564Q332.29776 343.825 331.8134 343.9969L331.8134 342.98126Q332.6884 342.5594 333.34464 341.98126Q334.0165 341.3875 334.29776 340.825L334.96964 340.825L334.96964 349.45ZM343.54776 348.4344L343.54776 349.45L337.86026 349.45Q337.86026 349.075 337.98526 348.71564Q338.204 348.1375 338.67276 347.575Q339.15714 347.0125 340.0634 346.27814Q341.46964 345.1219 341.954 344.45Q342.454 343.77814 342.454 343.1844Q342.454 342.5594 342.0009 342.1375Q341.54776 341.7 340.829 341.7Q340.0634 341.7 339.61026 342.15314Q339.15714 342.60626 339.1415 343.41876L338.0634 343.3094Q338.17276 342.09064 338.8915 341.46564Q339.6259 340.825 340.86026 340.825Q342.09464 340.825 342.8134 341.5125Q343.53214 342.2 343.53214 343.21564Q343.53214 343.73126 343.3134 344.23126Q343.11026 344.71564 342.61026 345.27814Q342.1259 345.825 341.0009 346.77814Q340.04776 347.575 339.7665 347.8719Q339.5009 348.15314 339.329 348.4344L343.54776 348.4344ZM345.59464 349.45L345.59464 348.2469L346.79776 348.2469L346.79776 349.45L345.59464 349.45ZM348.0009 347.2L349.11026 347.10626Q349.23526 347.91876 349.67276 348.325Q350.1259 348.73126 350.7665 348.73126Q351.5165 348.73126 352.04776 348.15314Q352.579 347.575 352.579 346.6375Q352.579 345.73126 352.0634 345.21564Q351.5634 344.6844 350.73526 344.6844Q350.23526 344.6844 349.8134 344.91876Q349.40714 345.15314 349.17276 345.5125L348.1884 345.3875L349.0165 340.98126L353.29776 340.98126L353.29776 341.98126L349.86026 341.98126L349.40714 344.29376Q350.17276 343.7469 351.0165 343.7469Q352.1415 343.7469 352.90714 344.52814Q353.6884 345.3094 353.6884 346.54376Q353.6884 347.7 353.0165 348.5594Q352.1884 349.59064 350.7665 349.59064Q349.59464 349.59064 348.84464 348.9344Q348.11026 348.27814 348.0009 347.2ZM355.0009 345.21564Q355.0009 343.6844 355.3134 342.7625Q355.6259 341.825 356.23526 341.325Q356.86026 340.825 357.79776 340.825Q358.48526 340.825 359.0009 341.10626Q359.53214 341.3875 359.8759 341.91876Q360.21964 342.4344 360.40714 343.1844Q360.59464 343.9344 360.59464 345.21564Q360.59464 346.73126 360.28214 347.65314Q359.98526 348.575 359.36026 349.09064Q358.7509 349.59064 357.79776 349.59064Q356.5634 349.59064 355.84464 348.7Q355.0009 347.6375 355.0009 345.21564ZM356.079 345.21564Q356.079 347.325 356.579 348.02814Q357.079 348.73126 357.79776 348.73126Q358.53214 348.73126 359.0165 348.02814Q359.5165 347.325 359.5165 345.21564Q359.5165 343.09064 359.0165 342.40314Q358.53214 341.7 357.78214 341.7Q357.0634 341.7 356.6259 342.3094Q356.079 343.09064 356.079 345.21564ZM362.0009 345.21564Q362.0009 343.6844 362.3134 342.7625Q362.6259 341.825 363.23526 341.325Q363.86026 340.825 364.79776 340.825Q365.48526 340.825 366.0009 341.10626Q366.53214 341.3875 366.8759 341.91876Q367.21964 342.4344 367.40714 343.1844Q367.59464 343.9344 367.59464 345.21564Q367.59464 346.73126 367.28214 347.65314Q366.98526 348.575 366.36026 349.09064Q365.7509 349.59064 364.79776 349.59064Q363.5634 349.59064 362.84464 348.7Q362.0009 347.6375 362.0009 345.21564ZM363.079 345.21564Q363.079 347.325 363.579 348.02814Q364.079 348.73126 364.79776 348.73126Q365.53214 348.73126 366.0165 348.02814Q366.5165 347.325 366.5165 345.21564Q366.5165 343.09064 366.0165 342.40314Q365.53214 341.7 364.78214 341.7Q364.0634 341.7 363.6259 342.3094Q363.079 343.09064 363.079 345.21564Z" fill-rule="nonzero"/><path fill="#000000" d="M440.01904 349.45L438.97217 349.45L438.97217 342.73126Q438.58154 343.09064 437.95654 343.46564Q437.34717 343.825 436.8628 343.9969L436.8628 342.98126Q437.7378 342.5594 438.39404 341.98126Q439.06592 341.3875 439.34717 340.825L440.01904 340.825L440.01904 349.45ZM443.0503 347.2L444.15967 347.10626Q444.28467 347.91876 444.72217 348.325Q445.1753 348.73126 445.81592 348.73126Q446.56592 348.73126 447.09717 348.15314Q447.62842 347.575 447.62842 346.6375Q447.62842 345.73126 447.1128 345.21564Q446.6128 344.6844 445.78467 344.6844Q445.28467 344.6844 444.8628 344.91876Q444.45654 345.15314 444.22217 345.5125L443.2378 345.3875L444.06592 340.98126L448.34717 340.98126L448.34717 341.98126L444.90967 341.98126L444.45654 344.29376Q445.22217 343.7469 446.06592 343.7469Q447.19092 343.7469 447.95654 344.52814Q448.7378 345.3094 448.7378 346.54376Q448.7378 347.7 448.06592 348.5594Q447.2378 349.59064 445.81592 349.59064Q444.64404 349.59064 443.89404 348.9344Q443.15967 348.27814 443.0503 347.2ZM450.64404 349.45L450.64404 348.2469L451.84717 348.2469L451.84717 349.45L450.64404 349.45ZM453.0503 345.21564Q453.0503 343.6844 453.3628 342.7625Q453.6753 341.825 454.28467 341.325Q454.90967 340.825 455.84717 340.825Q456.53467 340.825 457.0503 341.10626Q457.58154 341.3875 457.9253 341.91876Q458.26904 342.4344 458.45654 343.1844Q458.64404 343.9344 458.64404 345.21564Q458.64404 346.73126 458.33154 347.65314Q458.03467 348.575 457.40967 349.09064Q456.8003 349.59064 455.84717 349.59064Q454.6128 349.59064 453.89404 348.7Q453.0503 347.6375 453.0503 345.21564ZM454.12842 345.21564Q454.12842 347.325 454.62842 348.02814Q455.12842 348.73126 455.84717 348.73126Q456.58154 348.73126 457.06592 348.02814Q457.56592 347.325 457.56592 345.21564Q457.56592 343.09064 457.06592 342.40314Q456.58154 341.7 455.83154 341.7Q455.1128 341.7 454.6753 342.3094Q454.12842 343.09064 454.12842 345.21564ZM460.0503 345.21564Q460.0503 343.6844 460.3628 342.7625Q460.6753 341.825 461.28467 341.325Q461.90967 340.825 462.84717 340.825Q463.53467 340.825 464.0503 341.10626Q464.58154 341.3875 464.9253 341.91876Q465.26904 342.4344 465.45654 343.1844Q465.64404 343.9344 465.64404 345.21564Q465.64404 346.73126 465.33154 347.65314Q465.03467 348.575 464.40967 349.09064Q463.8003 349.59064 462.84717 349.59064Q461.6128 349.59064 460.89404 348.7Q460.0503 347.6375 460.0503 345.21564ZM461.12842 345.21564Q461.12842 347.325 461.62842 348.02814Q462.12842 348.73126 462.84717 348.73126Q463.58154 348.73126 464.06592 348.02814Q464.56592 347.325 464.56592 345.21564Q464.56592 343.09064 464.06592 342.40314Q463.58154 341.7 462.83154 341.7Q462.1128 341.7 461.6753 342.3094Q461.12842 343.09064 461.12842 345.21564ZM467.0503 345.21564Q467.0503 343.6844 467.3628 342.7625Q467.6753 341.825 468.28467 341.325Q468.90967 340.825 469.84717 340.825Q470.53467 340.825 471.0503 341.10626Q471.58154 341.3875 471.9253 341.91876Q472.26904 342.4344 472.45654 343.1844Q472.64404 343.9344 472.64404 345.21564Q472.64404 346.73126 472.33154 347.65314Q472.03467 348.575 471.40967 349.09064Q470.8003 349.59064 469.84717 349.59064Q468.6128 349.59064 467.89404 348.7Q467.0503 347.6375 467.0503 345.21564ZM468.12842 345.21564Q468.12842 347.325 468.62842 348.02814Q469.12842 348.73126 469.84717 348.73126Q470.58154 348.73126 471.06592 348.02814Q471.56592 347.325 471.56592 345.21564Q471.56592 343.09064 471.06592 342.40314Q470.58154 341.7 469.83154 341.7Q469.1128 341.7 468.6753 342.3094Q468.12842 343.09064 468.12842 345.21564Z" fill-rule="nonzero"/><path fill="#000000" d="M545.0685 349.45L544.0216 349.45L544.0216 342.73126Q543.631 343.09064 543.006 343.46564Q542.3966 343.825 541.91223 343.9969L541.91223 342.98126Q542.78723 342.5594 543.4435 341.98126Q544.11536 341.3875 544.3966 340.825L545.0685 340.825L545.0685 349.45ZM548.16223 341.98126L548.16223 340.96564L553.72473 340.96564L553.72473 341.79376Q552.91223 342.66876 552.09973 344.1219Q551.30286 345.5594 550.86536 347.09064Q550.53723 348.16876 550.4591 349.45L549.36536 349.45Q549.381 348.4344 549.756 346.9969Q550.1466 345.5594 550.84973 344.23126Q551.5685 342.90314 552.381 341.98126L548.16223 341.98126ZM555.6935 349.45L555.6935 348.2469L556.8966 348.2469L556.8966 349.45L555.6935 349.45ZM558.09973 347.2L559.2091 347.10626Q559.3341 347.91876 559.7716 348.325Q560.22473 348.73126 560.86536 348.73126Q561.61536 348.73126 562.1466 348.15314Q562.67786 347.575 562.67786 346.6375Q562.67786 345.73126 562.16223 345.21564Q561.66223 344.6844 560.8341 344.6844Q560.3341 344.6844 559.91223 344.91876Q559.506 345.15314 559.2716 345.5125L558.28723 345.3875L559.11536 340.98126L563.3966 340.98126L563.3966 341.98126L559.9591 341.98126L559.506 344.29376Q560.2716 343.7469 561.11536 343.7469Q562.24036 343.7469 563.006 344.52814Q563.78723 345.3094 563.78723 346.54376Q563.78723 347.7 563.11536 348.5594Q562.28723 349.59064 560.86536 349.59064Q559.6935 349.59064 558.9435 348.9344Q558.2091 348.27814 558.09973 347.2ZM565.09973 345.21564Q565.09973 343.6844 565.41223 342.7625Q565.72473 341.825 566.3341 341.325Q566.9591 340.825 567.8966 340.825Q568.5841 340.825 569.09973 341.10626Q569.631 341.3875 569.97473 341.91876Q570.3185 342.4344 570.506 343.1844Q570.6935 343.9344 570.6935 345.21564Q570.6935 346.73126 570.381 347.65314Q570.0841 348.575 569.4591 349.09064Q568.84973 349.59064 567.8966 349.59064Q566.66223 349.59064 565.9435 348.7Q565.09973 347.6375 565.09973 345.21564ZM566.17786 345.21564Q566.17786 347.325 566.67786 348.02814Q567.17786 348.73126 567.8966 348.73126Q568.631 348.73126 569.11536 348.02814Q569.61536 347.325 569.61536 345.21564Q569.61536 343.09064 569.11536 342.40314Q568.631 341.7 567.881 341.7Q567.16223 341.7 566.72473 342.3094Q566.17786 343.09064 566.17786 345.21564ZM572.09973 345.21564Q572.09973 343.6844 572.41223 342.7625Q572.72473 341.825 573.3341 341.325Q573.9591 340.825 574.8966 340.825Q575.5841 340.825 576.09973 341.10626Q576.631 341.3875 576.97473 341.91876Q577.3185 342.4344 577.506 343.1844Q577.6935 343.9344 577.6935 345.21564Q577.6935 346.73126 577.381 347.65314Q577.0841 348.575 576.4591 349.09064Q575.84973 349.59064 574.8966 349.59064Q573.66223 349.59064 572.9435 348.7Q572.09973 347.6375 572.09973 345.21564ZM573.17786 345.21564Q573.17786 347.325 573.67786 348.02814Q574.17786 348.73126 574.8966 348.73126Q575.631 348.73126 576.11536 348.02814Q576.61536 347.325 576.61536 345.21564Q576.61536 343.09064 576.11536 342.40314Q575.631 341.7 574.881 341.7Q574.16223 341.7 573.72473 342.3094Q573.17786 343.09064 573.17786 345.21564Z" fill-rule="nonzero"/><path stroke="#4285f4" stroke-width="4.0" stroke-linecap="butt" d="M240.5 25.55L252.5 25.55" fill-rule="nonzero"/><path fill="#1a1a1a" d="M261.42188 29.55L261.42188 20.95625L264.39062 20.95625Q265.39062 20.95625 265.92188 21.08125Q266.65625 21.253124 267.17188 21.690624Q267.85938 22.26875 268.1875 23.175Q268.53125 24.065624 268.53125 25.20625Q268.53125 26.190624 268.29688 26.940624Q268.07812 27.690624 267.71875 28.190624Q267.35938 28.690624 266.92188 28.971874Q266.5 29.253124 265.90625 29.409374Q265.3125 29.55 264.53125 29.55L261.42188 29.55ZM262.5625 28.534374L264.39062 28.534374Q265.25 28.534374 265.73438 28.378124Q266.21875 28.221874 266.5 27.925Q266.90625 27.534374 267.125 26.846874Q267.35938 26.159374 267.35938 25.190624Q267.35938 23.846874 266.90625 23.128124Q266.46875 22.39375 265.84375 22.14375Q265.375 21.971874 264.375 21.971874L262.5625 21.971874L262.5625 28.534374ZM270.29688 22.175L270.29688 20.95625L271.35938 20.95625L271.35938 22.175L270.29688 22.175ZM270.29688 29.55L270.29688 23.33125L271.35938 23.33125L271.35938 29.55L270.29688 29.55ZM273.28125 29.55L273.28125 23.33125L274.23438 23.33125L274.23438 24.26875Q274.59375 23.6125 274.89062 23.409374Q275.20312 23.190624 275.57812 23.190624Q276.10938 23.190624 276.65625 23.51875L276.29688 24.503124Q275.90625 24.26875 275.53125 24.26875Q275.17188 24.26875 274.89062 24.4875Q274.625 24.690624 274.51562 25.065624Q274.32812 25.628124 274.32812 26.284374L274.32812 29.55L273.28125 29.55ZM281.54688 27.55L282.64062 27.675Q282.39062 28.628124 281.6875 29.159374Q280.98438 29.690624 279.90625 29.690624Q278.54688 29.690624 277.73438 28.846874Q276.9375 28.003124 276.9375 26.4875Q276.9375 24.925 277.75 24.065624Q278.5625 23.190624 279.84375 23.190624Q281.09375 23.190624 281.875 24.034374Q282.67188 24.878124 282.67188 26.425Q282.67188 26.51875 282.67188 26.70625L278.03125 26.70625Q278.09375 27.7375 278.60938 28.284374Q279.125 28.815624 279.90625 28.815624Q280.48438 28.815624 280.89062 28.51875Q281.3125 28.20625 281.54688 27.55ZM278.09375 25.846874L281.5625 25.846874Q281.5 25.05 281.17188 24.659374Q280.65625 24.05 279.85938 24.05Q279.125 24.05 278.625 24.534374Q278.14062 25.01875 278.09375 25.846874ZM288.35938 27.26875L289.39062 27.409374Q289.21875 28.471874 288.51562 29.08125Q287.8125 29.690624 286.79688 29.690624Q285.51562 29.690624 284.73438 28.8625Q283.96875 28.01875 283.96875 26.45625Q283.96875 25.45625 284.29688 24.70625Q284.64062 23.940624 285.3125 23.565624Q286.0 23.190624 286.8125 23.190624Q287.8125 23.190624 288.45312 23.70625Q289.10938 24.20625 289.29688 25.159374L288.26562 25.315624Q288.125 24.690624 287.75 24.378124Q287.375 24.05 286.84375 24.05Q286.04688 24.05 285.54688 24.628124Q285.04688 25.190624 285.04688 26.425Q285.04688 27.690624 285.53125 28.253124Q286.01562 28.815624 286.78125 28.815624Q287.40625 28.815624 287.8125 28.440624Q288.23438 28.065624 288.35938 27.26875ZM292.59375 28.6125L292.75 29.534374Q292.29688 29.628124 291.95312 29.628124Q291.375 29.628124 291.0625 29.45625Q290.75 29.26875 290.60938 28.971874Q290.48438 28.675 290.48438 27.721874L290.48438 24.14375L289.71875 24.14375L289.71875 23.33125L290.48438 23.33125L290.48438 21.784374L291.53125 21.159374L291.53125 23.33125L292.59375 23.33125L292.59375 24.14375L291.53125 24.14375L291.53125 27.784374Q291.53125 28.2375 291.57812 28.3625Q291.64062 28.4875 291.76562 28.565624Q291.89062 28.64375 292.125 28.64375Q292.3125 28.64375 292.59375 28.6125Z" fill-rule="nonzero"/><path stroke="#ea4335" stroke-width="4.0" stroke-linecap="butt" d="M308.5 25.55L320.5 25.55" fill-rule="nonzero"/><path fill="#1a1a1a" d="M329.07812 25.3625Q329.07812 23.221874 330.21875 22.01875Q331.375 20.8 333.1875 20.8Q334.39062 20.8 335.34375 21.378124Q336.29688 21.940624 336.79688 22.95625Q337.29688 23.971874 337.29688 25.26875Q337.29688 26.565624 336.76562 27.596874Q336.23438 28.628124 335.26562 29.159374Q334.3125 29.690624 333.1875 29.690624Q331.96875 29.690624 331.01562 29.1125Q330.0625 28.51875 329.5625 27.51875Q329.07812 26.503124 329.07812 25.3625ZM330.25 25.378124Q330.25 26.940624 331.07812 27.83125Q331.92188 28.721874 333.1875 28.721874Q334.46875 28.721874 335.29688 27.83125Q336.125 26.925 336.125 25.253124Q336.125 24.20625 335.76562 23.425Q335.42188 22.64375 334.73438 22.221874Q334.04688 21.784374 333.20312 21.784374Q332.0 21.784374 331.125 22.6125Q330.25 23.440624 330.25 25.378124ZM338.28125 29.55L338.28125 23.33125L339.23438 23.33125L339.23438 24.26875Q339.59375 23.6125 339.89062 23.409374Q340.20312 23.190624 340.57812 23.190624Q341.10938 23.190624 341.65625 23.51875L341.29688 24.503124Q340.90625 24.26875 340.53125 24.26875Q340.17188 24.26875 339.89062 24.4875Q339.625 24.690624 339.51562 25.065624Q339.32812 25.628124 339.32812 26.284374L339.32812 29.55L338.28125 29.55ZM346.32812 29.55L346.32812 28.76875Q345.73438 29.690624 344.59375 29.690624Q343.84375 29.690624 343.21875 29.284374Q342.59375 28.8625 342.25 28.128124Q341.90625 27.39375 341.90625 26.440624Q341.90625 25.51875 342.21875 24.753124Q342.53125 23.9875 343.15625 23.596874Q343.78125 23.190624 344.54688 23.190624Q345.10938 23.190624 345.54688 23.425Q345.98438 23.659374 346.26562 24.034374L346.26562 20.95625L347.3125 20.95625L347.3125 29.55L346.32812 29.55ZM343.0 26.440624Q343.0 27.64375 343.5 28.2375Q344.0 28.815624 344.6875 28.815624Q345.375 28.815624 345.85938 28.253124Q346.34375 27.690624 346.34375 26.534374Q346.34375 25.253124 345.84375 24.659374Q345.35938 24.065624 344.64062 24.065624Q343.9375 24.065624 343.46875 24.64375Q343.0 25.20625 343.0 26.440624ZM353.54688 27.55L354.64062 27.675Q354.39062 28.628124 353.6875 29.159374Q352.98438 29.690624 351.90625 29.690624Q350.54688 29.690624 349.73438 28.846874Q348.9375 28.003124 348.9375 26.4875Q348.9375 24.925 349.75 24.065624Q350.5625 23.190624 351.84375 23.190624Q353.09375 23.190624 353.875 24.034374Q354.67188 24.878124 354.67188 26.425Q354.67188 26.51875 354.67188 26.70625L350.03125 26.70625Q350.09375 27.7375 350.60938 28.284374Q351.125 28.815624 351.90625 28.815624Q352.48438 28.815624 352.89062 28.51875Q353.3125 28.20625 353.54688 27.55ZM350.09375 25.846874L353.5625 25.846874Q353.5 25.05 353.17188 24.659374Q352.65625 24.05 351.85938 24.05Q351.125 24.05 350.625 24.534374Q350.14062 25.01875 350.09375 25.846874ZM356.28125 29.55L356.28125 23.33125L357.23438 23.33125L357.23438 24.26875Q357.59375 23.6125 357.89062 23.409374Q358.20312 23.190624 358.57812 23.190624Q359.10938 23.190624 359.65625 23.51875L359.29688 24.503124Q358.90625 24.26875 358.53125 24.26875Q358.17188 24.26875 357.89062 24.4875Q357.625 24.690624 357.51562 25.065624Q357.32812 25.628124 357.32812 26.284374L357.32812 29.55L356.28125 29.55Z" fill-rule="nonzero"/></svg>