<svg version="1.1" viewBox="0.0 0.0 600.0 371.0" fill="none" stroke="none" stroke-linecap="square" stroke-miterlimit="10" width="600" height="371" xmlns:xlink="http://www.w3.org/1999/xlink" xmlns="http://www.w3.org/2000/svg"><path fill="#ffffff" d="M0 0L600.0 0L600.0 371.0L0 371.0L0 0Z" fill-rule="nonzero"/><path stroke="#cccccc" stroke-width="1.0" stroke-linecap="butt" d="M124.5 51.5L124.5 332.5" fill-rule="nonzero"/><path stroke="#cccccc" stroke-width="1.0" stroke-linecap="butt" d="M232.5 51.5L232.5 332.5" fill-rule="nonzero"/><path stroke="#cccccc" stroke-width="1.0" stroke-linecap="butt" d="M341.5 51.5L341.5 332.5" fill-rule="nonzero"/><path stroke="#cccccc" stroke-width="1.0" stroke-linecap="butt" d="M450.5 51.5L450.5 332.5" fill-rule="nonzero"/><path stroke="#cccccc" stroke-width="1.0" stroke-linecap="butt" d="M558.5 51.5L558.5 332.5" fill-rule="nonzero"/><path stroke="#cccccc" stroke-width="1.0" stroke-linecap="butt" d="M75.5 270.5L581.5 270.5" fill-rule="nonzero"/><path stroke="#cccccc" stroke-width="1.0" stroke-linecap="butt" d="M75.5 174.5L581.5 174.5" fill-rule="nonzero"/><path stroke="#cccccc" stroke-width="1.0" stroke-linecap="butt" d="M75.5 106.5L581.5 106.5" fill-rule="nonzero"/><path stroke="#cccccc" stroke-width="1.0" stroke-linecap="butt" d="M75.5 53.5L581.5 53.5" fill-rule="nonzero"/><path stroke="#000000" stroke-width="1.0" stroke-linecap="butt" d="M75.5 332.5L75.5 51.5" fill-rule="nonzero"/><clipPath id="id_0"><path d="M75.55 51.916668L581.45 51.916668L581.45 332.45L75.55 332.45L75.55 51.916668Z" clip-rule="nonzero"/></clipPath><path stroke="#4285f4" stroke-width="2.0" stroke-linecap="butt" clip-path="url(#id_0)" d="M75.55 247.82817L80.33289 247.82817L82.419975 247.56993L103.63865 216.41862L117.987335 218.00781L123.37897 328.4722L126.77047 215.29L145.1194 321.1398L158.20715 171.98917L168.72952 185.89244L195.55722 198.34647L200.1662 201.72456L202.6446 291.7035L244.12537 177.49124L264.6918 171.98917L283.5625 142.245L370.69818 73.291435L373.52444 117.01138L384.87296 238.20801L478.70468 57.74665L569.8841 51.916668L581.45 51.916668" fill-rule="nonzero"/><path stroke="#ea4335" stroke-width="2.0" stroke-linecap="butt" clip-path="url(#id_0)" d="M75.55 251.80597L80.33289 251.80597L82.419975 251.54773L103.63865 220.39644L117.987335 221.98563L123.37897 332.45L126.77047 219.2678L145.1194 325.1176L158.20715 175.96696L168.72952 189.87024L195.55722 202.32426L200.1662 205.70236L202.6446 295.6813L244.12537 181.46906L264.6918 175.96696L283.5625 146.2228L370.69818 77.26924L373.52444 120.9892L384.87296 242.18582L478.70468 61.724457L569.8841 55.894474L581.45 55.894474" fill-rule="nonzero"/><path fill="#000000" fill-opacity="0.0" clip-path="url(#id_0)" d="M78.55 247.82817C78.55 249.48502 77.206856 250.82817 75.55 250.82817C73.89314 250.82817 72.55 249.48502 72.55 247.82817C72.55 246.17131 73.89314 244.82817 75.55 244.82817C77.206856 244.82817 78.55 246.17131 78.55 247.82817Z" fill-rule="nonzero"/><path fill="#000000" fill-opacity="0.0" clip-path="url(#id_0)" d="M83.33289 247.82817C83.33289 249.48502 81.98975 250.82817 80.33289 250.82817C78.67604 250.82817 77.33289 249.48502 77.33289 247.82817C77.33289 246.17131 78.67604 244.82817 80.33289 244.82817C81.98975 244.82817 83.33289 246.17131 83.33289 247.82817Z" fill-rule="nonzero"/><path fill="#000000" fill-opacity="0.0" clip-path="url(#id_0)" d="M85.419975 247.56993C85.419975 249.22678 84.076836 250.56993 82.419975 250.56993C80.76312 250.56993 79.419975 249.22678 79.419975 247.56993C79.419975 245.91307 80.76312 244.56993 82.419975 244.56993C84.076836 244.56993 85.419975 245.91307 85.419975 247.56993Z" fill-rule="nonzero"/><path fill="#000000" fill-opacity="0.0" clip-path="url(#id_0)" d="M106.63865 216.41862C106.63865 218.07549 105.2955 219.41862 103.63865 219.41862C101.98179 219.41862 100.63865 218.07549 100.63865 216.41862C100.63865 214.76178 101.98179 213.41862 103.63865 213.41862C105.2955 213.41862 106.63865 214.76178 106.63865 216.41862Z" fill-rule="nonzero"/><path fill="#000000" fill-opacity="0.0" clip-path="url(#id_0)" d="M120.987335 218.00781C120.987335 219.66467 119.64419 221.00781 117.987335 221.00781C116.33048 221.00781 114.987335 219.66467 114.987335 218.00781C114.987335 216.35095 116.33048 215.00781 117.987335 215.00781C119.64419 215.00781 120.987335 216.35095 120.987335 218.00781Z" fill-rule="nonzero"/><path fill="#000000" fill-opacity="0.0" clip-path="url(#id_0)" d="M126.37897 328.4722C126.37897 330.12906 125.03582 331.4722 123.37897 331.4722C121.72211 331.4722 120.37897 330.12906 120.37897 328.4722C120.37897 326.81534 121.72211 325.4722 123.37897 325.4722C125.03582 325.4722 126.37897 326.81534 126.37897 328.4722Z" fill-rule="nonzero"/><path fill="#000000" fill-opacity="0.0" clip-path="url(#id_0)" d="M129.77048 215.29C129.77048 216.94685 128.42732 218.29 126.77047 218.29C125.11362 218.29 123.77047 216.94685 123.77047 215.29C123.77047 213.63315 125.11362 212.29 126.77047 212.29C128.42732 212.29 129.77048 213.63315 129.77048 215.29Z" fill-rule="nonzero"/><path fill="#000000" fill-opacity="0.0" clip-path="url(#id_0)" d="M148.1194 321.1398C148.1194 322.79666 146.77626 324.1398 145.1194 324.1398C143.46255 324.1398 142.1194 322.79666 142.1194 321.1398C142.1194 319.48297 143.46255 318.1398 145.1194 318.1398C146.77626 318.1398 148.1194 319.48297 148.1194 321.1398Z" fill-rule="nonzero"/><path fill="#000000" fill-opacity="0.0" clip-path="url(#id_0)" d="M161.20715 171.98917C161.20715 173.64601 159.864 174.98917 158.20715 174.98917C156.5503 174.98917 155.20715 173.64601 155.20715 171.98917C155.20715 170.3323 156.5503 168.98917 158.20715 168.98917C159.864 168.98917 161.20715 170.3323 161.20715 171.98917Z" fill-rule="nonzero"/><path fill="#000000" fill-opacity="0.0" clip-path="url(#id_0)" d="M171.72952 185.89244C171.72952 187.5493 170.38637 188.89244 168.72952 188.89244C167.07266 188.89244 165.72952 187.5493 165.72952 185.89244C165.72952 184.23558 167.07266 182.89244 168.72952 182.89244C170.38637 182.89244 171.72952 184.23558 171.72952 185.89244Z" fill-rule="nonzero"/><path fill="#000000" fill-opacity="0.0" clip-path="url(#id_0)" d="M198.55722 198.34647C198.55722 200.00331 197.21408 201.34647 195.55722 201.34647C193.90036 201.34647 192.55722 200.00331 192.55722 198.34647C192.55722 196.6896 193.90036 195.34647 195.55722 195.34647C197.21408 195.34647 198.55722 196.6896 198.55722 198.34647Z" fill-rule="nonzero"/><path fill="#000000" fill-opacity="0.0" clip-path="url(#id_0)" d="M203.1662 201.72456C203.1662 203.38141 201.82304 204.72456 200.1662 204.72456C198.50934 204.72456 197.1662 203.38141 197.1662 201.72456C197.1662 200.0677 198.50934 198.72456 200.1662 198.72456C201.82304 198.72456 203.1662 200.0677 203.1662 201.72456Z" fill-rule="nonzero"/><path fill="#000000" fill-opacity="0.0" clip-path="url(#id_0)" d="M205.6446 291.7035C205.6446 293.36035 204.30145 294.7035 202.6446 294.7035C200.98775 294.7035 199.6446 293.36035 199.6446 291.7035C199.6446 290.04663 200.98775 288.7035 202.6446 288.7035C204.30145 288.7035 205.6446 290.04663 205.6446 291.7035Z" fill-rule="nonzero"/><path fill="#000000" fill-opacity="0.0" clip-path="url(#id_0)" d="M247.12537 177.49124C247.12537 179.1481 245.78221 180.49124 244.12537 180.49124C242.4685 180.49124 241.12537 179.1481 241.12537 177.49124C241.12537 175.8344 242.4685 174.49124 244.12537 174.49124C245.78221 174.49124 247.12537 175.8344 247.12537 177.49124Z" fill-rule="nonzero"/><path fill="#000000" fill-opacity="0.0" clip-path="url(#id_0)" d="M267.6918 171.98917C267.6918 173.64601 266.34866 174.98917 264.6918 174.98917C263.03497 174.98917 261.6918 173.64601 261.6918 171.98917C261.6918 170.3323 263.03497 168.98917 264.6918 168.98917C266.34866 168.98917 267.6918 170.3323 267.6918 171.98917Z" fill-rule="nonzero"/><path fill="#000000" fill-opacity="0.0" clip-path="url(#id_0)" d="M286.5625 142.245C286.5625 143.90184 285.21936 145.245 283.5625 145.245C281.90567 145.245 280.5625 143.90184 280.5625 142.245C280.5625 140.58813 281.90567 139.245 283.5625 139.245C285.21936 139.245 286.5625 140.58813 286.5625 142.245Z" fill-rule="nonzero"/><path fill="#000000" fill-opacity="0.0" clip-path="url(#id_0)" d="M373.69818 73.291435C373.69818 74.94829 372.35504 76.291435 370.69818 76.291435C369.04135 76.291435 367.69818 74.94829 367.69818 73.291435C367.69818 71.634575 369.04135 70.291435 370.69818 70.291435C372.35504 70.291435 373.69818 71.634575 373.69818 73.291435Z" fill-rule="nonzero"/><path fill="#000000" fill-opacity="0.0" clip-path="url(#id_0)" d="M376.52444 117.01138C376.52444 118.66824 375.1813 120.01138 373.52444 120.01138C371.86758 120.01138 370.52444 118.66824 370.52444 117.01138C370.52444 115.35453 371.86758 114.01138 373.52444 114.01138C375.1813 114.01138 376.52444 115.35453 376.52444 117.01138Z" fill-rule="nonzero"/><path fill="#000000" fill-opacity="0.0" clip-path="url(#id_0)" d="M387.87296 238.20801C387.87296 239.86487 386.52982 241.20801 384.87296 241.20801C383.2161 241.20801 381.87296 239.86487 381.87296 238.20801C381.87296 236.55115 383.2161 235.20801 384.87296 235.20801C386.52982 235.20801 387.87296 236.55115 387.87296 238.20801Z" fill-rule="nonzero"/><path fill="#000000" fill-opacity="0.0" clip-path="url(#id_0)" d="M481.70468 57.74665C481.70468 59.403503 480.36154 60.74665 478.70468 60.74665C477.04782 60.74665 475.70468 59.403503 475.70468 57.74665C475.70468 56.089794 477.04782 54.74665 478.70468 54.74665C480.36154 54.74665 481.70468 56.089794 481.70468 57.74665Z" fill-rule="nonzero"/><path fill="#000000" fill-opacity="0.0" clip-path="url(#id_0)" d="M572.8841 51.916668C572.8841 53.57352 571.54095 54.916668 569.8841 54.916668C568.22723 54.916668 566.8841 53.57352 566.8841 51.916668C566.8841 50.25981 568.22723 48.916668 569.8841 48.916668C571.54095 48.916668 572.8841 50.25981 572.8841 51.916668Z" fill-rule="nonzero"/><path fill="#000000" fill-opacity="0.0" clip-path="url(#id_0)" d="M584.45 51.916668C584.45 53.57352 583.1069 54.916668 581.45 54.916668C579.79315 54.916668 578.45 53.57352 578.45 51.916668C578.45 50.25981 579.79315 48.916668 581.45 48.916668C583.1069 48.916668 584.45 50.25981 584.45 51.916668Z" fill-rule="nonzero"/><path fill="#000000" fill-opacity="0.0" clip-path="url(#id_0)" d="M78.55 251.80597C78.55 253.46283 77.206856 254.80597 75.55 254.80597C73.89314 254.80597 72.55 253.46283 72.55 251.80597C72.55 250.14912 73.89314 248.80597 75.55 248.80597C77.206856 248.80597 78.55 250.14912 78.55 251.80597Z" fill-rule="nonzero"/><path fill="#000000" fill-opacity="0.0" clip-path="url(#id_0)" d="M83.33289 251.80597C83.33289 253.46283 81.98975 254.80597 80.33289 254.80597C78.67604 254.80597 77.33289 253.46283 77.33289 251.80597C77.33289 250.14912 78.67604 248.80597 80.33289 248.80597C81.98975 248.80597 83.33289 250.14912 83.33289 251.80597Z" fill-rule="nonzero"/><path fill="#000000" fill-opacity="0.0" clip-path="url(#id_0)" d="M85.419975 251.54773C85.419975 253.20459 84.076836 254.54773 82.419975 254.54773C80.76312 254.54773 79.419975 253.20459 79.419975 251.54773C79.419975 249.89088 80.76312 248.54773 82.419975 248.54773C84.076836 248.54773 85.419975 249.89088 85.419975 251.54773Z" fill-rule="nonzero"/><path fill="#000000" fill-opacity="0.0" clip-path="url(#id_0)" d="M106.63865 220.39644C106.63865 222.05328 105.2955 223.39644 103.63865 223.39644C101.98179 223.39644 100.63865 222.05328 100.63865 220.39644C100.63865 218.73958 101.98179 217.39644 103.63865 217.39644C105.2955 217.39644 106.63865 218.73958 106.63865 220.39644Z" fill-rule="nonzero"/><path fill="#000000" fill-opacity="0.0" clip-path="url(#id_0)" d="M120.987335 221.98563C120.987335 223.64247 119.64419 224.98563 117.987335 224.98563C116.33048 224.98563 114.987335 223.64247 114.987335 221.98563C114.987335 220.32877 116.33048 218.98563 117.987335 218.98563C119.64419 218.98563 120.987335 220.32877 120.987335 221.98563Z" fill-rule="nonzero"/><path fill="#000000" fill-opacity="0.0" clip-path="url(#id_0)" d="M126.37897 332.45C126.37897 334.10684 125.03582 335.45 123.37897 335.45C121.72211 335.45 120.37897 334.10684 120.37897 332.45C120.37897 330.79315 121.72211 329.45 123.37897 329.45C125.03582 329.45 126.37897 330.79315 126.37897 332.45Z" fill-rule="nonzero"/><path fill="#000000" fill-opacity="0.0" clip-path="url(#id_0)" d="M129.77048 219.2678C129.77048 220.92465 128.42732 222.2678 126.77047 222.2678C125.11362 222.2678 123.77047 220.92465 123.77047 219.2678C123.77047 217.61095 125.11362 216.2678 126.77047 216.2678C128.42732 216.2678 129.77048 217.61095 129.77048 219.2678Z" fill-rule="nonzero"/><path fill="#000000" fill-opacity="0.0" clip-path="url(#id_0)" d="M148.1194 325.1176C148.1194 326.77448 146.77626 328.1176 145.1194 328.1176C143.46255 328.1176 142.1194 326.77448 142.1194 325.1176C142.1194 323.46075 143.46255 322.1176 145.1194 322.1176C146.77626 322.1176 148.1194 323.46075 148.1194 325.1176Z" fill-rule="nonzero"/><path fill="#000000" fill-opacity="0.0" clip-path="url(#id_0)" d="M161.20715 175.96696C161.20715 177.62383 159.864 178.96696 158.20715 178.96696C156.5503 178.96696 155.20715 177.62383 155.20715 175.96696C155.20715 174.3101 156.5503 172.96696 158.20715 172.96696C159.864 172.96696 161.20715 174.3101 161.20715 175.96696Z" fill-rule="nonzero"/><path fill="#000000" fill-opacity="0.0" clip-path="url(#id_0)" d="M171.72952 189.87024C171.72952 191.5271 170.38637 192.87024 168.72952 192.87024C167.07266 192.87024 165.72952 191.5271 165.72952 189.87024C165.72952 188.2134 167.07266 186.87024 168.72952 186.87024C170.38637 186.87024 171.72952 188.2134 171.72952 189.87024Z" fill-rule="nonzero"/><path fill="#000000" fill-opacity="0.0" clip-path="url(#id_0)" d="M198.55722 202.32426C198.55722 203.98112 197.21408 205.32426 195.55722 205.32426C193.90036 205.32426 192.55722 203.98112 192.55722 202.32426C192.55722 200.66742 193.90036 199.32426 195.55722 199.32426C197.21408 199.32426 198.55722 200.66742 198.55722 202.32426Z" fill-rule="nonzero"/><path fill="#000000" fill-opacity="0.0" clip-path="url(#id_0)" d="M203.1662 205.70236C203.1662 207.35922 201.82304 208.70236 200.1662 208.70236C198.50934 208.70236 197.1662 207.35922 197.1662 205.70236C197.1662 204.04552 198.50934 202.70236 200.1662 202.70236C201.82304 202.70236 203.1662 204.04552 203.1662 205.70236Z" fill-rule="nonzero"/><path fill="#000000" fill-opacity="0.0" clip-path="url(#id_0)" d="M205.6446 295.6813C205.6446 297.33813 204.30145 298.6813 202.6446 298.6813C200.98775 298.6813 199.6446 297.33813 199.6446 295.6813C199.6446 294.02444 200.98775 292.6813 202.6446 292.6813C204.30145 292.6813 205.6446 294.02444 205.6446 295.6813Z" fill-rule="nonzero"/><path fill="#000000" fill-opacity="0.0" clip-path="url(#id_0)" d="M247.12537 181.46906C247.12537 183.1259 245.78221 184.46906 244.12537 184.46906C242.4685 184.46906 241.12537 183.1259 241.12537 181.46906C241.12537 179.8122 242.4685 178.46906 244.12537 178.46906C245.78221 178.46906 247.12537 179.8122 247.12537 181.46906Z" fill-rule="nonzero"/><path fill="#000000" fill-opacity="0.0" clip-path="url(#id_0)" d="M267.6918 175.96696C267.6918 177.62383 266.34866 178.96696 264.6918 178.96696C263.03497 178.96696 261.6918 177.62383 261.6918 175.96696C261.6918 174.3101 263.03497 172.96696 264.6918 172.96696C266.34866 172.96696 267.6918 174.3101 267.6918 175.96696Z" fill-rule="nonzero"/><path fill="#000000" fill-opacity="0.0" clip-path="url(#id_0)" d="M286.5625 146.2228C286.5625 147.87965 285.21936 149.2228 283.5625 149.2228C281.90567 149.2228 280.5625 147.87965 280.5625 146.2228C280.5625 144.56595 281.90567 143.2228 283.5625 143.2228C285.21936 143.2228 286.5625 144.56595 286.5625 146.2228Z" fill-rule="nonzero"/><path fill="#000000" fill-opacity="0.0" clip-path="url(#id_0)" d="M373.69818 77.26924C373.69818 78.926094 372.35504 80.26924 370.69818 80.26924C369.04135 80.26924 367.69818 78.926094 367.69818 77.26924C367.69818 75.61239 369.04135 74.26924 370.69818 74.26924C372.35504 74.26924 373.69818 75.61239 373.69818 77.26924Z" fill-rule="nonzero"/><path fill="#000000" fill-opacity="0.0" clip-path="url(#id_0)" d="M376.52444 120.9892C376.52444 122.64605 375.1813 123.9892 373.52444 123.9892C371.86758 123.9892 370.52444 122.64605 370.52444 120.9892C370.52444 119.33234 371.86758 117.9892 373.52444 117.9892C375.1813 117.9892 376.52444 119.33234 376.52444 120.9892Z" fill-rule="nonzero"/><path fill="#000000" fill-opacity="0.0" clip-path="url(#id_0)" d="M387.87296 242.18582C387.87296 243.84267 386.52982 245.18582 384.87296 245.18582C383.2161 245.18582 381.87296 243.84267 381.87296 242.18582C381.87296 240.52896 383.2161 239.18582 384.87296 239.18582C386.52982 239.18582 387.87296 240.52896 387.87296 242.18582Z" fill-rule="nonzero"/><path fill="#000000" fill-opacity="0.0" clip-path="url(#id_0)" d="M481.70468 61.724457C481.70468 63.38131 480.36154 64.72446 478.70468 64.72446C477.04782 64.72446 475.70468 63.38131 475.70468 61.724457C475.70468 60.067604 477.04782 58.724457 478.70468 58.724457C480.36154 58.724457 481.70468 60.067604 481.70468 61.724457Z" fill-rule="nonzero"/><path fill="#000000" fill-opacity="0.0" clip-path="url(#id_0)" d="M572.8841 55.894474C572.8841 57.551327 571.54095 58.894474 569.8841 58.894474C568.22723 58.894474 566.8841 57.551327 566.8841 55.894474C566.8841 54.237617 568.22723 52.894474 569.8841 52.894474C571.54095 52.894474 572.8841 54.237617 572.8841 55.894474Z" fill-rule="nonzero"/><path fill="#000000" fill-opacity="0.0" clip-path="url(#id_0)" d="M584.45 55.894474C584.45 57.551327 583.1069 58.894474 581.45 58.894474C579.79315 58.894474 578.45 57.551327 578.45 55.894474C578.45 54.237617 579.79315 52.894474 581.45 52.894474C583.1069 52.894474 584.45 54.237617 584.45 55.894474Z" fill-rule="nonzero"/><path stroke="#000000" stroke-width="1.0" stroke-linecap="butt" d="M69.5 270.5L81.5 270.5" fill-rule="nonzero"/><path stroke="#000000" stroke-width="1.0" stroke-linecap="butt" d="M69.5 174.5L81.5 174.5" fill-rule="nonzero"/><path stroke="#000000" stroke-width="1.0" stroke-linecap="butt" d="M69.5 106.5L81.5 106.5" fill-rule="nonzero"/><path stroke="#000000" stroke-width="1.0" stroke-linecap="butt" d="M69.5 53.5L81.5 53.5" fill-rule="nonzero"/><path fill="#000000" d="M24.596874 273.19778L24.596874 274.2134L18.909374 274.2134Q18.909374 273.8384 19.034374 273.47903Q19.253124 272.9009 19.721874 272.3384Q20.20625 271.7759 21.1125 271.04153Q22.51875 269.88528 23.003124 269.2134Q23.503124 268.54153 23.503124 267.94778Q23.503124 267.32278 23.05 266.9009Q22.596874 266.4634 21.878124 266.4634Q21.1125 266.4634 20.659374 266.91653Q20.20625 267.36966 20.190624 268.18216L19.1125 268.07278Q19.221874 266.85403 19.940624 266.22903Q20.675 265.5884 21.909374 265.5884Q23.14375 265.5884 23.8625 266.2759Q24.58125 266.9634 24.58125 267.97903Q24.58125 268.49466 24.3625 268.99466Q24.159374 269.47903 23.659374 270.04153Q23.175 270.5884 22.05 271.54153Q21.096874 272.3384 20.815624 272.63528Q20.55 272.91653 20.378124 273.19778L24.596874 273.19778ZM26.05 269.97903Q26.05 268.44778 26.3625 267.5259Q26.675 266.5884 27.284374 266.0884Q27.909374 265.5884 28.846874 265.5884Q29.534374 265.5884 30.05 265.86966Q30.58125 266.1509 30.925 266.68216Q31.26875 267.19778 31.45625 267.94778Q31.64375 268.69778 31.64375 269.97903Q31.64375 271.49466 31.33125 272.41653Q31.034374 273.3384 30.409374 273.85403Q29.8 274.35403 28.846874 274.35403Q27.6125 274.35403 26.89375 273.4634Q26.05 272.4009 26.05 269.97903ZM27.128124 269.97903Q27.128124 272.0884 27.628124 272.79153Q28.128124 273.49466 28.846874 273.49466Q29.58125 273.49466 30.065624 272.79153Q30.565624 272.0884 30.565624 269.97903Q30.565624 267.85403 30.065624 267.16653Q29.58125 266.4634 28.83125 266.4634Q28.1125 266.4634 27.675 267.07278Q27.128124 267.85403 27.128124 269.97903ZM33.05 269.97903Q33.05 268.44778 33.3625 267.5259Q33.675 266.5884 34.284374 266.0884Q34.909374 265.5884 35.846874 265.5884Q36.534374 265.5884 37.05 265.86966Q37.58125 266.1509 37.925 266.68216Q38.26875 267.19778 38.45625 267.94778Q38.64375 268.69778 38.64375 269.97903Q38.64375 271.49466 38.33125 272.41653Q38.034374 273.3384 37.409374 273.85403Q36.8 274.35403 35.846874 274.35403Q34.6125 274.35403 33.89375 273.4634Q33.05 272.4009 33.05 269.97903ZM34.128124 269.97903Q34.128124 272.0884 34.628124 272.79153Q35.128124 273.49466 35.846874 273.49466Q36.58125 273.49466 37.065624 272.79153Q37.565624 272.0884 37.565624 269.97903Q37.565624 267.85403 37.065624 267.16653Q36.58125 266.4634 35.83125 266.4634Q35.1125 266.4634 34.675 267.07278Q34.128124 267.85403 34.128124 269.97903ZM40.64375 274.2134L40.64375 273.01028L41.846874 273.01028L41.846874 274.2134L40.64375 274.2134ZM43.05 269.97903Q43.05 268.44778 43.3625 267.5259Q43.675 266.5884 44.284374 266.0884Q44.909374 265.5884 45.846874 265.5884Q46.534374 265.5884 47.05 265.86966Q47.58125 266.1509 47.925 266.68216Q48.26875 267.19778 48.45625 267.94778Q48.64375 268.69778 48.64375 269.97903Q48.64375 271.49466 48.33125 272.41653Q48.034374 273.3384 47.409374 273.85403Q46.8 274.35403 45.846874 274.35403Q44.6125 274.35403 43.89375 273.4634Q43.05 272.4009 43.05 269.97903ZM44.128124 269.97903Q44.128124 272.0884 44.628124 272.79153Q45.128124 273.49466 45.846874 273.49466Q46.58125 273.49466 47.065624 272.79153Q47.565624 272.0884 47.565624 269.97903Q47.565624 267.85403 47.065624 267.16653Q46.58125 266.4634 45.83125 266.4634Q45.1125 266.4634 44.675 267.07278Q44.128124 267.85403 44.128124 269.97903ZM50.05 269.97903Q50.05 268.44778 50.3625 267.5259Q50.675 266.5884 51.284374 266.0884Q51.909374 265.5884 52.846874 265.5884Q53.534374 265.5884 54.05 265.86966Q54.58125 266.1509 54.925 266.68216Q55.26875 267.19778 55.45625 267.94778Q55.64375 268.69778 55.64375 269.97903Q55.64375 271.49466 55.33125 272.41653Q55.034374 273.3384 54.409374 273.85403Q53.8 274.35403 52.846874 274.35403Q51.6125 274.35403 50.89375 273.4634Q50.05 272.4009 50.05 269.97903ZM51.128124 269.97903Q51.128124 272.0884 51.628124 272.79153Q52.128124 273.49466 52.846874 273.49466Q53.58125 273.49466 54.065624 272.79153Q54.565624 272.0884 54.565624 269.97903Q54.565624 267.85403 54.065624 267.16653Q53.58125 266.4634 52.83125 266.4634Q52.1125 266.4634 51.675 267.07278Q51.128124 267.85403 51.128124 269.97903ZM57.05 269.97903Q57.05 268.44778 57.3625 267.5259Q57.675 266.5884 58.284374 266.0884Q58.909374 265.5884 59.846874 265.5884Q60.534374 265.5884 61.05 265.86966Q61.58125 266.1509 61.925 266.68216Q62.26875 267.19778 62.45625 267.94778Q62.64375 268.69778 62.64375 269.97903Q62.64375 271.49466 62.33125 272.41653Q62.034374 273.3384 61.409374 273.85403Q60.8 274.35403 59.846874 274.35403Q58.6125 274.35403 57.89375 273.4634Q57.05 272.4009 57.05 269.97903ZM58.128124 269.97903Q58.128124 272.0884 58.628124 272.79153Q59.128124 273.49466 59.846874 273.49466Q60.58125 273.49466 61.065624 272.79153Q61.565624 272.0884 61.565624 269.97903Q61.565624 267.85403 61.065624 267.16653Q60.58125 266.4634 59.83125 266.4634Q59.1125 266.4634 58.675 267.07278Q58.128124 267.85403 58.128124 269.97903Z" fill-rule="nonzero"/><path fill="#000000" d="M19.05 175.98477L20.1125 175.84415Q20.284374 176.73477 20.721874 177.14102Q21.159374 177.53165 21.784374 177.53165Q22.534374 177.53165 23.05 177.01602Q23.565624 176.5004 23.565624 175.73477Q23.565624 175.01602 23.08125 174.54727Q22.6125 174.0629 21.878124 174.0629Q21.58125 174.0629 21.128124 174.1879L21.253124 173.2504Q21.3625 173.26602 21.425 173.26602Q22.096874 173.26602 22.628124 172.92227Q23.175 172.5629 23.175 171.82852Q23.175 171.2504 22.784374 170.8754Q22.39375 170.48477 21.76875 170.48477Q21.159374 170.48477 20.7375 170.8754Q20.33125 171.26602 20.221874 172.03165L19.159374 171.84415Q19.346874 170.79727 20.034374 170.21915Q20.721874 169.6254 21.7375 169.6254Q22.440624 169.6254 23.034374 169.9379Q23.628124 170.23477 23.940624 170.7504Q24.253124 171.26602 24.253124 171.85977Q24.253124 172.40665 23.95625 172.8754Q23.659374 173.32852 23.08125 173.59415Q23.83125 173.76602 24.253124 174.32852Q24.675 174.8754 24.675 175.71915Q24.675 176.84415 23.846874 177.6254Q23.034374 178.40665 21.784374 178.40665Q20.659374 178.40665 19.909374 177.73477Q19.159374 177.04727 19.05 175.98477ZM26.05 174.01602Q26.05 172.48477 26.3625 171.5629Q26.675 170.6254 27.284374 170.1254Q27.909374 169.6254 28.846874 169.6254Q29.534374 169.6254 30.05 169.90665Q30.58125 170.1879 30.925 170.71915Q31.26875 171.23477 31.45625 171.98477Q31.64375 172.73477 31.64375 174.01602Q31.64375 175.53165 31.33125 176.45352Q31.034374 177.3754 30.409374 177.89102Q29.8 178.39102 28.846874 178.39102Q27.6125 178.39102 26.89375 177.5004Q26.05 176.4379 26.05 174.01602ZM27.128124 174.01602Q27.128124 176.1254 27.628124 176.82852Q28.128124 177.53165 28.846874 177.53165Q29.58125 177.53165 30.065624 176.82852Q30.565624 176.1254 30.565624 174.01602Q30.565624 171.89102 30.065624 171.20352Q29.58125 170.5004 28.83125 170.5004Q28.1125 170.5004 27.675 171.10977Q27.128124 171.89102 27.128124 174.01602ZM33.05 174.01602Q33.05 172.48477 33.3625 171.5629Q33.675 170.6254 34.284374 170.1254Q34.909374 169.6254 35.846874 169.6254Q36.534374 169.6254 37.05 169.90665Q37.58125 170.1879 37.925 170.71915Q38.26875 171.23477 38.45625 171.98477Q38.64375 172.73477 38.64375 174.01602Q38.64375 175.53165 38.33125 176.45352Q38.034374 177.3754 37.409374 177.89102Q36.8 178.39102 35.846874 178.39102Q34.6125 178.39102 33.89375 177.5004Q33.05 176.4379 33.05 174.01602ZM34.128124 174.01602Q34.128124 176.1254 34.628124 176.82852Q35.128124 177.53165 35.846874 177.53165Q36.58125 177.53165 37.065624 176.82852Q37.565624 176.1254 37.565624 174.01602Q37.565624 171.89102 37.065624 171.20352Q36.58125 170.5004 35.83125 170.5004Q35.1125 170.5004 34.675 171.10977Q34.128124 171.89102 34.128124 174.01602ZM40.64375 178.2504L40.64375 177.04727L41.846874 177.04727L41.846874 178.2504L40.64375 178.2504ZM43.05 174.01602Q43.05 172.48477 43.3625 171.5629Q43.675 170.6254 44.284374 170.1254Q44.909374 169.6254 45.846874 169.6254Q46.534374 169.6254 47.05 169.90665Q47.58125 170.1879 47.925 170.71915Q48.26875 171.23477 48.45625 171.98477Q48.64375 172.73477 48.64375 174.01602Q48.64375 175.53165 48.33125 176.45352Q48.034374 177.3754 47.409374 177.89102Q46.8 178.39102 45.846874 178.39102Q44.6125 178.39102 43.89375 177.5004Q43.05 176.4379 43.05 174.01602ZM44.128124 174.01602Q44.128124 176.1254 44.628124 176.82852Q45.128124 177.53165 45.846874 177.53165Q46.58125 177.53165 47.065624 176.82852Q47.565624 176.1254 47.565624 174.01602Q47.565624 171.89102 47.065624 171.20352Q46.58125 170.5004 45.83125 170.5004Q45.1125 170.5004 44.675 171.10977Q44.128124 171.89102 44.128124 174.01602ZM50.05 174.01602Q50.05 172.48477 50.3625 171.5629Q50.675 170.6254 51.284374 170.1254Q51.909374 169.6254 52.846874 169.6254Q53.534374 169.6254 54.05 169.90665Q54.58125 170.1879 54.925 170.71915Q55.26875 171.23477 55.45625 171.98477Q55.64375 172.73477 55.64375 174.01602Q55.64375 175.53165 55.33125 176.45352Q55.034374 177.3754 54.409374 177.89102Q53.8 178.39102 52.846874 178.39102Q51.6125 178.39102 50.89375 177.5004Q50.05 176.4379 50.05 174.01602ZM51.128124 174.01602Q51.128124 176.1254 51.628124 176.82852Q52.128124 177.53165 52.846874 177.53165Q53.58125 177.53165 54.065624 176.82852Q54.565624 176.1254 54.565624 174.01602Q54.565624 171.89102 54.065624 171.20352Q53.58125 170.5004 52.83125 170.5004Q52.1125 170.5004 51.675 171.10977Q51.128124 171.89102 51.128124 174.01602ZM57.05 174.01602Q57.05 172.48477 57.3625 171.5629Q57.675 170.6254 58.284374 170.1254Q58.909374 169.6254 59.846874 169.6254Q60.534374 169.6254 61.05 169.90665Q61.58125 170.1879 61.925 170.71915Q62.26875 171.23477 62.45625 171.98477Q62.64375 172.73477 62.64375 174.01602Q62.64375 175.53165 62.33125 176.45352Q62.034374 177.3754 61.409374 177.89102Q60.8 178.39102 59.846874 178.39102Q58.6125 178.39102 57.89375 177.5004Q57.05 176.4379 57.05 174.01602ZM58.128124 174.01602Q58.128124 176.1254 58.628124 176.82852Q59.128124 177.53165 59.846874 177.53165Q60.58125 177.53165 61.065624 176.82852Q61.565624 176.1254 61.565624 174.01602Q61.565624 171.89102 61.065624 171.20352Q60.58125 170.5004 59.83125 170.5004Q59.1125 170.5004 58.675 171.10977Q58.128124 171.89102 58.128124 174.01602Z" fill-rule="nonzero"/><path fill="#000000" d="M22.425 110.16354L22.425 108.10104L18.70625 108.10104L18.70625 107.13229L22.628124 101.56979L23.4875 101.56979L23.4875 107.13229L24.64375 107.13229L24.64375 108.10104L23.4875 108.10104L23.4875 110.16354L22.425 110.16354ZM22.425 107.13229L22.425 103.27292L19.7375 107.13229L22.425 107.13229ZM26.05 105.92917Q26.05 104.39792 26.3625 103.47604Q26.675 102.53854 27.284374 102.03854Q27.909374 101.53854 28.846874 101.53854Q29.534374 101.53854 30.05 101.81979Q30.58125 102.10104 30.925 102.63229Q31.26875 103.14792 31.45625 103.89792Q31.64375 104.64792 31.64375 105.92917Q31.64375 107.44479 31.33125 108.36667Q31.034374 109.28854 30.409374 109.80417Q29.8 110.30417 28.846874 110.30417Q27.6125 110.30417 26.89375 109.41354Q26.05 108.35104 26.05 105.92917ZM27.128124 105.92917Q27.128124 108.03854 27.628124 108.74167Q28.128124 109.44479 28.846874 109.44479Q29.58125 109.44479 30.065624 108.74167Q30.565624 108.03854 30.565624 105.92917Q30.565624 103.80417 30.065624 103.11667Q29.58125 102.41354 28.83125 102.41354Q28.1125 102.41354 27.675 103.02292Q27.128124 103.80417 27.128124 105.92917ZM33.05 105.92917Q33.05 104.39792 33.3625 103.47604Q33.675 102.53854 34.284374 102.03854Q34.909374 101.53854 35.846874 101.53854Q36.534374 101.53854 37.05 101.81979Q37.58125 102.10104 37.925 102.63229Q38.26875 103.14792 38.45625 103.89792Q38.64375 104.64792 38.64375 105.92917Q38.64375 107.44479 38.33125 108.36667Q38.034374 109.28854 37.409374 109.80417Q36.8 110.30417 35.846874 110.30417Q34.6125 110.30417 33.89375 109.41354Q33.05 108.35104 33.05 105.92917ZM34.128124 105.92917Q34.128124 108.03854 34.628124 108.74167Q35.128124 109.44479 35.846874 109.44479Q36.58125 109.44479 37.065624 108.74167Q37.565624 108.03854 37.565624 105.92917Q37.565624 103.80417 37.065624 103.11667Q36.58125 102.41354 35.83125 102.41354Q35.1125 102.41354 34.675 103.02292Q34.128124 103.80417 34.128124 105.92917ZM40.64375 110.16354L40.64375 108.96042L41.846874 108.96042L41.846874 110.16354L40.64375 110.16354ZM43.05 105.92917Q43.05 104.39792 43.3625 103.47604Q43.675 102.53854 44.284374 102.03854Q44.909374 101.53854 45.846874 101.53854Q46.534374 101.53854 47.05 101.81979Q47.58125 102.10104 47.925 102.63229Q48.26875 103.14792 48.45625 103.89792Q48.64375 104.64792 48.64375 105.92917Q48.64375 107.44479 48.33125 108.36667Q48.034374 109.28854 47.409374 109.80417Q46.8 110.30417 45.846874 110.30417Q44.6125 110.30417 43.89375 109.41354Q43.05 108.35104 43.05 105.92917ZM44.128124 105.92917Q44.128124 108.03854 44.628124 108.74167Q45.128124 109.44479 45.846874 109.44479Q46.58125 109.44479 47.065624 108.74167Q47.565624 108.03854 47.565624 105.92917Q47.565624 103.80417 47.065624 103.11667Q46.58125 102.41354 45.83125 102.41354Q45.1125 102.41354 44.675 103.02292Q44.128124 103.80417 44.128124 105.92917ZM50.05 105.92917Q50.05 104.39792 50.3625 103.47604Q50.675 102.53854 51.284374 102.03854Q51.909374 101.53854 52.846874 101.53854Q53.534374 101.53854 54.05 101.81979Q54.58125 102.10104 54.925 102.63229Q55.26875 103.14792 55.45625 103.89792Q55.64375 104.64792 55.64375 105.92917Q55.64375 107.44479 55.33125 108.36667Q55.034374 109.28854 54.409374 109.80417Q53.8 110.30417 52.846874 110.30417Q51.6125 110.30417 50.89375 109.41354Q50.05 108.35104 50.05 105.92917ZM51.128124 105.92917Q51.128124 108.03854 51.628124 108.74167Q52.128124 109.44479 52.846874 109.44479Q53.58125 109.44479 54.065624 108.74167Q54.565624 108.03854 54.565624 105.92917Q54.565624 103.80417 54.065624 103.11667Q53.58125 102.41354 52.83125 102.41354Q52.1125 102.41354 51.675 103.02292Q51.128124 103.80417 51.128124 105.92917ZM57.05 105.92917Q57.05 104.39792 57.3625 103.47604Q57.675 102.53854 58.284374 102.03854Q58.909374 101.53854 59.846874 101.53854Q60.534374 101.53854 61.05 101.81979Q61.58125 102.10104 61.925 102.63229Q62.26875 103.14792 62.45625 103.89792Q62.64375 104.64792 62.64375 105.92917Q62.64375 107.44479 62.33125 108.36667Q62.034374 109.28854 61.409374 109.80417Q60.8 110.30417 59.846874 110.30417Q58.6125 110.30417 57.89375 109.41354Q57.05 108.35104 57.05 105.92917ZM58.128124 105.92917Q58.128124 108.03854 58.628124 108.74167Q59.128124 109.44479 59.846874 109.44479Q60.58125 109.44479 61.065624 108.74167Q61.565624 108.03854 61.565624 105.92917Q61.565624 103.80417 61.065624 103.11667Q60.58125 102.41354 59.83125 102.41354Q59.1125 102.41354 58.675 103.02292Q58.128124 103.80417 58.128124 105.92917Z" fill-rule="nonzero"/><path fill="#000000" d="M19.05 55.101288L20.159374 55.007538Q20.284374 55.820038 20.721874 56.226288Q21.175 56.632538 21.815624 56.632538Q22.565624 56.632538 23.096874 56.054413Q23.628124 55.476288 23.628124 54.538788Q23.628124 53.632538 23.1125 53.116913Q22.6125 52.585663 21.784374 52.585663Q21.284374 52.585663 20.8625 52.820038Q20.45625 53.054413 20.221874 53.413788L19.2375 53.288788L20.065624 48.882538L24.346874 48.882538L24.346874 49.882538L20.909374 49.882538L20.45625 52.195038Q21.221874 51.648163 22.065624 51.648163Q23.190624 51.648163 23.95625 52.429413Q24.7375 53.210663 24.7375 54.445038Q24.7375 55.601288 24.065624 56.460663Q23.2375 57.491913 21.815624 57.491913Q20.64375 57.491913 19.89375 56.835663Q19.159374 56.179413 19.05 55.101288ZM26.05 53.116913Q26.05 51.585663 26.3625 50.663788Q26.675 49.726288 27.284374 49.226288Q27.909374 48.726288 28.846874 48.726288Q29.534374 48.726288 30.05 49.007538Q30.58125 49.288788 30.925 49.820038Q31.26875 50.335663 31.45625 51.085663Q31.64375 51.835663 31.64375 53.116913Q31.64375 54.632538 31.33125 55.554413Q31.034374 56.476288 30.409374 56.991913Q29.8 57.491913 28.846874 57.491913Q27.6125 57.491913 26.89375 56.601288Q26.05 55.538788 26.05 53.116913ZM27.128124 53.116913Q27.128124 55.226288 27.628124 55.929413Q28.128124 56.632538 28.846874 56.632538Q29.58125 56.632538 30.065624 55.929413Q30.565624 55.226288 30.565624 53.116913Q30.565624 50.991913 30.065624 50.304413Q29.58125 49.601288 28.83125 49.601288Q28.1125 49.601288 27.675 50.210663Q27.128124 50.991913 27.128124 53.116913ZM33.05 53.116913Q33.05 51.585663 33.3625 50.663788Q33.675 49.726288 34.284374 49.226288Q34.909374 48.726288 35.846874 48.726288Q36.534374 48.726288 37.05 49.007538Q37.58125 49.288788 37.925 49.820038Q38.26875 50.335663 38.45625 51.085663Q38.64375 51.835663 38.64375 53.116913Q38.64375 54.632538 38.33125 55.554413Q38.034374 56.476288 37.409374 56.991913Q36.8 57.491913 35.846874 57.491913Q34.6125 57.491913 33.89375 56.601288Q33.05 55.538788 33.05 53.116913ZM34.128124 53.116913Q34.128124 55.226288 34.628124 55.929413Q35.128124 56.632538 35.846874 56.632538Q36.58125 56.632538 37.065624 55.929413Q37.565624 55.226288 37.565624 53.116913Q37.565624 50.991913 37.065624 50.304413Q36.58125 49.601288 35.83125 49.601288Q35.1125 49.601288 34.675 50.210663Q34.128124 50.991913 34.128124 53.116913ZM40.64375 57.351288L40.64375 56.148163L41.846874 56.148163L41.846874 57.351288L40.64375 57.351288ZM43.05 53.116913Q43.05 51.585663 43.3625 50.663788Q43.675 49.726288 44.284374 49.226288Q44.909374 48.726288 45.846874 48.726288Q46.534374 48.726288 47.05 49.007538Q47.58125 49.288788 47.925 49.820038Q48.26875 50.335663 48.45625 51.085663Q48.64375 51.835663 48.64375 53.116913Q48.64375 54.632538 48.33125 55.554413Q48.034374 56.476288 47.409374 56.991913Q46.8 57.491913 45.846874 57.491913Q44.6125 57.491913 43.89375 56.601288Q43.05 55.538788 43.05 53.116913ZM44.128124 53.116913Q44.128124 55.226288 44.628124 55.929413Q45.128124 56.632538 45.846874 56.632538Q46.58125 56.632538 47.065624 55.929413Q47.565624 55.226288 47.565624 53.116913Q47.565624 50.991913 47.065624 50.304413Q46.58125 49.601288 45.83125 49.601288Q45.1125 49.601288 44.675 50.210663Q44.128124 50.991913 44.128124 53.116913ZM50.05 53.116913Q50.05 51.585663 50.3625 50.663788Q50.675 49.726288 51.284374 49.226288Q51.909374 48.726288 52.846874 48.726288Q53.534374 48.726288 54.05 49.007538Q54.58125 49.288788 54.925 49.820038Q55.26875 50.335663 55.45625 51.085663Q55.64375 51.835663 55.64375 53.116913Q55.64375 54.632538 55.33125 55.554413Q55.034374 56.476288 54.409374 56.991913Q53.8 57.491913 52.846874 57.491913Q51.6125 57.491913 50.89375 56.601288Q50.05 55.538788 50.05 53.116913ZM51.128124 53.116913Q51.128124 55.226288 51.628124 55.929413Q52.128124 56.632538 52.846874 56.632538Q53.58125 56.632538 54.065624 55.929413Q54.565624 55.226288 54.565624 53.116913Q54.565624 50.991913 54.065624 50.304413Q53.58125 49.601288 52.83125 49.601288Q52.1125 49.601288 51.675 50.210663Q51.128124 50.991913 51.128124 53.116913ZM57.05 53.116913Q57.05 51.585663 57.3625 50.663788Q57.675 49.726288 58.284374 49.226288Q58.909374 48.726288 59.846874 48.726288Q60.534374 48.726288 61.05 49.007538Q61.58125 49.288788 61.925 49.820038Q62.26875 50.335663 62.45625 51.085663Q62.64375 51.835663 62.64375 53.116913Q62.64375 54.632538 62.33125 55.554413Q62.034374 56.476288 61.409374 56.991913Q60.8 57.491913 59.846874 57.491913Q58.6125 57.491913 57.89375 56.601288Q57.05 55.538788 57.05 53.116913ZM58.128124 53.116913Q58.128124 55.226288 58.628124 55.929413Q59.128124 56.632538 59.846874 56.632538Q60.58125 56.632538 61.065624 55.929413Q61.565624 55.226288 61.565624 53.116913Q61.565624 50.991913 61.065624 50.304413Q60.58125 49.601288 59.83125 49.601288Q59.1125 49.601288 58.675 50.210663Q58.128124 50.991913 58.128124 53.116913Z" fill-rule="nonzero"/><path fill="#000000" d="M109.09367 341.98126L109.09367 340.96564L114.65617 340.96564L114.65617 341.79376Q113.84367 342.66876 113.03117 344.1219Q112.2343 345.5594 111.7968 347.09064Q111.46867 348.16876 111.39055 349.45L110.2968 349.45Q110.31242 348.4344 110.68742 346.9969Q111.07805 345.5594 111.78117 344.23126Q112.49992 342.90314 113.31242 341.98126L109.09367 341.98126ZM116.62492 349.45L116.62492 348.2469L117.82805 348.2469L117.82805 349.45L116.62492 349.45ZM119.03117 347.2L120.14055 347.10626Q120.26555 347.91876 120.70305 348.325Q121.15617 348.73126 121.7968 348.73126Q122.5468 348.73126 123.07805 348.15314Q123.6093 347.575 123.6093 346.6375Q123.6093 345.73126 123.09367 345.21564Q122.59367 344.6844 121.76555 344.6844Q121.26555 344.6844 120.84367 344.91876Q120.43742 345.15314 120.20305 345.5125L119.21867 345.3875L120.0468 340.98126L124.32805 340.98126L124.32805 341.98126L120.89055 341.98126L120.43742 344.29376Q121.20305 343.7469 122.0468 343.7469Q123.1718 343.7469 123.93742 344.52814Q124.71867 345.3094 124.71867 346.54376Q124.71867 347.7 124.0468 348.5594Q123.21867 349.59064 121.7968 349.59064Q120.62492 349.59064 119.87492 348.9344Q119.14055 348.27814 119.03117 347.2ZM126.03117 345.21564Q126.03117 343.6844 126.34367 342.7625Q126.65617 341.825 127.26555 341.325Q127.89055 340.825 128.82805 340.825Q129.51555 340.825 130.03117 341.10626Q130.56242 341.3875 130.90617 341.91876Q131.24992 342.4344 131.43742 343.1844Q131.62492 343.9344 131.62492 345.21564Q131.62492 346.73126 131.31242 347.65314Q131.01555 348.575 130.39055 349.09064Q129.78117 349.59064 128.82805 349.59064Q127.59367 349.59064 126.87492 348.7Q126.03117 347.6375 126.03117 345.21564ZM127.1093 345.21564Q127.1093 347.325 127.6093 348.02814Q128.1093 348.73126 128.82805 348.73126Q129.56242 348.73126 130.0468 348.02814Q130.5468 347.325 130.5468 345.21564Q130.5468 343.09064 130.0468 342.40314Q129.56242 341.7 128.81242 341.7Q128.09367 341.7 127.65617 342.3094Q127.1093 343.09064 127.1093 345.21564ZM133.03117 345.21564Q133.03117 343.6844 133.34367 342.7625Q133.65617 341.825 134.26555 341.325Q134.89055 340.825 135.82805 340.825Q136.51555 340.825 137.03117 341.10626Q137.56242 341.3875 137.90617 341.91876Q138.24992 342.4344 138.43742 343.1844Q138.62492 343.9344 138.62492 345.21564Q138.62492 346.73126 138.31242 347.65314Q138.01555 348.575 137.39055 349.09064Q136.78117 349.59064 135.82805 349.59064Q134.59367 349.59064 133.87492 348.7Q133.03117 347.6375 133.03117 345.21564ZM134.1093 345.21564Q134.1093 347.325 134.6093 348.02814Q135.1093 348.73126 135.82805 348.73126Q136.56242 348.73126 137.0468 348.02814Q137.5468 347.325 137.5468 345.21564Q137.5468 343.09064 137.0468 342.40314Q136.56242 341.7 135.81242 341.7Q135.09367 341.7 134.65617 342.3094Q134.1093 343.09064 134.1093 345.21564Z" fill-rule="nonzero"/><path fill="#000000" d="M218.20212 349.45L217.15524 349.45L217.15524 342.73126Q216.76462 343.09064 216.13962 343.46564Q215.53024 343.825 215.04587 343.9969L215.04587 342.98126Q215.92087 342.5594 216.57712 341.98126Q217.249 341.3875 217.53024 340.825L218.20212 340.825L218.20212 349.45ZM221.23337 345.21564Q221.23337 343.6844 221.54587 342.7625Q221.85837 341.825 222.46774 341.325Q223.09274 340.825 224.03024 340.825Q224.71774 340.825 225.23337 341.10626Q225.76462 341.3875 226.10837 341.91876Q226.45212 342.4344 226.63962 343.1844Q226.82712 343.9344 226.82712 345.21564Q226.82712 346.73126 226.51462 347.65314Q226.21774 348.575 225.59274 349.09064Q224.98337 349.59064 224.03024 349.59064Q222.79587 349.59064 222.07712 348.7Q221.23337 347.6375 221.23337 345.21564ZM222.3115 345.21564Q222.3115 347.325 222.8115 348.02814Q223.3115 348.73126 224.03024 348.73126Q224.76462 348.73126 225.249 348.02814Q225.749 347.325 225.749 345.21564Q225.749 343.09064 225.249 342.40314Q224.76462 341.7 224.01462 341.7Q223.29587 341.7 222.85837 342.3094Q222.3115 343.09064 222.3115 345.21564ZM228.82712 349.45L228.82712 348.2469L230.03024 348.2469L230.03024 349.45L228.82712 349.45ZM231.23337 345.21564Q231.23337 343.6844 231.54587 342.7625Q231.85837 341.825 232.46774 341.325Q233.09274 340.825 234.03024 340.825Q234.71774 340.825 235.23337 341.10626Q235.76462 341.3875 236.10837 341.91876Q236.45212 342.4344 236.63962 343.1844Q236.82712 343.9344 236.82712 345.21564Q236.82712 346.73126 236.51462 347.65314Q236.21774 348.575 235.59274 349.09064Q234.98337 349.59064 234.03024 349.59064Q232.79587 349.59064 232.07712 348.7Q231.23337 347.6375 231.23337 345.21564ZM232.3115 345.21564Q232.3115 347.325 232.8115 348.02814Q233.3115 348.73126 234.03024 348.73126Q234.76462 348.73126 235.249 348.02814Q235.749 347.325 235.749 345.21564Q235.749 343.09064 235.249 342.40314Q234.76462 341.7 234.01462 341.7Q233.29587 341.7 232.85837 342.3094Q232.3115 343.09064 232.3115 345.21564ZM238.23337 345.21564Q238.23337 343.6844 238.54587 342.7625Q238.85837 341.825 239.46774 341.325Q240.09274 340.825 241.03024 340.825Q241.71774 340.825 242.23337 341.10626Q242.76462 341.3875 243.10837 341.91876Q243.45212 342.4344 243.63962 343.1844Q243.82712 343.9344 243.82712 345.21564Q243.82712 346.73126 243.51462 347.65314Q243.21774 348.575 242.59274 349.09064Q241.98337 349.59064 241.03024 349.59064Q239.79587 349.59064 239.07712 348.7Q238.23337 347.6375 238.23337 345.21564ZM239.3115 345.21564Q239.3115 347.325 239.8115 348.02814Q240.3115 348.73126 241.03024 348.73126Q241.76462 348.73126 242.249 348.02814Q242.749 347.325 242.749 345.21564Q242.749 343.09064 242.249 342.40314Q241.76462 341.7 241.01462 341.7Q240.29587 341.7 239.85837 342.3094Q239.3115 343.09064 239.3115 345.21564ZM245.23337 345.21564Q245.23337 343.6844 245.54587 342.7625Q245.85837 341.825 246.46774 341.325Q247.09274 340.825 248.03024 340.825Q248.71774 340.825 249.23337 341.10626Q249.76462 341.3875 250.10837 341.91876Q250.45212 342.4344 250.63962 343.1844Q250.82712 343.9344 250.82712 345.21564Q250.82712 346.73126 250.51462 347.65314Q250.21774 348.575 249.59274 349.09064Q248.98337 349.59064 248.03024 349.59064Q246.79587 349.59064 246.07712 348.7Q245.23337 347.6375 245.23337 345.21564ZM246.3115 345.21564Q246.3115 347.325 246.8115 348.02814Q247.3115 348.73126 248.03024 348.73126Q248.76462 348.73126 249.249 348.02814Q249.749 347.325 249.749 345.21564Q249.749 343.09064 249.249 342.40314Q248.76462 341.7 248.01462 341.7Q247.29587 341.7 246.85837 342.3094Q246.3115 343.09064 246.3115 345.21564Z" fill-rule="nonzero"/><path fill="#000000" d="M326.9043 349.45L325.85742 349.45L325.85742 342.73126Q325.4668 343.09064 324.8418 343.46564Q324.23242 343.825 323.74805 343.9969L323.74805 342.98126Q324.62305 342.5594 325.2793 341.98126Q325.95117 341.3875 326.23242 340.825L326.9043 340.825L326.9043 349.45ZM335.48242 348.4344L335.48242 349.45L329.79492 349.45Q329.79492 349.075 329.91992 348.71564Q330.13867 348.1375 330.60742 347.575Q331.0918 347.0125 331.99805 346.27814Q333.4043 345.1219 333.88867 344.45Q334.38867 343.77814 334.38867 343.1844Q334.38867 342.5594 333.93555 342.1375Q333.48242 341.7 332.76367 341.7Q331.99805 341.7 331.54492 342.15314Q331.0918 342.60626 331.07617 343.41876L329.99805 343.3094Q330.10742 342.09064 330.82617 341.46564Q331.56055 340.825 332.79492 340.825Q334.0293 340.825 334.74805 341.5125Q335.4668 342.2 335.4668 343.21564Q335.4668 343.73126 335.24805 344.23126Q335.04492 344.71564 334.54492 345.27814Q334.06055 345.825 332.93555 346.77814Q331.98242 347.575 331.70117 347.8719Q331.43555 348.15314 331.26367 348.4344L335.48242 348.4344ZM337.5293 349.45L337.5293 348.2469L338.73242 348.2469L338.73242 349.45L337.5293 349.45ZM339.93555 347.2L341.04492 347.10626Q341.16992 347.91876 341.60742 348.325Q342.06055 348.73126 342.70117 348.73126Q343.45117 348.73126 343.98242 348.15314Q344.51367 347.575 344.51367 346.6375Q344.51367 345.73126 343.99805 345.21564Q343.49805 344.6844 342.66992 344.6844Q342.16992 344.6844 341.74805 344.91876Q341.3418 345.15314 341.10742 345.5125L340.12305 345.3875L340.95117 340.98126L345.23242 340.98126L345.23242 341.98126L341.79492 341.98126L341.3418 344.29376Q342.10742 343.7469 342.95117 343.7469Q344.07617 343.7469 344.8418 344.52814Q345.62305 345.3094 345.62305 346.54376Q345.62305 347.7 344.95117 348.5594Q344.12305 349.59064 342.70117 349.59064Q341.5293 349.59064 340.7793 348.9344Q340.04492 348.27814 339.93555 347.2ZM346.93555 345.21564Q346.93555 343.6844 347.24805 342.7625Q347.56055 341.825 348.16992 341.325Q348.79492 340.825 349.73242 340.825Q350.41992 340.825 350.93555 341.10626Q351.4668 341.3875 351.81055 341.91876Q352.1543 342.4344 352.3418 343.1844Q352.5293 343.9344 352.5293 345.21564Q352.5293 346.73126 352.2168 347.65314Q351.91992 348.575 351.29492 349.09064Q350.68555 349.59064 349.73242 349.59064Q348.49805 349.59064 347.7793 348.7Q346.93555 347.6375 346.93555 345.21564ZM348.01367 345.21564Q348.01367 347.325 348.51367 348.02814Q349.01367 348.73126 349.73242 348.73126Q350.4668 348.73126 350.95117 348.02814Q351.45117 347.325 351.45117 345.21564Q351.45117 343.09064 350.95117 342.40314Q350.4668 341.7 349.7168 341.7Q348.99805 341.7 348.56055 342.3094Q348.01367 343.09064 348.01367 345.21564ZM353.93555 345.21564Q353.93555 343.6844 354.24805 342.7625Q354.56055 341.825 355.16992 341.325Q355.79492 340.825 356.73242 340.825Q357.41992 340.825 357.93555 341.10626Q358.4668 341.3875 358.81055 341.91876Q359.1543 342.4344 359.3418 343.1844Q359.5293 343.9344 359.5293 345.21564Q359.5293 346.73126 359.2168 347.65314Q358.91992 348.575 358.29492 349.09064Q357.68555 349.59064 356.73242 349.59064Q355.49805 349.59064 354.7793 348.7Q353.93555 347.6375 353.93555 345.21564ZM355.01367 345.21564Q355.01367 347.325 355.51367 348.02814Q356.01367 348.73126 356.73242 348.73126Q357.4668 348.73126 357.95117 348.02814Q358.45117 347.325 358.45117 345.21564Q358.45117 343.09064 357.95117 342.40314Q357.4668 341.7 356.7168 341.7Q355.99805 341.7 355.56055 342.3094Q355.01367 343.09064 355.01367 345.21564Z" fill-rule="nonzero"/><path fill="#000000" d="M435.6065 349.45L434.55963 349.45L434.55963 342.73126Q434.169 343.09064 433.544 343.46564Q432.93463 343.825 432.45026 343.9969L432.45026 342.98126Q433.32526 342.5594 433.9815 341.98126Q434.65338 341.3875 434.93463 340.825L435.6065 340.825L435.6065 349.45ZM438.63776 347.2L439.74713 347.10626Q439.87213 347.91876 440.30963 348.325Q440.76276 348.73126 441.40338 348.73126Q442.15338 348.73126 442.68463 348.15314Q443.21588 347.575 443.21588 346.6375Q443.21588 345.73126 442.70026 345.21564Q442.20026 344.6844 441.37213 344.6844Q440.87213 344.6844 440.45026 344.91876Q440.044 345.15314 439.80963 345.5125L438.82526 345.3875L439.65338 340.98126L443.93463 340.98126L443.93463 341.98126L440.49713 341.98126L440.044 344.29376Q440.80963 343.7469 441.65338 343.7469Q442.77838 343.7469 443.544 344.52814Q444.32526 345.3094 444.32526 346.54376Q444.32526 347.7 443.65338 348.5594Q442.82526 349.59064 441.40338 349.59064Q440.2315 349.59064 439.4815 348.9344Q438.74713 348.27814 438.63776 347.2ZM446.2315 349.45L446.2315 348.2469L447.43463 348.2469L447.43463 349.45L446.2315 349.45ZM448.63776 345.21564Q448.63776 343.6844 448.95026 342.7625Q449.26276 341.825 449.87213 341.325Q450.49713 340.825 451.43463 340.825Q452.12213 340.825 452.63776 341.10626Q453.169 341.3875 453.51276 341.91876Q453.8565 342.4344 454.044 343.1844Q454.2315 343.9344 454.2315 345.21564Q454.2315 346.73126 453.919 347.65314Q453.62213 348.575 452.99713 349.09064Q452.38776 349.59064 451.43463 349.59064Q450.20026 349.59064 449.4815 348.7Q448.63776 347.6375 448.63776 345.21564ZM449.71588 345.21564Q449.71588 347.325 450.21588 348.02814Q450.71588 348.73126 451.43463 348.73126Q452.169 348.73126 452.65338 348.02814Q453.15338 347.325 453.15338 345.21564Q453.15338 343.09064 452.65338 342.40314Q452.169 341.7 451.419 341.7Q450.70026 341.7 450.26276 342.3094Q449.71588 343.09064 449.71588 345.21564ZM455.63776 345.21564Q455.63776 343.6844 455.95026 342.7625Q456.26276 341.825 456.87213 341.325Q457.49713 340.825 458.43463 340.825Q459.12213 340.825 459.63776 341.10626Q460.169 341.3875 460.51276 341.91876Q460.8565 342.4344 461.044 343.1844Q461.2315 343.9344 461.2315 345.21564Q461.2315 346.73126 460.919 347.65314Q460.62213 348.575 459.99713 349.09064Q459.38776 349.59064 458.43463 349.59064Q457.20026 349.59064 456.4815 348.7Q455.63776 347.6375 455.63776 345.21564ZM456.71588 345.21564Q456.71588 347.325 457.21588 348.02814Q457.71588 348.73126 458.43463 348.73126Q459.169 348.73126 459.65338 348.02814Q460.15338 347.325 460.15338 345.21564Q460.15338 343.09064 459.65338 342.40314Q459.169 341.7 458.419 341.7Q457.70026 341.7 457.26276 342.3094Q456.71588 343.09064 456.71588 345.21564ZM462.63776 345.21564Q462.63776 343.6844 462.95026 342.7625Q463.26276 341.825 463.87213 341.325Q464.49713 340.825 465.43463 340.825Q466.12213 340.825 466.63776 341.10626Q467.169 341.3875 467.51276 341.91876Q467.8565 342.4344 468.044 343.1844Q468.2315 343.9344 468.2315 345.21564Q468.2315 346.73126 467.919 347.65314Q467.62213 348.575 466.99713 349.09064Q466.38776 349.59064 465.43463 349.59064Q464.20026 349.59064 463.4815 348.7Q462.63776 347.6375 462.63776 345.21564ZM463.71588 345.21564Q463.71588 347.325 464.21588 348.02814Q464.71588 348.73126 465.43463 348.73126Q466.169 348.73126 466.65338 348.02814Q467.15338 347.325 467.15338 345.21564Q467.15338 343.09064 466.65338 342.40314Q466.169 341.7 465.419 341.7Q464.70026 341.7 464.26276 342.3094Q463.71588 343.09064 463.71588 345.21564Z" fill-rule="nonzero"/><path fill="#000000" d="M544.3087 349.45L543.26184 349.45L543.26184 342.73126Q542.8712 343.09064 542.2462 343.46564Q541.63684 343.825 541.15247 343.9969L541.15247 342.98126Q542.02747 342.5594 542.6837 341.98126Q543.3556 341.3875 543.63684 340.825L544.3087 340.825L544.3087 349.45ZM547.40247 341.98126L547.40247 340.96564L552.96497 340.96564L552.96497 341.79376Q552.15247 342.66876 551.33997 344.1219Q550.5431 345.5594 550.1056 347.09064Q549.77747 348.16876 549.69934 349.45L548.6056 349.45Q548.6212 348.4344 548.9962 346.9969Q549.38684 345.5594 550.08997 344.23126Q550.8087 342.90314 551.6212 341.98126L547.40247 341.98126ZM554.9337 349.45L554.9337 348.2469L556.13684 348.2469L556.13684 349.45L554.9337 349.45ZM557.33997 347.2L558.44934 347.10626Q558.57434 347.91876 559.01184 348.325Q559.46497 348.73126 560.1056 348.73126Q560.8556 348.73126 561.38684 348.15314Q561.9181 347.575 561.9181 346.6375Q561.9181 345.73126 561.40247 345.21564Q560.90247 344.6844 560.07434 344.6844Q559.57434 344.6844 559.15247 344.91876Q558.7462 345.15314 558.51184 345.5125L557.52747 345.3875L558.3556 340.98126L562.63684 340.98126L562.63684 341.98126L559.19934 341.98126L558.7462 344.29376Q559.51184 343.7469 560.3556 343.7469Q561.4806 343.7469 562.2462 344.52814Q563.02747 345.3094 563.02747 346.54376Q563.02747 347.7 562.3556 348.5594Q561.52747 349.59064 560.1056 349.59064Q558.9337 349.59064 558.1837 348.9344Q557.44934 348.27814 557.33997 347.2ZM564.33997 345.21564Q564.33997 343.6844 564.65247 342.7625Q564.96497 341.825 565.57434 341.325Q566.19934 340.825 567.13684 340.825Q567.82434 340.825 568.33997 341.10626Q568.8712 341.3875 569.21497 341.91876Q569.5587 342.4344 569.7462 343.1844Q569.9337 343.9344 569.9337 345.21564Q569.9337 346.73126 569.6212 347.65314Q569.32434 348.575 568.69934 349.09064Q568.08997 349.59064 567.13684 349.59064Q565.90247 349.59064 565.1837 348.7Q564.33997 347.6375 564.33997 345.21564ZM565.4181 345.21564Q565.4181 347.325 565.9181 348.02814Q566.4181 348.73126 567.13684 348.73126Q567.8712 348.73126 568.3556 348.02814Q568.8556 347.325 568.8556 345.21564Q568.8556 343.09064 568.3556 342.40314Q567.8712 341.7 567.1212 341.7Q566.40247 341.7 565.96497 342.3094Q565.4181 343.09064 565.4181 345.21564ZM571.33997 345.21564Q571.33997 343.6844 571.65247 342.7625Q571.96497 341.825 572.57434 341.325Q573.19934 340.825 574.13684 340.825Q574.82434 340.825 575.33997 341.10626Q575.8712 341.3875 576.21497 341.91876Q576.5587 342.4344 576.7462 343.1844Q576.9337 343.9344 576.9337 345.21564Q576.9337 346.73126 576.6212 347.65314Q576.32434 348.575 575.69934 349.09064Q575.08997 349.59064 574.13684 349.59064Q572.90247 349.59064 572.1837 348.7Q571.33997 347.6375 571.33997 345.21564ZM572.4181 345.21564Q572.4181 347.325 572.9181 348.02814Q573.4181 348.73126 574.13684 348.73126Q574.8712 348.73126 575.3556 348.02814Q575.8556 347.325 575.8556 345.21564Q575.8556 343.09064 575.3556 342.40314Q574.8712 341.7 574.1212 341.7Q573.40247 341.7 572.96497 342.3094Q572.4181 343.09064 572.4181 345.21564Z" fill-rule="nonzero"/><path stroke="#4285f4" stroke-width="4.0" stroke-linecap="butt" d="M240.5 25.55L252.5 25.55" fill-rule="nonzero"/><path fill="#1a1a1a" d="M261.42188 29.55L261.42188 20.95625L264.39062 20.95625Q265.39062 20.95625 265.92188 21.08125Q266.65625 21.253124 267.17188 21.690624Q267.85938 22.26875 268.1875 23.175Q268.53125 24.065624 268.53125 25.20625Q268.53125 26.190624 268.29688 26.940624Q268.07812 27.690624 267.71875 28.190624Q267.35938 28.690624 266.92188 28.971874Q266.5 29.253124 265.90625 29.409374Q265.3125 29.55 264.53125 29.55L261.42188 29.55ZM262.5625 28.534374L264.39062 28.534374Q265.25 28.534374 265.73438 28.378124Q266.21875 28.221874 266.5 27.925Q266.90625 27.534374 267.125 26.846874Q267.35938 26.159374 267.35938 25.190624Q267.35938 23.846874 266.90625 23.128124Q266.46875 22.39375 265.84375 22.14375Q265.375 21.971874 264.375 21.971874L262.5625 21.971874L262.5625 28.534374ZM270.29688 22.175L270.29688 20.95625L271.35938 20.95625L271.35938 22.175L270.29688 22.175ZM270.29688 29.55L270.29688 23.33125L271.35938 23.33125L271.35938 29.55L270.29688 29.55ZM273.28125 29.55L273.28125 23.33125L274.23438 23.33125L274.23438 24.26875Q274.59375 23.6125 274.89062 23.409374Q275.20312 23.190624 275.57812 23.190624Q276.10938 23.190624 276.65625 23.51875L276.29688 24.503124Q275.90625 24.26875 275.53125 24.26875Q275.17188 24.26875 274.89062 24.4875Q274.625 24.690624 274.51562 25.065624Q274.32812 25.628124 274.32812 26.284374L274.32812 29.55L273.28125 29.55ZM281.54688 27.55L282.64062 27.675Q282.39062 28.628124 281.6875 29.159374Q280.98438 29.690624 279.90625 29.690624Q278.54688 29.690624 277.73438 28.846874Q276.9375 28.003124 276.9375 26.4875Q276.9375 24.925 277.75 24.065624Q278.5625 23.190624 279.84375 23.190624Q281.09375 23.190624 281.875 24.034374Q282.67188 24.878124 282.67188 26.425Q282.67188 26.51875 282.67188 26.70625L278.03125 26.70625Q278.09375 27.7375 278.60938 28.284374Q279.125 28.815624 279.90625 28.815624Q280.48438 28.815624 280.89062 28.51875Q281.3125 28.20625 281.54688 27.55ZM278.09375 25.846874L281.5625 25.846874Q281.5 25.05 281.17188 24.659374Q280.65625 24.05 279.85938 24.05Q279.125 24.05 278.625 24.534374Q278.14062 25.01875 278.09375 25.846874ZM288.35938 27.26875L289.39062 27.409374Q289.21875 28.471874 288.51562 29.08125Q287.8125 29.690624 286.79688 29.690624Q285.51562 29.690624 284.73438 28.8625Q283.96875 28.01875 283.96875 26.45625Q283.96875 25.45625 284.29688 24.70625Q284.64062 23.940624 285.3125 23.565624Q286.0 23.190624 286.8125 23.190624Q287.8125 23.190624 288.45312 23.70625Q289.10938 24.20625 289.29688 25.159374L288.26562 25.315624Q288.125 24.690624 287.75 24.378124Q287.375 24.05 286.84375 24.05Q286.04688 24.05 285.54688 24.628124Q285.04688 25.190624 285.04688 26.425Q285.04688 27.690624 285.53125 28.253124Q286.01562 28.815624 286.78125 28.815624Q287.40625 28.815624 287.8125 28.440624Q288.23438 28.065624 288.35938 27.26875ZM292.59375 28.6125L292.75 29.534374Q292.29688 29.628124 291.95312 29.628124Q291.375 29.628124 291.0625 29.45625Q290.75 29.26875 290.60938 28.971874Q290.48438 28.675 290.48438 27.721874L290.48438 24.14375L289.71875 24.14375L289.71875 23.33125L290.48438 23.33125L290.48438 21.784374L291.53125 21.159374L291.53125 23.33125L292.59375 23.33125L292.59375 24.14375L291.53125 24.14375L291.53125 27.784374Q291.53125 28.2375 291.57812 28.3625Q291.64062 28.4875 291.76562 28.565624Q291.89062 28.64375 292.125 28.64375Q292.3125 28.64375 292.59375 28.6125Z" fill-rule="nonzero"/><path stroke="#ea4335" stroke-width="4.0" stroke-linecap="butt" d="M308.5 25.55L320.5 25.55" fill-rule="nonzero"/><path fill="#1a1a1a" d="M329.07812 25.3625Q329.07812 23.221874 330.21875 22.01875Q331.375 20.8 333.1875 20.8Q334.39062 20.8 335.34375 21.378124Q336.29688 21.940624 336.79688 22.95625Q337.29688 23.971874 337.29688 25.26875Q337.29688 26.565624 336.76562 27.596874Q336.23438 28.628124 335.26562 29.159374Q334.3125 29.690624 333.1875 29.690624Q331.96875 29.690624 331.01562 29.1125Q330.0625 28.51875 329.5625 27.51875Q329.07812 26.503124 329.07812 25.3625ZM330.25 25.378124Q330.25 26.940624 331.07812 27.83125Q331.92188 28.721874 333.1875 28.721874Q334.46875 28.721874 335.29688 27.83125Q336.125 26.925 336.125 25.253124Q336.125 24.20625 335.76562 23.425Q335.42188 22.64375 334.73438 22.221874Q334.04688 21.784374 333.20312 21.784374Q332.0 21.784374 331.125 22.6125Q330.25 23.440624 330.25 25.378124ZM338.28125 29.55L338.28125 23.33125L339.23438 23.33125L339.23438 24.26875Q339.59375 23.6125 339.89062 23.409374Q340.20312 23.190624 340.57812 23.190624Q341.10938 23.190624 341.65625 23.51875L341.29688 24.503124Q340.90625 24.26875 340.53125 24.26875Q340.17188 24.26875 339.89062 24.4875Q339.625 24.690624 339.51562 25.065624Q339.32812 25.628124 339.32812 26.284374L339.32812 29.55L338.28125 29.55ZM346.32812 29.55L346.32812 28.76875Q345.73438 29.690624 344.59375 29.690624Q343.84375 29.690624 343.21875 29.284374Q342.59375 28.8625 342.25 28.128124Q341.90625 27.39375 341.90625 26.440624Q341.90625 25.51875 342.21875 24.753124Q342.53125 23.9875 343.15625 23.596874Q343.78125 23.190624 344.54688 23.190624Q345.10938 23.190624 345.54688 23.425Q345.98438 23.659374 346.26562 24.034374L346.26562 20.95625L347.3125 20.95625L347.3125 29.55L346.32812 29.55ZM343.0 26.440624Q343.0 27.64375 343.5 28.2375Q344.0 28.815624 344.6875 28.815624Q345.375 28.815624 345.85938 28.253124Q346.34375 27.690624 346.34375 26.534374Q346.34375 25.253124 345.84375 24.659374Q345.35938 24.065624 344.64062 24.065624Q343.9375 24.065624 343.46875 24.64375Q343.0 25.20625 343.0 26.440624ZM353.54688 27.55L354.64062 27.675Q354.39062 28.628124 353.6875 29.159374Q352.98438 29.690624 351.90625 29.690624Q350.54688 29.690624 349.73438 28.846874Q348.9375 28.003124 348.9375 26.4875Q348.9375 24.925 349.75 24.065624Q350.5625 23.190624 351.84375 23.190624Q353.09375 23.190624 353.875 24.034374Q354.67188 24.878124 354.67188 26.425Q354.67188 26.51875 354.67188 26.70625L350.03125 26.70625Q350.09375 27.7375 350.60938 28.284374Q351.125 28.815624 351.90625 28.815624Q352.48438 28.815624 352.89062 28.51875Q353.3125 28.20625 353.54688 27.55ZM350.09375 25.846874L353.5625 25.846874Q353.5 25.05 353.17188 24.659374Q352.65625 24.05 351.85938 24.05Q351.125 24.05 350.625 24.534374Q350.14062 25.01875 350.09375 25.846874ZM356.28125 29.55L356.28125 23.33125L357.23438 23.33125L357.23438 24.26875Q357.59375 23.6125 357.89062 23.409374Q358.20312 23.190624 358.57812 23.190624Q359.10938 23.190624 359.65625 23.51875L359.29688 24.503124Q358.90625 24.26875 358.53125 24.26875Q358.17188 24.26875 357.89062 24.4875Q357.625 24.690624 357.51562 25.065624Q357.32812 25.628124 357.32812 26.284374L357.32812 29.55L356.28125 29.55Z" fill-rule="nonzero"/></svg>